<svg width="14" height="15" viewBox="0 0 14 15" fill="none" xmlns="http://www.w3.org/2000/svg">
    <path d="M6.99536 10.8355C7.19691 10.8355 7.3673 10.7673 7.50652 10.631C7.64574 10.4948 7.71536 10.3259 7.71536 10.1243C7.71536 9.9229 7.64725 9.75184 7.51102 9.61118C7.37469 9.47062 7.2058 9.40034 7.00436 9.40034C6.8028 9.40034 6.63241 9.46945 6.49319 9.60767C6.35397 9.7459 6.28436 9.91579 6.28436 10.1173C6.28436 10.3188 6.35247 10.4888 6.48869 10.6275C6.62502 10.7662 6.79391 10.8355 6.99536 10.8355ZM6.99636 8.30801C7.18925 8.30801 7.35336 8.24118 7.48869 8.10751C7.62391 7.97395 7.69152 7.81023 7.69152 7.61634V4.90801C7.69152 4.71412 7.62508 4.55034 7.49219 4.41667C7.35919 4.28312 7.19624 4.21634 7.00336 4.21634C6.81047 4.21634 6.64636 4.28312 6.51102 4.41667C6.3758 4.55034 6.30819 4.71412 6.30819 4.90801V7.61634C6.30819 7.81023 6.37463 7.97395 6.50752 8.10751C6.64052 8.24118 6.80347 8.30801 6.99636 8.30801ZM7.00452 14.0355C6.10241 14.0355 5.25452 13.8654 4.46086 13.5252C3.66708 13.185 2.97263 12.7173 2.37752 12.1223C1.78252 11.5272 1.31491 10.8331 0.974689 10.0398C0.634466 9.24662 0.464355 8.39745 0.464355 7.49234C0.464355 6.58734 0.634466 5.74079 0.974689 4.95267C1.31491 4.16445 1.78252 3.47279 2.37752 2.87767C2.97263 2.28267 3.6668 1.81506 4.46002 1.47484C5.25324 1.13462 6.10241 0.964508 7.00752 0.964508C7.91252 0.964508 8.75908 1.13462 9.54719 1.47484C10.3354 1.81506 11.0271 2.28267 11.6222 2.87767C12.2172 3.47279 12.6848 4.16567 13.025 4.95634C13.3652 5.74701 13.5354 6.59334 13.5354 7.49534C13.5354 8.39745 13.3652 9.24534 13.025 10.039C12.6848 10.8328 12.2172 11.5272 11.6222 12.1223C11.0271 12.7173 10.3342 13.185 9.54352 13.5252C8.75286 13.8654 7.90652 14.0355 7.00452 14.0355ZM6.99986 12.6522C8.43363 12.6522 9.6508 12.152 10.6514 11.1515C11.6518 10.151 12.152 8.93379 12.152 7.50001C12.152 6.06623 11.6518 4.84906 10.6514 3.84851C9.6508 2.84806 8.43363 2.34784 6.99986 2.34784C5.56608 2.34784 4.34891 2.84806 3.34836 3.84851C2.34791 4.84906 1.84769 6.06623 1.84769 7.50001C1.84769 8.93379 2.34791 10.151 3.34836 11.1515C4.34891 12.152 5.56608 12.6522 6.99986 12.6522Z" fill="#AF2121"/>
</svg>
