<svg width="14" height="14" viewBox="0 0 14 14" fill="none" xmlns="http://www.w3.org/2000/svg">
<mask id="mask0_907_27255" style="mask-type:alpha" maskUnits="userSpaceOnUse" x="0" y="0" width="14" height="14">
<rect width="14" height="14" fill="#D9D9D9"/>
</mask>
<g mask="url(#mask0_907_27255)">
<path d="M6.9999 13.7664C6.01796 13.7664 5.08715 13.5623 4.20749 13.1539C3.32743 12.7456 2.56657 12.1623 1.9249 11.4039V11.7102C1.9249 11.963 1.83507 12.1794 1.6554 12.3594C1.47535 12.5391 1.25893 12.6289 1.00615 12.6289C0.753375 12.6289 0.537152 12.5391 0.357486 12.3594C0.17743 12.1794 0.0874023 11.963 0.0874023 11.7102V9.02684C0.0874023 8.77406 0.17743 8.55764 0.357486 8.37759C0.537152 8.19792 0.753375 8.10809 1.00615 8.10809H3.68949C3.94226 8.10809 4.15868 8.19792 4.33874 8.37759C4.5184 8.55764 4.60824 8.77406 4.60824 9.02684C4.60824 9.27962 4.5184 9.49584 4.33874 9.67551C4.15868 9.85556 3.94226 9.94559 3.68949 9.94559H3.10615C3.57282 10.5775 4.1439 11.066 4.8194 11.4109C5.49529 11.7563 6.22213 11.9289 6.9999 11.9289C7.97213 11.9289 8.84713 11.6787 9.6249 11.1782C10.4027 10.6773 11.0055 10.0088 11.4332 9.17267C11.5596 8.9199 11.7372 8.71826 11.9658 8.56776C12.1941 8.41687 12.4395 8.36573 12.702 8.41434C12.9548 8.46295 13.1395 8.60392 13.2562 8.83726C13.3728 9.07059 13.3777 9.30878 13.2707 9.55184C12.7457 10.8157 11.917 11.8342 10.7846 12.6073C9.65174 13.3801 8.39018 13.7664 6.9999 13.7664ZM1.03532 6.11017C0.772819 6.06156 0.568652 5.92545 0.422819 5.70184C0.276986 5.47823 0.242958 5.24003 0.320736 4.98726C0.388791 4.7442 0.47143 4.50853 0.568652 4.28026C0.665875 4.05159 0.787402 3.81573 0.933236 3.57267C1.06935 3.34906 1.26379 3.21042 1.51657 3.15676C1.76935 3.10348 2.00268 3.15462 2.21657 3.31017C2.42074 3.45601 2.5374 3.65784 2.56657 3.91567C2.59574 4.17312 2.55685 4.41851 2.4499 4.65184C2.39157 4.76851 2.34062 4.88751 2.29707 5.00884L2.15824 5.39559C2.08046 5.64837 1.93715 5.84281 1.72832 5.97892C1.5191 6.11503 1.2881 6.15878 1.03532 6.11017ZM3.35407 2.14351C3.20824 1.9199 3.15962 1.68403 3.20824 1.43592C3.25685 1.1882 3.39296 0.996284 3.61657 0.860173C3.83046 0.733784 4.04921 0.62684 4.27282 0.53934C4.49643 0.45184 4.74435 0.369201 5.01657 0.291423C5.26935 0.223367 5.50754 0.259728 5.73115 0.400506C5.95476 0.541673 6.09088 0.743506 6.13949 1.00601C6.1881 1.25878 6.14435 1.49212 6.00824 1.70601C5.87213 1.9199 5.67768 2.06573 5.4249 2.14351C5.29851 2.19212 5.17212 2.2382 5.04574 2.28176C4.91935 2.3257 4.79782 2.37684 4.68115 2.43517C4.44782 2.55184 4.20243 2.58587 3.94499 2.53726C3.68715 2.48865 3.49018 2.3574 3.35407 2.14351ZM5.97907 8.02059L4.6374 7.39351C4.4624 7.31573 4.3749 7.17709 4.3749 6.97759C4.3749 6.77848 4.4624 6.64003 4.6374 6.56226L5.97907 5.94976L6.59157 4.60809C6.66935 4.43309 6.81032 4.34559 7.01449 4.34559C7.21865 4.34559 7.35963 4.43309 7.4374 4.60809L8.0499 5.94976L9.39157 6.57684C9.56657 6.65462 9.65407 6.79326 9.65407 6.99276C9.65407 7.19187 9.56657 7.33031 9.39157 7.40809L8.0499 8.02059L7.4374 9.36226C7.35963 9.53726 7.21865 9.62476 7.01449 9.62476C6.81032 9.62476 6.66935 9.53726 6.59157 9.36226L5.97907 8.02059ZM10.6895 2.21642C10.5242 2.42059 10.3103 2.53473 10.0478 2.55884C9.78532 2.58334 9.53254 2.5324 9.28949 2.40601C9.18254 2.34767 9.0684 2.2942 8.94707 2.24559C8.82535 2.19698 8.70129 2.15323 8.5749 2.11434C8.32213 2.03656 8.11563 1.89559 7.9554 1.69142C7.79479 1.48726 7.73879 1.25878 7.7874 1.00601C7.83601 0.743506 7.96493 0.536812 8.17415 0.385923C8.38299 0.235423 8.61379 0.194201 8.86657 0.262256C9.16796 0.340034 9.4499 0.432395 9.7124 0.53934C9.9749 0.646284 10.2325 0.777534 10.4853 0.93309C10.7089 1.0692 10.8402 1.26598 10.8791 1.52342C10.918 1.78126 10.8548 2.01226 10.6895 2.21642ZM12.9645 6.13934C12.7117 6.18795 12.4832 6.14167 12.2791 6.00051C12.0749 5.85973 11.9339 5.66295 11.8562 5.41017C11.8075 5.27406 11.7615 5.14767 11.7179 5.03101C11.674 4.91434 11.6228 4.79767 11.5645 4.68101C11.4478 4.44767 11.4041 4.20209 11.4332 3.94426C11.4624 3.68681 11.5791 3.48031 11.7832 3.32476C11.9971 3.15948 12.2305 3.10348 12.4832 3.15676C12.736 3.21042 12.9305 3.34906 13.0666 3.57267C13.2027 3.81573 13.3219 4.05626 13.4242 4.29426C13.526 4.53264 13.611 4.77823 13.6791 5.03101C13.7471 5.28378 13.7082 5.51945 13.5624 5.73801C13.4166 5.95695 13.2173 6.09073 12.9645 6.13934Z" fill="#995C00"/>
</g>
</svg>
