<svg width="12" height="12" viewBox="0 0 12 12" fill="none" xmlns="http://www.w3.org/2000/svg">
<path d="M2.28052 11.207H9.93286C10.5422 11.207 11.0032 11.0508 11.3157 10.7383C11.6282 10.4297 11.7844 9.97461 11.7844 9.37305V2.64062C11.7844 2.03906 11.6282 1.58203 11.3157 1.26953C11.0032 0.957031 10.5422 0.800781 9.93286 0.800781H2.28052C1.67505 0.800781 1.21411 0.957031 0.897705 1.26953C0.585205 1.57812 0.428955 2.03516 0.428955 2.64062V9.37305C0.428955 9.97852 0.585205 10.4355 0.897705 10.7441C1.21411 11.0527 1.67505 11.207 2.28052 11.207ZM2.2981 10.041C2.07153 10.041 1.89966 9.98242 1.78247 9.86523C1.66528 9.74805 1.60669 9.57031 1.60669 9.33203V4.26367C1.60669 4.02539 1.66528 3.84961 1.78247 3.73633C1.89966 3.61914 2.07153 3.56055 2.2981 3.56055H9.90942C10.136 3.56055 10.3098 3.61914 10.4309 3.73633C10.552 3.84961 10.6125 4.02539 10.6125 4.26367V9.33203C10.6125 9.57031 10.552 9.74805 10.4309 9.86523C10.3098 9.98242 10.136 10.041 9.90942 10.041H2.2981ZM5.04614 5.44727H5.36841C5.46997 5.44727 5.54028 5.42969 5.57935 5.39453C5.61841 5.35938 5.63794 5.29102 5.63794 5.18945V4.86719C5.63794 4.76562 5.61841 4.69727 5.57935 4.66211C5.54028 4.62695 5.46997 4.60938 5.36841 4.60938H5.04614C4.94849 4.60938 4.87817 4.62695 4.83521 4.66211C4.79614 4.69727 4.77661 4.76562 4.77661 4.86719V5.18945C4.77661 5.29102 4.79614 5.35938 4.83521 5.39453C4.87817 5.42969 4.94849 5.44727 5.04614 5.44727ZM6.84497 5.44727H7.1731C7.27466 5.44727 7.34497 5.42969 7.38403 5.39453C7.4231 5.35938 7.44263 5.29102 7.44263 5.18945V4.86719C7.44263 4.76562 7.4231 4.69727 7.38403 4.66211C7.34497 4.62695 7.27466 4.60938 7.1731 4.60938H6.84497C6.74341 4.60938 6.6731 4.62695 6.63403 4.66211C6.59888 4.69727 6.5813 4.76562 6.5813 4.86719V5.18945C6.5813 5.29102 6.59888 5.35938 6.63403 5.39453C6.6731 5.42969 6.74341 5.44727 6.84497 5.44727ZM8.6438 5.44727H8.97192C9.07349 5.44727 9.1438 5.42969 9.18286 5.39453C9.22192 5.35938 9.24146 5.29102 9.24146 5.18945V4.86719C9.24146 4.76562 9.22192 4.69727 9.18286 4.66211C9.1438 4.62695 9.07349 4.60938 8.97192 4.60938H8.6438C8.54224 4.60938 8.47192 4.62695 8.43286 4.66211C8.39771 4.69727 8.38013 4.76562 8.38013 4.86719V5.18945C8.38013 5.29102 8.39771 5.35938 8.43286 5.39453C8.47192 5.42969 8.54224 5.44727 8.6438 5.44727ZM3.24731 7.22266H3.56958C3.67114 7.22266 3.74146 7.20508 3.78052 7.16992C3.81958 7.13086 3.83911 7.0625 3.83911 6.96484V6.63672C3.83911 6.53516 3.81958 6.4668 3.78052 6.43164C3.74146 6.39648 3.67114 6.37891 3.56958 6.37891H3.24731C3.14575 6.37891 3.07544 6.39648 3.03638 6.43164C2.99731 6.4668 2.97778 6.53516 2.97778 6.63672V6.96484C2.97778 7.0625 2.99731 7.13086 3.03638 7.16992C3.07544 7.20508 3.14575 7.22266 3.24731 7.22266ZM5.04614 7.22266H5.36841C5.46997 7.22266 5.54028 7.20508 5.57935 7.16992C5.61841 7.13086 5.63794 7.0625 5.63794 6.96484V6.63672C5.63794 6.53516 5.61841 6.4668 5.57935 6.43164C5.54028 6.39648 5.46997 6.37891 5.36841 6.37891H5.04614C4.94849 6.37891 4.87817 6.39648 4.83521 6.43164C4.79614 6.4668 4.77661 6.53516 4.77661 6.63672V6.96484C4.77661 7.0625 4.79614 7.13086 4.83521 7.16992C4.87817 7.20508 4.94849 7.22266 5.04614 7.22266ZM6.84497 7.22266H7.1731C7.27466 7.22266 7.34497 7.20508 7.38403 7.16992C7.4231 7.13086 7.44263 7.0625 7.44263 6.96484V6.63672C7.44263 6.53516 7.4231 6.4668 7.38403 6.43164C7.34497 6.39648 7.27466 6.37891 7.1731 6.37891H6.84497C6.74341 6.37891 6.6731 6.39648 6.63403 6.43164C6.59888 6.4668 6.5813 6.53516 6.5813 6.63672V6.96484C6.5813 7.0625 6.59888 7.13086 6.63403 7.16992C6.6731 7.20508 6.74341 7.22266 6.84497 7.22266ZM8.6438 7.22266H8.97192C9.07349 7.22266 9.1438 7.20508 9.18286 7.16992C9.22192 7.13086 9.24146 7.0625 9.24146 6.96484V6.63672C9.24146 6.53516 9.22192 6.4668 9.18286 6.43164C9.1438 6.39648 9.07349 6.37891 8.97192 6.37891H8.6438C8.54224 6.37891 8.47192 6.39648 8.43286 6.43164C8.39771 6.4668 8.38013 6.53516 8.38013 6.63672V6.96484C8.38013 7.0625 8.39771 7.13086 8.43286 7.16992C8.47192 7.20508 8.54224 7.22266 8.6438 7.22266ZM3.24731 8.99219H3.56958C3.67114 8.99219 3.74146 8.97461 3.78052 8.93945C3.81958 8.90039 3.83911 8.83203 3.83911 8.73438V8.41211C3.83911 8.31055 3.81958 8.24219 3.78052 8.20703C3.74146 8.16797 3.67114 8.14844 3.56958 8.14844H3.24731C3.14575 8.14844 3.07544 8.16797 3.03638 8.20703C2.99731 8.24219 2.97778 8.31055 2.97778 8.41211V8.73438C2.97778 8.83203 2.99731 8.90039 3.03638 8.93945C3.07544 8.97461 3.14575 8.99219 3.24731 8.99219ZM5.04614 8.99219H5.36841C5.46997 8.99219 5.54028 8.97461 5.57935 8.93945C5.61841 8.90039 5.63794 8.83203 5.63794 8.73438V8.41211C5.63794 8.31055 5.61841 8.24219 5.57935 8.20703C5.54028 8.16797 5.46997 8.14844 5.36841 8.14844H5.04614C4.94849 8.14844 4.87817 8.16797 4.83521 8.20703C4.79614 8.24219 4.77661 8.31055 4.77661 8.41211V8.73438C4.77661 8.83203 4.79614 8.90039 4.83521 8.93945C4.87817 8.97461 4.94849 8.99219 5.04614 8.99219ZM6.84497 8.99219H7.1731C7.27466 8.99219 7.34497 8.97461 7.38403 8.93945C7.4231 8.90039 7.44263 8.83203 7.44263 8.73438V8.41211C7.44263 8.31055 7.4231 8.24219 7.38403 8.20703C7.34497 8.16797 7.27466 8.14844 7.1731 8.14844H6.84497C6.74341 8.14844 6.6731 8.16797 6.63403 8.20703C6.59888 8.24219 6.5813 8.31055 6.5813 8.41211V8.73438C6.5813 8.83203 6.59888 8.90039 6.63403 8.93945C6.6731 8.97461 6.74341 8.99219 6.84497 8.99219Z" fill="#696D80"/>
</svg>
