<svg width="14" height="8" viewBox="0 0 14 8" fill="none" xmlns="http://www.w3.org/2000/svg">
    <path d="M1.59967 4.00033C1.59967 2.86033 2.52634 1.93366 3.66634 1.93366H6.33301V0.666992H3.66634C2.78229 0.666992 1.93444 1.01818 1.30932 1.6433C0.684197 2.26842 0.333008 3.11627 0.333008 4.00033C0.333008 4.88438 0.684197 5.73223 1.30932 6.35735C1.93444 6.98247 2.78229 7.33366 3.66634 7.33366H6.33301V6.06699H3.66634C2.52634 6.06699 1.59967 5.14033 1.59967 4.00033ZM4.33301 4.66699H9.66634V3.33366H4.33301V4.66699ZM10.333 0.666992H7.66634V1.93366H10.333C11.473 1.93366 12.3997 2.86033 12.3997 4.00033C12.3997 5.14033 11.473 6.06699 10.333 6.06699H7.66634V7.33366H10.333C11.2171 7.33366 12.0649 6.98247 12.69 6.35735C13.3152 5.73223 13.6663 4.88438 13.6663 4.00033C13.6663 3.11627 13.3152 2.26842 12.69 1.6433C12.0649 1.01818 11.2171 0.666992 10.333 0.666992Z" fill="white"/>
</svg>
