<svg width="10" height="8" viewBox="0 0 10 8" fill="none" xmlns="http://www.w3.org/2000/svg">
    <path d="M3.65241 7.41662C3.5413 7.41662 3.43019 7.39347 3.31908 7.34717C3.20797 7.30088 3.10612 7.23143 3.01353 7.13884L0.666302 4.79162C0.490376 4.61569 0.404728 4.40041 0.409358 4.14579C0.413987 3.89116 0.504265 3.67588 0.680191 3.49995C0.856117 3.32403 1.07371 3.23606 1.33297 3.23606C1.59223 3.23606 1.80982 3.32403 1.98575 3.49995L3.68019 5.1944L8.02742 0.847175C8.20334 0.671249 8.41399 0.580971 8.65936 0.576341C8.90473 0.571712 9.12001 0.661989 9.30519 0.847175C9.48112 1.0231 9.56908 1.23606 9.56908 1.48606C9.56908 1.73606 9.48112 1.94903 9.30519 2.12495L4.2913 7.13884C4.19871 7.23143 4.09686 7.30088 3.98575 7.34717C3.87464 7.39347 3.76353 7.41662 3.65241 7.41662Z" fill="white"/>
</svg>
