<svg width="16" height="16" viewBox="0 0 16 16" fill="none" xmlns="http://www.w3.org/2000/svg">
<mask id="mask0_900_25606" style="mask-type:alpha" maskUnits="userSpaceOnUse" x="0" y="0" width="16" height="16">
<rect width="16" height="16" fill="#D9D9D9"/>
</mask>
<g mask="url(#mask0_900_25606)">
<path d="M4.04948 13.8492C3.80522 13.8492 3.59429 13.7578 3.41669 13.5748C3.23909 13.3914 3.15029 13.1775 3.15029 12.9332C3.15029 12.6778 3.23909 12.461 3.41669 12.2828C3.59429 12.1052 3.80522 12.0164 4.04948 12.0164H11.9999C12.2442 12.0164 12.458 12.1052 12.6415 12.2828C12.825 12.461 12.9167 12.6778 12.9167 12.9332C12.9167 13.1775 12.825 13.3914 12.6415 13.5748C12.458 13.7578 12.2442 13.8492 11.9999 13.8492H4.04948ZM6.43348 10.3332C6.31082 10.3332 6.19402 10.3108 6.08309 10.266C5.97215 10.2218 5.87215 10.1551 5.78309 10.066L2.93349 7.24922C2.75535 7.07162 2.66922 6.85508 2.67509 6.59962C2.68042 6.34415 2.77215 6.12762 2.95029 5.95002C3.11669 5.77189 3.33322 5.68282 3.59989 5.68282C3.86655 5.68282 4.08869 5.77189 4.26629 5.95002L6.41668 8.09962L11.7831 2.71642C11.9607 2.53829 12.1802 2.44922 12.4415 2.44922C12.7028 2.44922 12.9223 2.53829 13.0999 2.71642C13.2775 2.88282 13.3663 3.10229 13.3663 3.37482C13.3663 3.64682 13.2775 3.87162 13.0999 4.04922L7.08309 10.066C6.98335 10.1551 6.87775 10.2218 6.76628 10.266C6.65535 10.3108 6.54442 10.3332 6.43348 10.3332Z" fill="#696D80"/>
</g>
</svg>