<svg width="14" height="14" viewBox="0 0 14 14" fill="none" xmlns="http://www.w3.org/2000/svg">
<path d="M6.99967 12.333C9.93301 12.333 12.333 9.93301 12.333 6.99967C12.333 4.06634 9.93301 1.66634 6.99967 1.66634C4.06634 1.66634 1.66634 4.06634 1.66634 6.99967C1.66634 9.93301 4.06634 12.333 6.99967 12.333ZM6.99967 0.333008C10.6663 0.333008 13.6663 3.33301 13.6663 6.99967C13.6663 10.6663 10.6663 13.6663 6.99967 13.6663C3.33301 13.6663 0.333008 10.6663 0.333008 6.99967C0.333008 3.33301 3.33301 0.333008 6.99967 0.333008ZM10.333 8.26634L9.86634 9.13301L6.33301 7.19967V3.66634H7.33301V6.59967L10.333 8.26634Z" fill="#0068A0"/>
</svg>
