<svg width="16" height="16" viewBox="0 0 16 16" fill="none" xmlns="http://www.w3.org/2000/svg">
<path d="M8.00016 13.333C10.9335 13.333 13.3335 10.933 13.3335 7.99967C13.3335 5.06634 10.9335 2.66634 8.00016 2.66634C5.06683 2.66634 2.66683 5.06634 2.66683 7.99967C2.66683 10.933 5.06683 13.333 8.00016 13.333ZM8.00016 1.33301C11.6668 1.33301 14.6668 4.33301 14.6668 7.99967C14.6668 11.6663 11.6668 14.6663 8.00016 14.6663C4.3335 14.6663 1.3335 11.6663 1.3335 7.99967C1.3335 4.33301 4.3335 1.33301 8.00016 1.33301ZM11.3335 9.26634L10.8668 10.133L7.3335 8.19967V4.66634H8.3335V7.59967L11.3335 9.26634Z" fill="white"/>
</svg>
