<svg width="41" height="40" viewBox="0 0 41 40" fill="none" xmlns="http://www.w3.org/2000/svg">
    <path d="M35.5 19.1667C35.5057 21.3665 34.9918 23.5365 34 25.5C32.8241 27.853 31.0162 29.832 28.7791 31.2155C26.5419 32.599 23.9637 33.3324 21.3333 33.3334C19.1336 33.3391 16.9635 32.8252 15 31.8334L5.5 35L8.66667 25.5C7.67489 23.5365 7.16093 21.3665 7.16667 19.1667C7.16768 16.5363 7.90102 13.9581 9.28453 11.721C10.668 9.4838 12.6471 7.67599 15 6.50005C16.9635 5.50827 19.1336 4.99431 21.3333 5.00005H22.1667C25.6406 5.1917 28.9217 6.65798 31.3819 9.11815C33.8421 11.5783 35.3083 14.8595 35.5 18.3334V19.1667Z" stroke="#CED0D9" stroke-width="4" stroke-linecap="round" stroke-linejoin="round"/>
</svg>
