<svg width="16" height="15" viewBox="0 0 16 15" fill="none" xmlns="http://www.w3.org/2000/svg">
<path d="M11.5439 14.7617C12.1455 14.7617 12.501 14.3516 12.501 13.6885V12.0684H12.7471C14.6885 12.0684 15.9395 10.8516 15.9395 8.80078V3.44824C15.9395 1.39746 14.7432 0.173828 12.6719 0.173828H4.01074C1.94629 0.173828 0.743164 1.39746 0.743164 3.44824V8.80078C0.743164 10.8447 1.94629 12.0684 4.01074 12.0684H7.96191L10.2861 14.1191C10.7988 14.5703 11.1201 14.7617 11.5439 14.7617ZM11.168 13.0664L9.01465 10.9404C8.7002 10.626 8.49512 10.5439 8.05762 10.5439H4.0791C2.8623 10.5439 2.26758 9.92871 2.26758 8.73242V3.5166C2.26758 2.31348 2.8623 1.69824 4.0791 1.69824H12.6035C13.8271 1.69824 14.415 2.31348 14.415 3.5166V8.73242C14.415 9.92871 13.8271 10.5439 12.6035 10.5439H11.7627C11.3594 10.5439 11.168 10.708 11.168 11.1387V13.0664Z" fill="#2C324C"/>
</svg>
