<svg width="25" height="25" viewBox="0 0 25 25" fill="none" xmlns="http://www.w3.org/2000/svg">
<mask id="mask0_1242_60371" style="mask-type:alpha" maskUnits="userSpaceOnUse" x="0" y="0" width="25" height="25">
<rect x="0.5" y="0.5" width="24" height="24" fill="#D9D9D9"/>
</mask>
<g mask="url(#mask0_1242_60371)">
<path d="M8.5 20.501C7.95 20.501 7.47933 20.3053 7.088 19.914C6.696 19.522 6.5 19.051 6.5 18.501V15.501H9.5V13.251C8.91667 13.2176 8.36267 13.0883 7.838 12.863C7.31267 12.6383 6.83333 12.301 6.4 11.851V10.751H5.25L2 7.50098C2.6 6.73431 3.34167 6.19264 4.225 5.87598C5.10833 5.55931 6 5.40098 6.9 5.40098C7.35 5.40098 7.78767 5.43431 8.213 5.50098C8.63767 5.56764 9.06667 5.69264 9.5 5.87598V4.50098H21.5V17.501C21.5 18.3343 21.2083 19.0426 20.625 19.626C20.0417 20.2093 19.3333 20.501 18.5 20.501H8.5ZM11.5 15.501H17.5V17.501C17.5 17.7843 17.596 18.0216 17.788 18.213C17.9793 18.405 18.2167 18.501 18.5 18.501C18.7833 18.501 19.0207 18.405 19.212 18.213C19.404 18.0216 19.5 17.7843 19.5 17.501V6.50098H11.5V7.10098L17.5 13.101V14.501H16.1L13.25 11.651L13.05 11.851C12.8167 12.0843 12.5707 12.2926 12.312 12.476C12.054 12.6593 11.7833 12.801 11.5 12.901V15.501ZM6.1 8.75098H8.4V10.901C8.6 11.0343 8.80833 11.126 9.025 11.176C9.24167 11.226 9.46667 11.251 9.7 11.251C10.0833 11.251 10.4293 11.1926 10.738 11.076C11.046 10.9593 11.35 10.751 11.65 10.451L11.85 10.251L10.45 8.85098C9.96667 8.36764 9.425 8.00498 8.825 7.76298C8.225 7.52164 7.58333 7.40098 6.9 7.40098C6.56667 7.40098 6.25 7.42598 5.95 7.47598C5.65 7.52598 5.35 7.60098 5.05 7.70098L6.1 8.75098ZM15.5 17.501H8.5V18.501H15.65C15.6 18.351 15.5627 18.1926 15.538 18.026C15.5127 17.8593 15.5 17.6843 15.5 17.501Z" fill="#696D80"/>
</g>
</svg>
