<svg width="32" height="32" viewBox="0 0 32 32" fill="none" xmlns="http://www.w3.org/2000/svg">
<mask id="mask0_1178_49513" style="mask-type:alpha" maskUnits="userSpaceOnUse" x="0" y="0" width="32" height="32">
<rect width="32" height="32" fill="#D9D9D9"/>
</mask>
<g mask="url(#mask0_1178_49513)">
<path d="M8 29.3316C6.88889 29.3316 5.94444 28.9428 5.16667 28.165C4.38889 27.3872 4 26.4428 4 25.3316V22.665C4 22.2872 4.128 21.9708 4.384 21.7156C4.63911 21.4596 4.95556 21.3316 5.33333 21.3316H8V3.63164C8 3.43164 8.08889 3.30942 8.26667 3.26497C8.44444 3.22053 8.62222 3.2872 8.8 3.46497L10 4.66497L11.5333 3.13164C11.6667 2.99831 11.8222 2.93164 12 2.93164C12.1778 2.93164 12.3333 2.99831 12.4667 3.13164L14 4.66497L15.5333 3.13164C15.6667 2.99831 15.8222 2.93164 16 2.93164C16.1778 2.93164 16.3333 2.99831 16.4667 3.13164L18 4.66497L19.5333 3.13164C19.6667 2.99831 19.8222 2.93164 20 2.93164C20.1778 2.93164 20.3333 2.99831 20.4667 3.13164L22 4.66497L23.5333 3.13164C23.6667 2.99831 23.8222 2.93164 24 2.93164C24.1778 2.93164 24.3333 2.99831 24.4667 3.13164L26 4.66497L27.2 3.46497C27.3778 3.2872 27.5556 3.21475 27.7333 3.24764C27.9111 3.28142 28 3.40942 28 3.63164V25.3316C28 26.4428 27.6111 27.3872 26.8333 28.165C26.0556 28.9428 25.1111 29.3316 24 29.3316H8ZM24 26.665C24.3778 26.665 24.6942 26.537 24.9493 26.281C25.2053 26.0259 25.3333 25.7094 25.3333 25.3316V6.66497H10.6667V21.3316H21.3333C21.7111 21.3316 22.0276 21.4596 22.2827 21.7156C22.5387 21.9708 22.6667 22.2872 22.6667 22.665V25.3316C22.6667 25.7094 22.7947 26.0259 23.0507 26.281C23.3058 26.537 23.6222 26.665 24 26.665ZM13.3 11.9983C12.9222 11.9983 12.6111 11.8703 12.3667 11.6143C12.1222 11.3592 12 11.0428 12 10.665C12 10.2872 12.128 9.97031 12.384 9.71431C12.6391 9.4592 12.9556 9.33164 13.3333 9.33164H18.6667C19.0444 9.33164 19.3613 9.4592 19.6173 9.71431C19.8724 9.97031 20 10.2872 20 10.665C20 11.0428 19.8724 11.3592 19.6173 11.6143C19.3613 11.8703 19.0444 11.9983 18.6667 11.9983H13.3ZM13.3 15.9983C12.9222 15.9983 12.6111 15.8703 12.3667 15.6143C12.1222 15.3592 12 15.0428 12 14.665C12 14.2872 12.128 13.9703 12.384 13.7143C12.6391 13.4592 12.9556 13.3316 13.3333 13.3316H18.6667C19.0444 13.3316 19.3613 13.4592 19.6173 13.7143C19.8724 13.9703 20 14.2872 20 14.665C20 15.0428 19.8724 15.3592 19.6173 15.6143C19.3613 15.8703 19.0444 15.9983 18.6667 15.9983H13.3ZM22.6667 11.9983C22.2889 11.9983 21.9724 11.8703 21.7173 11.6143C21.4613 11.3592 21.3333 11.0428 21.3333 10.665C21.3333 10.2872 21.4613 9.97031 21.7173 9.71431C21.9724 9.4592 22.2889 9.33164 22.6667 9.33164C23.0444 9.33164 23.3609 9.4592 23.616 9.71431C23.872 9.97031 24 10.2872 24 10.665C24 11.0428 23.872 11.3592 23.616 11.6143C23.3609 11.8703 23.0444 11.9983 22.6667 11.9983ZM22.6667 15.9983C22.2889 15.9983 21.9724 15.8703 21.7173 15.6143C21.4613 15.3592 21.3333 15.0428 21.3333 14.665C21.3333 14.2872 21.4613 13.9703 21.7173 13.7143C21.9724 13.4592 22.2889 13.3316 22.6667 13.3316C23.0444 13.3316 23.3609 13.4592 23.616 13.7143C23.872 13.9703 24 14.2872 24 14.665C24 15.0428 23.872 15.3592 23.616 15.6143C23.3609 15.8703 23.0444 15.9983 22.6667 15.9983ZM8 26.665H20V23.9983H6.66667V25.3316C6.66667 25.7094 6.79422 26.0259 7.04933 26.281C7.30533 26.537 7.62222 26.665 8 26.665Z" fill="#696D80"/>
</g>
</svg>
