<svg width="20" height="21" viewBox="0 0 20 21" fill="none" xmlns="http://www.w3.org/2000/svg">
<mask id="mask0_1168_47210" style="mask-type:alpha" maskUnits="userSpaceOnUse" x="0" y="0" width="20" height="21">
<rect y="0.5" width="20" height="20" fill="#D9D9D9"/>
</mask>
<g mask="url(#mask0_1168_47210)">
<path d="M5.49558 12C5.08186 12 4.72917 11.8527 4.4375 11.5581C4.14583 11.2635 4 10.9093 4 10.4956C4 10.0819 4.14731 9.72917 4.44192 9.4375C4.73654 9.14583 5.09071 9 5.50442 9C5.91814 9 6.27083 9.14731 6.5625 9.44192C6.85417 9.73654 7 10.0907 7 10.5044C7 10.9181 6.85269 11.2708 6.55808 11.5625C6.26346 11.8542 5.90929 12 5.49558 12ZM9.99558 12C9.58186 12 9.22917 11.8527 8.9375 11.5581C8.64583 11.2635 8.5 10.9093 8.5 10.4956C8.5 10.0819 8.64731 9.72917 8.94192 9.4375C9.23654 9.14583 9.59071 9 10.0044 9C10.4181 9 10.7708 9.14731 11.0625 9.44192C11.3542 9.73654 11.5 10.0907 11.5 10.5044C11.5 10.9181 11.3527 11.2708 11.0581 11.5625C10.7635 11.8542 10.4093 12 9.99558 12ZM14.4956 12C14.0819 12 13.7292 11.8527 13.4375 11.5581C13.1458 11.2635 13 10.9093 13 10.4956C13 10.0819 13.1473 9.72917 13.4419 9.4375C13.7365 9.14583 14.0907 9 14.5044 9C14.9181 9 15.2708 9.14731 15.5625 9.44192C15.8542 9.73654 16 10.0907 16 10.5044C16 10.9181 15.8527 11.2708 15.5581 11.5625C15.2635 11.8542 14.9093 12 14.4956 12Z" fill="#696D80"/>
</g>
</svg>
