<svg width="14" height="13" viewBox="0 0 14 13" fill="none" xmlns="http://www.w3.org/2000/svg">
<path d="M5.63399 12.5016L8.35079 9.76796H12.3004C12.678 9.76796 13.0001 9.90129 13.2668 10.168C13.5335 10.4346 13.6668 10.757 13.6668 11.1352C13.6668 11.5128 13.5335 11.8349 13.2668 12.1016C13.0001 12.3682 12.678 12.5016 12.3004 12.5016H5.63399ZM1.73398 11.1016H2.71718L8.31718 5.50156L7.33398 4.51836L1.73398 10.1184V11.1016ZM11.2836 4.53516L8.30038 1.55116L9.11719 0.73516C9.39505 0.457293 9.72545 0.318359 10.1084 0.318359C10.4919 0.318359 10.8225 0.457293 11.1004 0.73516L12.1004 1.73516C12.3671 2.00183 12.5004 2.33223 12.5004 2.72636C12.5004 3.12103 12.3671 3.45169 12.1004 3.71836L11.2836 4.53516ZM1.03398 12.5016C0.845184 12.5016 0.681184 12.4322 0.541984 12.2936C0.403318 12.1544 0.333984 11.9904 0.333984 11.8016V9.80156C0.333984 9.71249 0.350518 9.62636 0.383584 9.54316C0.417184 9.45996 0.467318 9.38503 0.533984 9.31836L7.31718 2.53516L10.3004 5.51836L3.51718 12.3016C3.45052 12.3682 3.37558 12.4184 3.29238 12.452C3.20865 12.485 3.12252 12.5016 3.03398 12.5016H1.03398Z" fill="#696D80"/>
</svg>
