<svg width="13" height="14" viewBox="0 0 13 14" fill="none" xmlns="http://www.w3.org/2000/svg">
    <path d="M6.5 12.625C9.6066 12.625 12.125 10.1066 12.125 7C12.125 3.8934 9.6066 1.375 6.5 1.375C3.3934 1.375 0.875 3.8934 0.875 7C0.875 10.1066 3.3934 12.625 6.5 12.625Z" stroke="#707070" stroke-width="1.5" stroke-miterlimit="10"/>
    <path d="M11.5485 9.48273L8.36769 7.52638C8.31193 7.49209 8.24961 7.46985 8.18474 7.46111L6.84771 7.28087C6.74731 7.26734 6.64523 7.2867 6.55675 7.33605C6.46828 7.38539 6.39817 7.46208 6.35693 7.55461L5.55427 9.35568C5.51694 9.43944 5.505 9.53231 5.51992 9.62279C5.53485 9.71326 5.57598 9.79738 5.63823 9.86471L6.73979 11.0562C6.78973 11.1102 6.82625 11.1752 6.84641 11.246C6.86657 11.3167 6.86979 11.3912 6.85582 11.4634L6.63144 12.6234C7.76588 12.5603 10.3375 11.844 11.5485 9.48273Z" fill="#707070" stroke="#707070" stroke-linecap="round" stroke-linejoin="round"/>
    <path d="M7.9335 1.55948L8.48039 2.53908C8.53209 2.63168 8.55086 2.73908 8.53363 2.84373C8.5164 2.94839 8.46419 3.0441 8.38553 3.11524L6.80872 4.54127C6.78195 4.56547 6.75249 4.5865 6.7209 4.60394L6.00361 5.00006C5.93423 5.03837 5.85627 5.05847 5.77701 5.05847H4.5263C4.43407 5.05847 4.34389 5.08568 4.26705 5.13669C4.1902 5.1877 4.13012 5.26025 4.09431 5.34525L3.60639 6.50355" fill="#707070"/>
    <path d="M2.80621 2.75814L2.28214 3.99738C2.23541 4.10788 2.23282 4.23208 2.27492 4.34443L2.94821 6.14139C2.97578 6.21498 3.02141 6.28045 3.0809 6.33179C3.14039 6.38313 3.21183 6.4187 3.28866 6.43521L4.54432 6.70509C4.614 6.72006 4.67934 6.75073 4.73538 6.79475C4.79142 6.83877 4.83669 6.89499 4.86774 6.95914L5.09073 7.4198C5.1291 7.49908 5.18903 7.56594 5.26366 7.61272C5.33828 7.6595 5.42457 7.68432 5.51265 7.68432H6.29971" fill="#707070"/>
    <path d="M7.9335 1.55948L8.48039 2.53908C8.53209 2.63168 8.55086 2.73908 8.53363 2.84373C8.5164 2.94839 8.46419 3.0441 8.38553 3.11524L6.80872 4.54127C6.78195 4.56547 6.75249 4.5865 6.7209 4.60394L6.00361 5.00006C5.93423 5.03837 5.85627 5.05847 5.77701 5.05847H4.5263C4.43407 5.05847 4.34389 5.08568 4.26705 5.13669C4.1902 5.1877 4.13012 5.26025 4.09431 5.34525L3.60639 6.50355L3.28866 6.43521C3.21183 6.4187 3.14039 6.38313 3.0809 6.33179C3.02141 6.28045 2.97578 6.21498 2.94821 6.14139L2.27492 4.34443C2.23282 4.23208 2.23541 4.10788 2.28214 3.99738L2.80621 2.75814C3.4305 2.10758 5.32996 0.957067 7.9335 1.55948Z" fill="#707070"/>
    <path d="M3.28866 6.43521C3.21183 6.4187 3.14039 6.38313 3.0809 6.33179C3.02141 6.28045 2.97578 6.21498 2.94821 6.14139L2.27492 4.34443C2.23282 4.23208 2.23541 4.10788 2.28214 3.99738L2.80621 2.75814C3.4305 2.10758 5.32996 0.957067 7.9335 1.55948L8.48039 2.53908C8.53209 2.63168 8.55086 2.73908 8.53363 2.84373C8.5164 2.94839 8.46419 3.0441 8.38553 3.11524L6.80872 4.54127C6.78195 4.56547 6.75249 4.5865 6.7209 4.60394L6.00361 5.00006C5.93423 5.03837 5.85627 5.05847 5.77701 5.05847H4.5263C4.43407 5.05847 4.34389 5.08568 4.26705 5.13669C4.1902 5.1877 4.13012 5.26025 4.09431 5.34525L3.60639 6.50355L3.28866 6.43521ZM3.28866 6.43521L4.54432 6.70509C4.614 6.72006 4.67934 6.75073 4.73538 6.79475C4.79142 6.83877 4.83669 6.89499 4.86774 6.95914L5.09073 7.4198C5.1291 7.49908 5.18903 7.56594 5.26366 7.61272C5.33828 7.6595 5.42457 7.68432 5.51265 7.68432H6.29971" stroke="#707070" stroke-linecap="round" stroke-linejoin="round"/>
</svg>
