<svg width="16" height="16" viewBox="0 0 16 16" fill="none" xmlns="http://www.w3.org/2000/svg">
<mask id="mask0_2670_2769" style="mask-type:alpha" maskUnits="userSpaceOnUse" x="0" y="0" width="16" height="16">
<rect width="16" height="16" fill="#D9D9D9"/>
</mask>
<g mask="url(#mask0_2670_2769)">
<path d="M7.99967 14.6673C7.08856 14.6673 6.22745 14.4922 5.41634 14.142C4.60523 13.7922 3.89701 13.3144 3.29167 12.7087C2.6859 12.1033 2.20812 11.3951 1.85834 10.584C1.50812 9.77287 1.33301 8.91176 1.33301 8.00065C1.33301 7.07843 1.50812 6.21465 1.85834 5.40932C2.20812 4.60354 2.6859 3.89798 3.29167 3.29265C3.89701 2.68687 4.60523 2.20887 5.41634 1.85865C6.22745 1.50887 7.08856 1.33398 7.99967 1.33398C8.9219 1.33398 9.78567 1.50887 10.591 1.85865C11.3968 2.20887 12.1023 2.68687 12.7077 3.29265C13.3135 3.89798 13.7912 4.60354 14.141 5.40932C14.4912 6.21465 14.6663 7.07843 14.6663 8.00065C14.6663 8.91176 14.4912 9.77287 14.141 10.584C13.7912 11.3951 13.3135 12.1033 12.7077 12.7087C12.1023 13.3144 11.3968 13.7922 10.591 14.142C9.78567 14.4922 8.9219 14.6673 7.99967 14.6673ZM7.99967 13.3007C8.28856 12.9007 8.53856 12.484 8.74967 12.0507C8.96078 11.6173 9.13301 11.1562 9.26634 10.6673H6.73301C6.86634 11.1562 7.03856 11.6173 7.24967 12.0507C7.46079 12.484 7.71079 12.9007 7.99967 13.3007ZM6.26634 13.034C6.06634 12.6673 5.89145 12.2867 5.74167 11.892C5.59145 11.4978 5.46634 11.0895 5.36634 10.6673H3.39967C3.7219 11.2229 4.12456 11.7062 4.60767 12.1173C5.09123 12.5284 5.64412 12.834 6.26634 13.034ZM9.73301 13.034C10.3552 12.834 10.9079 12.5284 11.391 12.1173C11.8746 11.7062 12.2775 11.2229 12.5997 10.6673H10.633C10.533 11.0895 10.4081 11.4978 10.2583 11.892C10.1081 12.2867 9.93301 12.6673 9.73301 13.034ZM2.83301 9.33398H5.09967C5.06634 9.11176 5.04123 8.89221 5.02434 8.67532C5.0079 8.45887 4.99967 8.23398 4.99967 8.00065C4.99967 7.76732 5.0079 7.54243 5.02434 7.32598C5.04123 7.1091 5.06634 6.88954 5.09967 6.66732H2.83301C2.77745 6.88954 2.73567 7.1091 2.70767 7.32598C2.68012 7.54243 2.66634 7.76732 2.66634 8.00065C2.66634 8.23398 2.68012 8.45887 2.70767 8.67532C2.73567 8.89221 2.77745 9.11176 2.83301 9.33398ZM6.43301 9.33398H9.56634C9.59967 9.11176 9.62479 8.89221 9.64167 8.67532C9.65812 8.45887 9.66634 8.23398 9.66634 8.00065C9.66634 7.76732 9.65812 7.54243 9.64167 7.32598C9.62479 7.1091 9.59967 6.88954 9.56634 6.66732H6.43301C6.39967 6.88954 6.37479 7.1091 6.35834 7.32598C6.34145 7.54243 6.33301 7.76732 6.33301 8.00065C6.33301 8.23398 6.34145 8.45887 6.35834 8.67532C6.37479 8.89221 6.39967 9.11176 6.43301 9.33398ZM10.8997 9.33398H13.1663C13.2219 9.11176 13.2637 8.89221 13.2917 8.67532C13.3192 8.45887 13.333 8.23398 13.333 8.00065C13.333 7.76732 13.3192 7.54243 13.2917 7.32598C13.2637 7.1091 13.2219 6.88954 13.1663 6.66732H10.8997C10.933 6.88954 10.9579 7.1091 10.9743 7.32598C10.9912 7.54243 10.9997 7.76732 10.9997 8.00065C10.9997 8.23398 10.9912 8.45887 10.9743 8.67532C10.9579 8.89221 10.933 9.11176 10.8997 9.33398ZM10.633 5.33398H12.5997C12.2775 4.77843 11.8746 4.2951 11.391 3.88398C10.9079 3.47287 10.3552 3.16732 9.73301 2.96732C9.93301 3.33398 10.1081 3.71443 10.2583 4.10865C10.4081 4.50332 10.533 4.91176 10.633 5.33398ZM6.73301 5.33398H9.26634C9.13301 4.8451 8.96078 4.38398 8.74967 3.95065C8.53856 3.51732 8.28856 3.10065 7.99967 2.70065C7.71079 3.10065 7.46079 3.51732 7.24967 3.95065C7.03856 4.38398 6.86634 4.8451 6.73301 5.33398ZM3.39967 5.33398H5.36634C5.46634 4.91176 5.59145 4.50332 5.74167 4.10865C5.89145 3.71443 6.06634 3.33398 6.26634 2.96732C5.64412 3.16732 5.09123 3.47287 4.60767 3.88398C4.12456 4.2951 3.7219 4.77843 3.39967 5.33398Z" fill="#141B38"/>
</g>
</svg>
