<svg width="8" height="8" viewBox="0 0 8 8" fill="none" xmlns="http://www.w3.org/2000/svg">
    <path d="M6.39377 2.518L1.14864 7.763C1.02406 7.88767 0.869728 7.95 0.685645 7.95C0.501561 7.95 0.347228 7.88767 0.222645 7.763C0.0979779 7.63842 0.0356445 7.48409 0.0356445 7.3C0.0356445 7.11592 0.0979779 6.96159 0.222645 6.837L5.46764 1.59188H3.05627C2.87219 1.59188 2.71577 1.52746 2.58702 1.39863C2.45819 1.26979 2.39377 1.11338 2.39377 0.929376C2.39377 0.745293 2.45819 0.588835 2.58702 0.460001C2.71577 0.331251 2.87219 0.266876 3.05627 0.266876H7.05627C7.24035 0.266876 7.39681 0.331251 7.52564 0.460001C7.65439 0.588835 7.71877 0.745293 7.71877 0.929376V4.92938C7.71877 5.11338 7.65439 5.26979 7.52564 5.39863C7.39681 5.52746 7.24035 5.59188 7.05627 5.59188C6.87219 5.59188 6.71577 5.52746 6.58702 5.39863C6.45819 5.26979 6.39377 5.11338 6.39377 4.92938V2.518Z" fill="#0068A0"/>
</svg>
