<svg width="16" height="11" viewBox="0 0 16 11" fill="none" xmlns="http://www.w3.org/2000/svg">
    <path d="M8.01693 3.5C7.48649 3.5 6.97779 3.71071 6.60271 4.08579C6.22764 4.46086 6.01693 4.96957 6.01693 5.5C6.01693 6.03043 6.22764 6.53914 6.60271 6.91421C6.97779 7.28929 7.48649 7.5 8.01693 7.5C8.54736 7.5 9.05607 7.28929 9.43114 6.91421C9.80621 6.53914 10.0169 6.03043 10.0169 5.5C10.0169 4.96957 9.80621 4.46086 9.43114 4.08579C9.05607 3.71071 8.54736 3.5 8.01693 3.5ZM8.01693 8.83333C7.13287 8.83333 6.28503 8.48214 5.6599 7.85702C5.03478 7.2319 4.68359 6.38406 4.68359 5.5C4.68359 4.61595 5.03478 3.7681 5.6599 3.14298C6.28503 2.51786 7.13287 2.16667 8.01693 2.16667C8.90098 2.16667 9.74883 2.51786 10.3739 3.14298C10.9991 3.7681 11.3503 4.61595 11.3503 5.5C11.3503 6.38406 10.9991 7.2319 10.3739 7.85702C9.74883 8.48214 8.90098 8.83333 8.01693 8.83333ZM8.01693 0.5C4.68359 0.5 1.83693 2.57333 0.683594 5.5C1.83693 8.42667 4.68359 10.5 8.01693 10.5C11.3503 10.5 14.1969 8.42667 15.3503 5.5C14.1969 2.57333 11.3503 0.5 8.01693 0.5Z" fill="#141B38"/>
</svg>
