<svg width="14" height="14" viewBox="0 0 14 14" fill="none" xmlns="http://www.w3.org/2000/svg">
<path d="M6.99989 9.33301C6.38105 9.33301 5.78756 9.08718 5.34998 8.64959C4.91239 8.21201 4.66656 7.61851 4.66656 6.99968C4.66656 6.38084 4.91239 5.78734 5.34998 5.34976C5.78756 4.91218 6.38105 4.66634 6.99989 4.66634C7.61873 4.66634 8.21222 4.91218 8.64981 5.34976C9.08739 5.78734 9.33323 6.38084 9.33323 6.99968C9.33323 7.61851 9.08739 8.21201 8.64981 8.64959C8.21222 9.08718 7.61873 9.33301 6.99989 9.33301ZM11.9532 7.64634C11.9799 7.43301 11.9999 7.21968 11.9999 6.99968C11.9999 6.77968 11.9799 6.55968 11.9532 6.33301L13.3599 5.24634C13.4866 5.14634 13.5199 4.96634 13.4399 4.81968L12.1066 2.51301C12.0266 2.36634 11.8466 2.30634 11.6999 2.36634L10.0399 3.03301C9.69323 2.77301 9.33323 2.54634 8.91323 2.37968L8.66656 0.613009C8.65302 0.534487 8.61212 0.463294 8.5511 0.412043C8.49009 0.360793 8.41291 0.332795 8.33323 0.333009H5.66656C5.49989 0.333009 5.35989 0.453009 5.33323 0.613009L5.08656 2.37968C4.66656 2.54634 4.30656 2.77301 3.95989 3.03301L2.29989 2.36634C2.15323 2.30634 1.97323 2.36634 1.89323 2.51301L0.559893 4.81968C0.473226 4.96634 0.513226 5.14634 0.639893 5.24634L2.04656 6.33301C2.01989 6.55968 1.99989 6.77968 1.99989 6.99968C1.99989 7.21968 2.01989 7.43301 2.04656 7.64634L0.639893 8.75301C0.513226 8.85301 0.473226 9.03301 0.559893 9.17968L1.89323 11.4863C1.97323 11.633 2.15323 11.6863 2.29989 11.633L3.95989 10.9597C4.30656 11.2263 4.66656 11.453 5.08656 11.6197L5.33323 13.3863C5.35989 13.5463 5.49989 13.6663 5.66656 13.6663H8.33323C8.49989 13.6663 8.63989 13.5463 8.66656 13.3863L8.91323 11.6197C9.33323 11.4463 9.69323 11.2263 10.0399 10.9597L11.6999 11.633C11.8466 11.6863 12.0266 11.633 12.1066 11.4863L13.4399 9.17968C13.5199 9.03301 13.4866 8.85301 13.3599 8.75301L11.9532 7.64634Z" fill="#141B38"/>
</svg>
