<svg width="16" height="16" viewBox="0 0 16 16" fill="none" xmlns="http://www.w3.org/2000/svg">
<mask id="mask0_1132_46122" style="mask-type:alpha" maskUnits="userSpaceOnUse" x="0" y="0" width="16" height="16">
<rect width="16" height="16" fill="#D9D9D9"/>
</mask>
<g mask="url(#mask0_1132_46122)">
<path d="M7.96871 12.0163C8.2119 12.0163 8.41683 11.9324 8.5835 11.7645C8.75016 11.5965 8.8335 11.391 8.8335 11.1478C8.8335 10.9046 8.74954 10.6997 8.58161 10.533C8.4137 10.3663 8.20815 10.283 7.96495 10.283C7.72176 10.283 7.51683 10.367 7.35016 10.5349C7.1835 10.7028 7.10016 10.9084 7.10016 11.1516C7.10016 11.3947 7.18412 11.5997 7.35205 11.7663C7.51996 11.933 7.72551 12.0163 7.96871 12.0163ZM8.05016 5.16634C8.3663 5.16634 8.62033 5.24967 8.81226 5.41634C9.0042 5.58301 9.10016 5.79531 9.10016 6.05324C9.10016 6.22864 9.03905 6.41634 8.91683 6.61634C8.79461 6.81634 8.62239 7.01079 8.40016 7.19967C8.04461 7.51079 7.78627 7.79597 7.62516 8.05522C7.46405 8.31449 7.3835 8.57375 7.3835 8.83301C7.3835 8.998 7.43905 9.13646 7.55016 9.24841C7.66127 9.36036 7.80294 9.41634 7.97516 9.41634C8.14739 9.41634 8.29739 9.36079 8.42516 9.24968C8.55294 9.13856 8.6335 8.98856 8.66683 8.79967C8.70016 8.6219 8.77516 8.45245 8.89183 8.29134C9.0085 8.13023 9.20016 7.9219 9.46683 7.66634C9.82239 7.33301 10.0641 7.03647 10.1918 6.77672C10.3196 6.51699 10.3835 6.2302 10.3835 5.91634C10.3835 5.33856 10.1724 4.8719 9.75016 4.51634C9.32794 4.16079 8.77465 3.98301 8.0903 3.98301C7.6191 3.98301 7.2085 4.07467 6.8585 4.25801C6.5085 4.44134 6.20572 4.71634 5.95016 5.08301C5.86127 5.20523 5.83627 5.33856 5.87516 5.48301C5.91405 5.62745 5.99461 5.74967 6.11683 5.84967C6.26127 5.96079 6.42591 5.99801 6.61073 5.96134C6.79555 5.92467 6.94759 5.82079 7.06683 5.64967C7.18905 5.49412 7.33121 5.37467 7.4933 5.29134C7.65539 5.20801 7.84101 5.16634 8.05016 5.16634ZM8.00016 14.6663C7.08905 14.6663 6.22794 14.4913 5.41683 14.1413C4.60572 13.7913 3.89739 13.3163 3.29183 12.7163C2.68627 12.1163 2.2085 11.4108 1.8585 10.5997C1.5085 9.78856 1.3335 8.9219 1.3335 7.99967C1.3335 7.07745 1.5085 6.21079 1.8585 5.39967C2.2085 4.58856 2.68627 3.88301 3.29183 3.28301C3.89739 2.68301 4.60572 2.20801 5.41683 1.85801C6.22794 1.50801 7.08905 1.33301 8.00016 1.33301C8.9335 1.33301 9.80572 1.50801 10.6168 1.85801C11.4279 2.20801 12.1335 2.68301 12.7335 3.28301C13.3335 3.88301 13.8057 4.58856 14.1502 5.39967C14.4946 6.21079 14.6668 7.07745 14.6668 7.99967C14.6668 8.9219 14.4946 9.78856 14.1502 10.5997C13.8057 11.4108 13.3335 12.1163 12.7335 12.7163C12.1335 13.3163 11.4279 13.7913 10.6168 14.1413C9.80572 14.4913 8.9335 14.6663 8.00016 14.6663ZM8.00035 13.2663C9.478 13.2663 10.7252 12.7538 11.7418 11.7286C12.7585 10.7035 13.2668 9.46185 13.2668 8.00364C13.2668 6.54544 12.7585 5.30245 11.7418 4.27467C10.7252 3.2469 9.478 2.73301 8.00035 2.73301C6.55578 2.73301 5.31683 3.24557 4.2835 4.27071C3.25016 5.29583 2.7335 6.5375 2.7335 7.99571C2.7335 9.45391 3.25016 10.6969 4.2835 11.7247C5.31683 12.7525 6.55578 13.2663 8.00035 13.2663Z" fill="#696D80"/>
</g>
</svg>
