<svg width="15" height="15" viewBox="0 0 15 15" fill="none" xmlns="http://www.w3.org/2000/svg">
<path d="M6.83325 5.49967H8.16659V4.16634H6.83325V5.49967ZM7.49992 12.833C4.55992 12.833 2.16659 10.4397 2.16659 7.49967C2.16659 4.55967 4.55992 2.16634 7.49992 2.16634C10.4399 2.16634 12.8333 4.55967 12.8333 7.49967C12.8333 10.4397 10.4399 12.833 7.49992 12.833ZM7.49992 0.833008C6.62444 0.833008 5.75753 1.00545 4.9487 1.34048C4.13986 1.67551 3.40493 2.16657 2.78587 2.78563C1.53563 4.03587 0.833252 5.73156 0.833252 7.49967C0.833252 9.26779 1.53563 10.9635 2.78587 12.2137C3.40493 12.8328 4.13986 13.3238 4.9487 13.6589C5.75753 13.9939 6.62444 14.1663 7.49992 14.1663C9.26803 14.1663 10.9637 13.464 12.214 12.2137C13.4642 10.9635 14.1666 9.26779 14.1666 7.49967C14.1666 6.6242 13.9941 5.75729 13.6591 4.94845C13.3241 4.13961 12.833 3.40469 12.214 2.78563C11.5949 2.16657 10.86 1.67551 10.0511 1.34048C9.2423 1.00545 8.3754 0.833008 7.49992 0.833008ZM6.83325 10.833H8.16659V6.83301H6.83325V10.833Z" fill="#696D80"/>
</svg>
