<svg width="14" height="15" viewBox="0 0 14 15" fill="none" xmlns="http://www.w3.org/2000/svg">
<path d="M6.33337 11.4997H7.66671V10.1663H6.33337V11.4997ZM7.00004 0.833008C3.32004 0.833008 0.333374 3.81967 0.333374 7.49967C0.333374 11.1797 3.32004 14.1663 7.00004 14.1663C10.68 14.1663 13.6667 11.1797 13.6667 7.49967C13.6667 3.81967 10.68 0.833008 7.00004 0.833008ZM7.00004 12.833C4.06004 12.833 1.66671 10.4397 1.66671 7.49967C1.66671 4.55967 4.06004 2.16634 7.00004 2.16634C9.94004 2.16634 12.3334 4.55967 12.3334 7.49967C12.3334 10.4397 9.94004 12.833 7.00004 12.833ZM7.00004 3.49967C5.52671 3.49967 4.33337 4.69301 4.33337 6.16634H5.66671C5.66671 5.43301 6.26671 4.83301 7.00004 4.83301C7.73337 4.83301 8.33337 5.43301 8.33337 6.16634C8.33337 7.49967 6.33337 7.33301 6.33337 9.49967H7.66671C7.66671 7.99967 9.66671 7.83301 9.66671 6.16634C9.66671 4.69301 8.47337 3.49967 7.00004 3.49967Z" fill="#141B38"/>
</svg>
