<svg width="12" height="12" viewBox="0 0 12 12" fill="none" xmlns="http://www.w3.org/2000/svg">
    <path d="M11.5 6C11.5 5.1978 11.0063 4.50219 10.2715 4.12634C10.5295 3.34659 10.3837 2.49951 9.81707 1.93293C9.25049 1.36634 8.40341 1.22049 7.62366 1.47854C7.25341 0.743659 6.5522 0.25 5.75 0.25C4.9478 0.25 4.2522 0.743659 3.88195 1.47854C3.09659 1.22049 2.24951 1.36634 1.68293 1.93293C1.11634 2.49951 0.976098 3.34659 1.23415 4.12634C0.499268 4.50219 0 5.1978 0 6C0 6.8022 0.499268 7.49781 1.23415 7.87366C0.976098 8.65341 1.11634 9.50049 1.68293 10.0671C2.24951 10.6337 3.09659 10.7739 3.87634 10.5215C4.25219 11.2563 4.9478 11.75 5.75 11.75C6.5522 11.75 7.25341 11.2563 7.62366 10.5215C8.40341 10.7739 9.25049 10.6337 9.81707 10.0671C10.3837 9.50049 10.5295 8.65341 10.2715 7.87366C11.0063 7.49781 11.5 6.8022 11.5 6ZM4.93098 8.3561L2.83293 6.25805L3.6239 5.46146L4.89171 6.72927L7.58439 3.79537L8.40902 4.55829L4.93098 8.3561Z" fill="#3697F1"/>
</svg>
