<svg width="56" height="56" viewBox="0 0 56 56" fill="none" xmlns="http://www.w3.org/2000/svg">
    <rect width="56" height="56" rx="28" fill="#F3F4F5"/>
    <mask id="mask0_25_2391" style="mask-type:alpha" maskUnits="userSpaceOnUse" x="12" y="12" width="32" height="32">
        <rect x="12" y="12" width="32" height="32" fill="#D9D9D9"/>
    </mask>
    <g mask="url(#mask0_25_2391)">
        <path d="M21.333 30.6667C20.5997 30.6667 19.9719 30.4056 19.4497 29.8833C18.9275 29.3611 18.6663 28.7333 18.6663 28C18.6663 27.2667 18.9275 26.6389 19.4497 26.1167C19.9719 25.5944 20.5997 25.3333 21.333 25.3333C22.0663 25.3333 22.6941 25.5944 23.2163 26.1167C23.7386 26.6389 23.9997 27.2667 23.9997 28C23.9997 28.7333 23.7386 29.3611 23.2163 29.8833C22.6941 30.4056 22.0663 30.6667 21.333 30.6667ZM21.333 36C19.1108 36 17.2219 35.2222 15.6663 33.6667C14.1108 32.1111 13.333 30.2222 13.333 28C13.333 25.7778 14.1108 23.8889 15.6663 22.3333C17.2219 20.7778 19.1108 20 21.333 20C22.8219 20 24.1719 20.3667 25.383 21.1C26.5941 21.8333 27.5552 22.8 28.2663 24H39.9997L43.9997 28L37.9997 34L35.333 32L32.6663 34L29.833 32H28.2663C27.5552 33.2 26.5941 34.1667 25.383 34.9C24.1719 35.6333 22.8219 36 21.333 36ZM21.333 33.3333C22.5775 33.3333 23.6719 32.9556 24.6163 32.2C25.5608 31.4444 26.1886 30.4889 26.4997 29.3333H30.6663L32.5997 30.7L35.333 28.6667L37.6997 30.5L40.1997 28L38.8663 26.6667H26.4997C26.1886 25.5111 25.5608 24.5556 24.6163 23.8C23.6719 23.0444 22.5775 22.6667 21.333 22.6667C19.8663 22.6667 18.6108 23.1889 17.5663 24.2333C16.5219 25.2778 15.9997 26.5333 15.9997 28C15.9997 29.4667 16.5219 30.7222 17.5663 31.7667C18.6108 32.8111 19.8663 33.3333 21.333 33.3333Z" fill="#434960"/>
    </g>
</svg>
