<svg width="20" height="18" viewBox="0 0 20 18" fill="none" xmlns="http://www.w3.org/2000/svg">
<path d="M12.1665 12.25C12.6524 12.25 13.0655 12.0798 13.4059 11.7394C13.7463 11.399 13.9165 10.9859 13.9165 10.5C13.9165 10.0141 13.7463 9.60094 13.4059 9.26058C13.0655 8.92019 12.6524 8.75 12.1665 8.75C11.9357 8.75 11.719 8.79423 11.5165 8.88268C11.3139 8.97114 11.1306 9.08717 10.9665 9.23075L7.90685 7.68845C7.91325 7.65512 7.91645 7.62531 7.91645 7.59903V7.39613C7.91645 7.36664 7.91325 7.33523 7.90685 7.3019L10.9569 5.7692C11.121 5.91278 11.3059 6.02881 11.5117 6.11728C11.7174 6.20573 11.9357 6.24995 12.1665 6.24995C12.6524 6.24995 13.0655 6.07976 13.4059 5.73938C13.7463 5.39901 13.9165 4.98588 13.9165 4.49998C13.9165 4.01408 13.7463 3.60094 13.4059 3.26058C13.0655 2.92019 12.6524 2.75 12.1665 2.75C11.6806 2.75 11.2674 2.92019 10.9271 3.26058C10.5867 3.60094 10.4165 4.01408 10.4165 4.49998V4.59903C10.4165 4.62531 10.4197 4.65832 10.4261 4.69805L7.37608 6.23075C7.21198 6.08717 7.02705 5.97114 6.82128 5.88268C6.61551 5.79423 6.39725 5.75 6.16648 5.75C5.68058 5.75 5.26745 5.92019 4.92708 6.26058C4.5867 6.60094 4.4165 7.01408 4.4165 7.49998C4.4165 7.98588 4.5867 8.39901 4.92708 8.73938C5.26745 9.07976 5.68058 9.24995 6.16648 9.24995C6.39725 9.24995 6.61551 9.20412 6.82128 9.11245C7.02705 9.02078 7.21198 8.90316 7.37608 8.75958L10.4261 10.3019C10.4197 10.3416 10.4165 10.3746 10.4165 10.4009V10.5C10.4165 10.9859 10.5867 11.399 10.9271 11.7394C11.2674 12.0798 11.6806 12.25 12.1665 12.25ZM3.70495 15L1.70305 17.0019C1.41844 17.2865 1.0912 17.3509 0.721329 17.1951C0.351446 17.0393 0.166504 16.7589 0.166504 16.3538V1.8077C0.166504 1.30257 0.341504 0.875 0.691504 0.525C1.0415 0.175 1.46907 0 1.9742 0H17.3588C17.8639 0 18.2915 0.175 18.6415 0.525C18.9915 0.875 19.1665 1.30257 19.1665 1.8077V13.1923C19.1665 13.6974 18.9915 14.125 18.6415 14.475C18.2915 14.825 17.8639 15 17.3588 15H3.70495ZM2.35883 13.5H17.3588C17.4357 13.5 17.5062 13.4679 17.5703 13.4038C17.6344 13.3397 17.6665 13.2692 17.6665 13.1923V1.8077C17.6665 1.73077 17.6344 1.66024 17.5703 1.59613C17.5062 1.53203 17.4357 1.49998 17.3588 1.49998H1.9742C1.89727 1.49998 1.82675 1.53203 1.76263 1.59613C1.69853 1.66024 1.66648 1.73077 1.66648 1.8077V14.1923L2.35883 13.5Z" fill="#696D80"/>
</svg>
