<svg width="12" height="10" viewBox="0 0 12 10" fill="none" xmlns="http://www.w3.org/2000/svg">
<path d="M4.42505 2.13867H11.4153C11.5715 2.13867 11.7024 2.08398 11.8079 1.97461C11.9172 1.86523 11.9719 1.73242 11.9719 1.57617C11.9719 1.41992 11.9172 1.28906 11.8079 1.18359C11.7024 1.07422 11.5715 1.01953 11.4153 1.01953H4.42505C4.2688 1.01953 4.13599 1.07422 4.02661 1.18359C3.92114 1.28906 3.86841 1.41992 3.86841 1.57617C3.86841 1.73242 3.92114 1.86523 4.02661 1.97461C4.13599 2.08398 4.2688 2.13867 4.42505 2.13867ZM4.42505 5.56055H11.4153C11.5715 5.56055 11.7024 5.50781 11.8079 5.40234C11.9172 5.29297 11.9719 5.16016 11.9719 5.00391C11.9719 4.84766 11.9172 4.7168 11.8079 4.61133C11.7024 4.50195 11.5715 4.44727 11.4153 4.44727H4.42505C4.2688 4.44727 4.13599 4.50195 4.02661 4.61133C3.92114 4.7168 3.86841 4.84766 3.86841 5.00391C3.86841 5.16016 3.92114 5.29297 4.02661 5.40234C4.13599 5.50781 4.2688 5.56055 4.42505 5.56055ZM4.42505 8.98828H11.4153C11.5715 8.98828 11.7024 8.93555 11.8079 8.83008C11.9172 8.7207 11.9719 8.58789 11.9719 8.43164C11.9719 8.27539 11.9172 8.14258 11.8079 8.0332C11.7024 7.92383 11.5715 7.86914 11.4153 7.86914H4.42505C4.2688 7.86914 4.13599 7.92383 4.02661 8.0332C3.92114 8.14258 3.86841 8.27539 3.86841 8.43164C3.86841 8.58789 3.92114 8.7207 4.02661 8.83008C4.13599 8.93555 4.2688 8.98828 4.42505 8.98828ZM1.08521 2.23242H2.03442C2.21411 2.23242 2.36841 2.16992 2.49731 2.04492C2.62622 1.91602 2.69067 1.75977 2.69067 1.57617C2.69067 1.39648 2.62622 1.24219 2.49731 1.11328C2.36841 0.984375 2.21411 0.919922 2.03442 0.919922H1.08521C0.905518 0.919922 0.751221 0.984375 0.622314 1.11328C0.493408 1.24219 0.428955 1.39648 0.428955 1.57617C0.428955 1.75977 0.493408 1.91602 0.622314 2.04492C0.751221 2.16992 0.905518 2.23242 1.08521 2.23242ZM1.08521 5.66016H2.03442C2.21411 5.66016 2.36841 5.59766 2.49731 5.47266C2.62622 5.34375 2.69067 5.1875 2.69067 5.00391C2.69067 4.82422 2.62622 4.66992 2.49731 4.54102C2.36841 4.41211 2.21411 4.34766 2.03442 4.34766H1.08521C0.905518 4.34766 0.751221 4.41211 0.622314 4.54102C0.493408 4.66992 0.428955 4.82422 0.428955 5.00391C0.428955 5.1875 0.493408 5.34375 0.622314 5.47266C0.751221 5.59766 0.905518 5.66016 1.08521 5.66016ZM1.08521 9.08789H2.03442C2.21411 9.08789 2.36841 9.02344 2.49731 8.89453C2.62622 8.76562 2.69067 8.61133 2.69067 8.43164C2.69067 8.24805 2.62622 8.09375 2.49731 7.96875C2.36841 7.83984 2.21411 7.77539 2.03442 7.77539H1.08521C0.905518 7.77539 0.751221 7.83984 0.622314 7.96875C0.493408 8.09375 0.428955 8.24805 0.428955 8.43164C0.428955 8.61133 0.493408 8.76562 0.622314 8.89453C0.751221 9.02344 0.905518 9.08789 1.08521 9.08789Z" fill="#141B38"/>
</svg>
