<svg width="14" height="14" viewBox="0 0 15 15" fill="none" xmlns="http://www.w3.org/2000/svg">
    <path d="M8 3.57422C6 3.57422 4.40625 5.19922 4.40625 7.16797C4.40625 9.16797 6 10.7617 8 10.7617C9.96875 10.7617 11.5938 9.16797 11.5938 7.16797C11.5938 5.19922 9.96875 3.57422 8 3.57422ZM8 9.51172C6.71875 9.51172 5.65625 8.48047 5.65625 7.16797C5.65625 5.88672 6.6875 4.85547 8 4.85547C9.28125 4.85547 10.3125 5.88672 10.3125 7.16797C10.3125 8.48047 9.28125 9.51172 8 9.51172ZM12.5625 3.44922C12.5625 2.98047 12.1875 2.60547 11.7188 2.60547C11.25 2.60547 10.875 2.98047 10.875 3.44922C10.875 3.91797 11.25 4.29297 11.7188 4.29297C12.1875 4.29297 12.5625 3.91797 12.5625 3.44922ZM14.9375 4.29297C14.875 3.16797 14.625 2.16797 13.8125 1.35547C13 0.542969 12 0.292969 10.875 0.230469C9.71875 0.167969 6.25 0.167969 5.09375 0.230469C3.96875 0.292969 3 0.542969 2.15625 1.35547C1.34375 2.16797 1.09375 3.16797 1.03125 4.29297C0.96875 5.44922 0.96875 8.91797 1.03125 10.0742C1.09375 11.1992 1.34375 12.168 2.15625 13.0117C3 13.8242 3.96875 14.0742 5.09375 14.1367C6.25 14.1992 9.71875 14.1992 10.875 14.1367C12 14.0742 13 13.8242 13.8125 13.0117C14.625 12.168 14.875 11.1992 14.9375 10.0742C15 8.91797 15 5.44922 14.9375 4.29297ZM13.4375 11.293C13.2188 11.918 12.7188 12.3867 12.125 12.6367C11.1875 13.0117 9 12.918 8 12.918C6.96875 12.918 4.78125 13.0117 3.875 12.6367C3.25 12.3867 2.78125 11.918 2.53125 11.293C2.15625 10.3867 2.25 8.19922 2.25 7.16797C2.25 6.16797 2.15625 3.98047 2.53125 3.04297C2.78125 2.44922 3.25 1.98047 3.875 1.73047C4.78125 1.35547 6.96875 1.44922 8 1.44922C9 1.44922 11.1875 1.35547 12.125 1.73047C12.7188 1.94922 13.1875 2.44922 13.4375 3.04297C13.8125 3.98047 13.7188 6.16797 13.7188 7.16797C13.7188 8.19922 13.8125 10.3867 13.4375 11.293Z" fill="url(#paint0_linear_4995_24265)"/>
    <defs>
        <linearGradient id="paint0_linear_4995_24265" x1="5.97188" y1="26.9586" x2="35.4594" y2="-3.14141" gradientUnits="userSpaceOnUse">
            <stop stop-color="white"/>
            <stop offset="0.147864" stop-color="#F6640E"/>
            <stop offset="0.443974" stop-color="#BA03A7"/>
            <stop offset="0.733337" stop-color="#6A01B9"/>
            <stop offset="1" stop-color="#6B01B9"/>
        </linearGradient>
    </defs>
</svg>
