<svg width="14" height="14" viewBox="0 0 14 14" fill="none" xmlns="http://www.w3.org/2000/svg">
    <path d="M6.9987 0.527344C3.33203 0.527344 0.332031 3.52068 0.332031 7.20734C0.332031 10.5407 2.77203 13.3073 5.9587 13.8073V9.14068H4.26536V7.20734H5.9587V5.73401C5.9587 4.06068 6.95203 3.14068 8.4787 3.14068C9.20537 3.14068 9.96537 3.26734 9.96537 3.26734V4.91401H9.12536C8.2987 4.91401 8.0387 5.42734 8.0387 5.95401V7.20734H9.89203L9.59203 9.14068H8.0387V13.8073C9.60966 13.5592 11.0402 12.7577 12.072 11.5474C13.1038 10.3371 13.6689 8.79777 13.6654 7.20734C13.6654 3.52068 10.6654 0.527344 6.9987 0.527344Z" fill="#006BFA"/>
</svg>
