<svg width="397" height="322" viewBox="0 0 397 322" fill="none" xmlns="http://www.w3.org/2000/svg">
    <g filter="url(#filter0_ddddd_6595_42861)">
        <g clip-path="url(#clip0_6595_42861)">
            <rect x="31" y="51" width="333" height="166" rx="6" fill="white"/>
            <path d="M59.6416 79.2461C57.3516 79.2461 55.8955 78.1182 55.7725 76.416L55.7656 76.3203H57.4746L57.4814 76.3887C57.5635 77.2158 58.4453 77.7627 59.6963 77.7627C60.8857 77.7627 61.7197 77.1748 61.7197 76.3271V76.3203C61.7197 75.6094 61.207 75.1787 59.9355 74.9053L58.876 74.6865C56.8594 74.2627 55.9844 73.3193 55.9844 71.8496V71.8428C55.9844 70.0791 57.502 68.8896 59.6348 68.8896C61.8223 68.8896 63.1826 70.0859 63.3057 71.6719L63.3125 71.7607H61.624L61.6104 71.6787C61.4873 70.9131 60.7559 70.3662 59.6279 70.373C58.5342 70.373 57.7549 70.8857 57.7549 71.7266V71.7334C57.7549 72.4307 58.2539 72.8682 59.4844 73.1279L60.5439 73.3535C62.6221 73.791 63.4902 74.625 63.4902 76.1152V76.1221C63.4902 78.043 62.0068 79.2461 59.6416 79.2461ZM68.4941 79.1504C66.2725 79.1504 64.9258 77.6602 64.9258 75.2812V75.2744C64.9258 72.9229 66.2861 71.3848 68.4121 71.3848C70.5381 71.3848 71.8506 72.875 71.8506 75.1309V75.6914H66.6279C66.6484 77.0312 67.373 77.8105 68.5283 77.8105C69.4512 77.8105 69.9775 77.3457 70.1416 77.0039L70.1621 76.9561H71.7822L71.7617 77.0176C71.5225 77.9814 70.5244 79.1504 68.4941 79.1504ZM68.4326 72.7178C67.4824 72.7178 66.7715 73.3604 66.6416 74.5498H70.1895C70.0732 73.3262 69.3828 72.7178 68.4326 72.7178ZM73.6211 79V68.6367H75.3232V79H73.6211ZM80.6758 79.1504C78.4541 79.1504 77.1074 77.6602 77.1074 75.2812V75.2744C77.1074 72.9229 78.4678 71.3848 80.5938 71.3848C82.7197 71.3848 84.0322 72.875 84.0322 75.1309V75.6914H78.8096C78.8301 77.0312 79.5547 77.8105 80.71 77.8105C81.6328 77.8105 82.1592 77.3457 82.3232 77.0039L82.3438 76.9561H83.9639L83.9434 77.0176C83.7041 77.9814 82.7061 79.1504 80.6758 79.1504ZM80.6143 72.7178C79.6641 72.7178 78.9531 73.3604 78.8232 74.5498H82.3711C82.2549 73.3262 81.5645 72.7178 80.6143 72.7178ZM88.9404 79.1504C86.6914 79.1504 85.3652 77.6943 85.3652 75.2539V75.2402C85.3652 72.8271 86.6846 71.3848 88.9336 71.3848C90.8545 71.3848 92.0029 72.4512 92.1943 73.9961V74.0234H90.5879L90.5811 74.0029C90.4238 73.2783 89.8701 72.7588 88.9404 72.7588C87.7783 72.7588 87.0947 73.6748 87.0947 75.2402V75.2539C87.0947 76.8398 87.7852 77.7695 88.9404 77.7695C89.8223 77.7695 90.3623 77.3662 90.5742 76.5801L90.5879 76.5527L92.1943 76.5459L92.1807 76.6006C91.9346 78.1318 90.834 79.1504 88.9404 79.1504ZM96.8496 79.0342C95.1338 79.0342 94.4297 78.46 94.4297 77.0176V72.8477H93.2676V71.5283H94.4297V69.6963H96.1592V71.5283H97.7383V72.8477H96.1592V76.6143C96.1592 77.3594 96.4531 77.6738 97.1641 77.6738C97.4033 77.6738 97.5332 77.667 97.7383 77.6465V78.959C97.4922 79.0068 97.1777 79.0342 96.8496 79.0342ZM105.203 79.123C103.781 79.123 102.749 78.248 102.749 76.8877V76.874C102.749 75.541 103.768 74.7617 105.586 74.6523L107.507 74.5361V73.8936C107.507 73.1484 107.021 72.7383 106.105 72.7383C105.326 72.7383 104.82 73.0186 104.649 73.5107L104.643 73.5381H103.036L103.043 73.4766C103.207 72.2188 104.41 71.3848 106.188 71.3848C108.108 71.3848 109.188 72.3145 109.188 73.8936V79H107.507V77.9746H107.391C106.98 78.6992 106.188 79.123 105.203 79.123ZM104.431 76.8057C104.431 77.4414 104.971 77.8174 105.723 77.8174C106.748 77.8174 107.507 77.1475 107.507 76.2588V75.6572L105.825 75.7666C104.875 75.8281 104.431 76.1768 104.431 76.792V76.8057ZM117.788 79.1504C115.888 79.1504 114.739 78.2754 114.596 77.0107V76.9971H116.284L116.291 77.0107C116.469 77.5303 116.968 77.8926 117.815 77.8926C118.663 77.8926 119.251 77.5098 119.251 76.9492V76.9355C119.251 76.498 118.923 76.2109 118.103 76.0264L116.893 75.7529C115.471 75.4385 114.794 74.7686 114.794 73.668V73.6611C114.794 72.3145 116.024 71.3848 117.788 71.3848C119.606 71.3848 120.693 72.2871 120.803 73.4971V73.5107H119.203L119.196 73.4902C119.073 73.0186 118.581 72.6357 117.781 72.6357C117.022 72.6357 116.476 73.0049 116.476 73.5654V73.5723C116.476 74.0098 116.79 74.2764 117.597 74.4609L118.807 74.7275C120.27 75.0557 120.96 75.6777 120.96 76.7646V76.7783C120.96 78.2002 119.627 79.1504 117.788 79.1504ZM122.676 81.4814V71.5283H124.378V72.6973H124.494C124.904 71.8838 125.718 71.4053 126.764 71.4053C128.637 71.4053 129.833 72.8955 129.833 75.2607V75.2744C129.833 77.6533 128.657 79.123 126.764 79.123C125.738 79.123 124.884 78.6172 124.494 77.8105H124.378V81.4814H122.676ZM126.23 77.6875C127.393 77.6875 128.097 76.7715 128.097 75.2744V75.2607C128.097 73.7568 127.393 72.8408 126.23 72.8408C125.075 72.8408 124.357 73.7568 124.357 75.2539V75.2676C124.357 76.7646 125.075 77.6875 126.23 77.6875ZM134.748 79.1504C132.526 79.1504 131.18 77.6602 131.18 75.2812V75.2744C131.18 72.9229 132.54 71.3848 134.666 71.3848C136.792 71.3848 138.104 72.875 138.104 75.1309V75.6914H132.882C132.902 77.0312 133.627 77.8105 134.782 77.8105C135.705 77.8105 136.231 77.3457 136.396 77.0039L136.416 76.9561H138.036L138.016 77.0176C137.776 77.9814 136.778 79.1504 134.748 79.1504ZM134.687 72.7178C133.736 72.7178 133.025 73.3604 132.896 74.5498H136.443C136.327 73.3262 135.637 72.7178 134.687 72.7178ZM143.013 79.1504C140.764 79.1504 139.438 77.6943 139.438 75.2539V75.2402C139.438 72.8271 140.757 71.3848 143.006 71.3848C144.927 71.3848 146.075 72.4512 146.267 73.9961V74.0234H144.66L144.653 74.0029C144.496 73.2783 143.942 72.7588 143.013 72.7588C141.851 72.7588 141.167 73.6748 141.167 75.2402V75.2539C141.167 76.8398 141.857 77.7695 143.013 77.7695C143.895 77.7695 144.435 77.3662 144.646 76.5801L144.66 76.5527L146.267 76.5459L146.253 76.6006C146.007 78.1318 144.906 79.1504 143.013 79.1504ZM148.762 70.2773C148.201 70.2773 147.743 69.833 147.743 69.2725C147.743 68.7188 148.201 68.2676 148.762 68.2676C149.315 68.2676 149.773 68.7188 149.773 69.2725C149.773 69.833 149.315 70.2773 148.762 70.2773ZM147.907 79V71.5283H149.609V79H147.907ZM152.248 79V72.8477H151.024V71.5283H152.248V70.79C152.248 69.2998 153 68.5684 154.668 68.5684C155.03 68.5684 155.338 68.5889 155.611 68.6367V69.8262C155.481 69.8057 155.27 69.792 155.03 69.792C154.23 69.792 153.923 70.1748 153.923 70.8857V71.5283H155.543V72.8477H153.95V79H152.248ZM158.059 70.2773C157.498 70.2773 157.04 69.833 157.04 69.2725C157.04 68.7188 157.498 68.2676 158.059 68.2676C158.612 68.2676 159.07 68.7188 159.07 69.2725C159.07 69.833 158.612 70.2773 158.059 70.2773ZM157.204 79V71.5283H158.906V79H157.204ZM164.204 79.1504C161.955 79.1504 160.629 77.6943 160.629 75.2539V75.2402C160.629 72.8271 161.948 71.3848 164.197 71.3848C166.118 71.3848 167.267 72.4512 167.458 73.9961V74.0234H165.852L165.845 74.0029C165.688 73.2783 165.134 72.7588 164.204 72.7588C163.042 72.7588 162.358 73.6748 162.358 75.2402V75.2539C162.358 76.8398 163.049 77.7695 164.204 77.7695C165.086 77.7695 165.626 77.3662 165.838 76.5801L165.852 76.5527L167.458 76.5459L167.444 76.6006C167.198 78.1318 166.098 79.1504 164.204 79.1504ZM172.811 81.4814V71.5283H174.513V72.6973H174.629C175.039 71.8838 175.853 71.4053 176.898 71.4053C178.771 71.4053 179.968 72.8955 179.968 75.2607V75.2744C179.968 77.6533 178.792 79.123 176.898 79.123C175.873 79.123 175.019 78.6172 174.629 77.8105H174.513V81.4814H172.811ZM176.365 77.6875C177.527 77.6875 178.231 76.7715 178.231 75.2744V75.2607C178.231 73.7568 177.527 72.8408 176.365 72.8408C175.21 72.8408 174.492 73.7568 174.492 75.2539V75.2676C174.492 76.7646 175.21 77.6875 176.365 77.6875ZM184.91 79.1504C182.668 79.1504 181.314 77.6875 181.314 75.2676V75.2539C181.314 72.8545 182.688 71.3848 184.91 71.3848C187.139 71.3848 188.506 72.8477 188.506 75.2539V75.2676C188.506 77.6875 187.146 79.1504 184.91 79.1504ZM184.91 77.7695C186.093 77.7695 186.763 76.8467 186.763 75.2744V75.2607C186.763 73.6885 186.086 72.7588 184.91 72.7588C183.728 72.7588 183.051 73.6885 183.051 75.2607V75.2744C183.051 76.8467 183.728 77.7695 184.91 77.7695ZM193.038 79.1504C191.138 79.1504 189.989 78.2754 189.846 77.0107V76.9971H191.534L191.541 77.0107C191.719 77.5303 192.218 77.8926 193.065 77.8926C193.913 77.8926 194.501 77.5098 194.501 76.9492V76.9355C194.501 76.498 194.173 76.2109 193.353 76.0264L192.143 75.7529C190.721 75.4385 190.044 74.7686 190.044 73.668V73.6611C190.044 72.3145 191.274 71.3848 193.038 71.3848C194.856 71.3848 195.943 72.2871 196.053 73.4971V73.5107H194.453L194.446 73.4902C194.323 73.0186 193.831 72.6357 193.031 72.6357C192.272 72.6357 191.726 73.0049 191.726 73.5654V73.5723C191.726 74.0098 192.04 74.2764 192.847 74.4609L194.057 74.7275C195.52 75.0557 196.21 75.6777 196.21 76.7646V76.7783C196.21 78.2002 194.877 79.1504 193.038 79.1504ZM200.811 79.0342C199.095 79.0342 198.391 78.46 198.391 77.0176V72.8477H197.229V71.5283H198.391V69.6963H200.12V71.5283H201.699V72.8477H200.12V76.6143C200.12 77.3594 200.414 77.6738 201.125 77.6738C201.364 77.6738 201.494 77.667 201.699 77.6465V78.959C201.453 79.0068 201.139 79.0342 200.811 79.0342Z" fill="#141B38"/>
            <path d="M56.0547 99V90.2695H59.043C59.7227 90.2695 60.2812 90.3945 60.7188 90.6445C61.1602 90.8906 61.4863 91.2227 61.6973 91.6406C61.9121 92.0586 62.0195 92.5273 62.0195 93.0469C62.0195 93.5664 61.9121 94.0371 61.6973 94.459C61.4863 94.8809 61.1621 95.2168 60.7246 95.4668C60.2871 95.7168 59.7285 95.8418 59.0488 95.8418H56.9336V94.8633H58.9961C59.457 94.8633 59.8281 94.7852 60.1094 94.6289C60.3906 94.4688 60.5938 94.252 60.7188 93.9785C60.8477 93.7012 60.9121 93.3906 60.9121 93.0469C60.9121 92.7031 60.8477 92.3965 60.7188 92.127C60.5938 91.8535 60.3887 91.6387 60.1035 91.4824C59.8223 91.3262 59.4492 91.248 58.9844 91.248H57.168V99H56.0547ZM63.5898 99V92.4492H64.6094V93.457H64.6797C64.8008 93.125 65.0156 92.8594 65.3242 92.6602C65.6367 92.457 65.9883 92.3555 66.3789 92.3555C66.457 92.3555 66.5488 92.3574 66.6543 92.3613C66.7637 92.3652 66.8496 92.3691 66.9121 92.373V93.4336C66.8809 93.4258 66.8027 93.4141 66.6777 93.3984C66.5527 93.3828 66.4199 93.375 66.2793 93.375C65.9668 93.375 65.6855 93.4414 65.4355 93.5742C65.1895 93.7031 64.9961 93.8828 64.8555 94.1133C64.7148 94.3398 64.6445 94.6016 64.6445 94.8984V99H63.5898ZM70.668 99.1406C70.0352 99.1406 69.4883 99 69.0273 98.7188C68.5703 98.4375 68.2168 98.0449 67.9668 97.541C67.7207 97.0371 67.5977 96.4492 67.5977 95.7773C67.5977 95.1055 67.7188 94.5137 67.9609 94.002C68.2031 93.4902 68.5449 93.0898 68.9863 92.8008C69.4316 92.5117 69.9512 92.3672 70.5449 92.3672C70.8926 92.3672 71.2344 92.4258 71.5703 92.543C71.9102 92.6562 72.2168 92.8418 72.4902 93.0996C72.7676 93.3535 72.9883 93.6895 73.1523 94.1074C73.3164 94.5254 73.3984 95.0371 73.3984 95.6426V96.082H68.3125V95.1914H72.8301L72.3379 95.5195C72.3379 95.0898 72.2695 94.709 72.1328 94.377C72 94.041 71.8008 93.7793 71.5352 93.5918C71.2695 93.4004 70.9395 93.3047 70.5449 93.3047C70.1504 93.3047 69.8125 93.4023 69.5312 93.5977C69.25 93.7891 69.0352 94.041 68.8867 94.3535C68.7383 94.6621 68.6641 94.9941 68.6641 95.3496V95.9414C68.6641 96.4258 68.748 96.8379 68.916 97.1777C69.084 97.5137 69.3184 97.7695 69.6191 97.9453C69.9238 98.1172 70.2754 98.2031 70.6738 98.2031C70.9316 98.2031 71.166 98.166 71.377 98.0918C71.5879 98.0176 71.7695 97.9062 71.9219 97.7578C72.0742 97.6055 72.1914 97.418 72.2734 97.1953L73.293 97.4766C73.1914 97.8047 73.0195 98.0938 72.7773 98.3438C72.5352 98.5938 72.2344 98.7891 71.875 98.9297C71.5195 99.0703 71.1172 99.1406 70.668 99.1406ZM76.5684 99L74.0664 92.4492H75.2207L76.6152 96.334C76.7637 96.7363 76.8887 97.1387 76.9902 97.541C77.0957 97.9395 77.2051 98.3262 77.3184 98.7012H76.9316C77.0449 98.3262 77.1523 97.9395 77.2539 97.541C77.3594 97.1387 77.4844 96.7363 77.6289 96.334L79.0234 92.4492H80.1777L77.6758 99H76.5684ZM81.4258 99V92.4492H82.4805V99H81.4258ZM81.959 91.377C81.7598 91.377 81.5879 91.3086 81.4434 91.1719C81.2988 91.0352 81.2266 90.8711 81.2266 90.6797C81.2266 90.4844 81.2988 90.3203 81.4434 90.1875C81.5879 90.0508 81.7598 89.9824 81.959 89.9824C82.1621 89.9824 82.3359 90.0508 82.4805 90.1875C82.625 90.3203 82.6973 90.4844 82.6973 90.6797C82.6973 90.8711 82.625 91.0352 82.4805 91.1719C82.3359 91.3086 82.1621 91.377 81.959 91.377ZM87.0859 99.1406C86.4531 99.1406 85.9062 99 85.4453 98.7188C84.9883 98.4375 84.6348 98.0449 84.3848 97.541C84.1387 97.0371 84.0156 96.4492 84.0156 95.7773C84.0156 95.1055 84.1367 94.5137 84.3789 94.002C84.6211 93.4902 84.9629 93.0898 85.4043 92.8008C85.8496 92.5117 86.3691 92.3672 86.9629 92.3672C87.3105 92.3672 87.6523 92.4258 87.9883 92.543C88.3281 92.6562 88.6348 92.8418 88.9082 93.0996C89.1855 93.3535 89.4062 93.6895 89.5703 94.1074C89.7344 94.5254 89.8164 95.0371 89.8164 95.6426V96.082H84.7305V95.1914H89.248L88.7559 95.5195C88.7559 95.0898 88.6875 94.709 88.5508 94.377C88.418 94.041 88.2188 93.7793 87.9531 93.5918C87.6875 93.4004 87.3574 93.3047 86.9629 93.3047C86.5684 93.3047 86.2305 93.4023 85.9492 93.5977C85.668 93.7891 85.4531 94.041 85.3047 94.3535C85.1562 94.6621 85.082 94.9941 85.082 95.3496V95.9414C85.082 96.4258 85.166 96.8379 85.334 97.1777C85.502 97.5137 85.7363 97.7695 86.0371 97.9453C86.3418 98.1172 86.6934 98.2031 87.0918 98.2031C87.3496 98.2031 87.584 98.166 87.7949 98.0918C88.0059 98.0176 88.1875 97.9062 88.3398 97.7578C88.4922 97.6055 88.6094 97.418 88.6914 97.1953L89.7109 97.4766C89.6094 97.8047 89.4375 98.0938 89.1953 98.3438C88.9531 98.5938 88.6523 98.7891 88.293 98.9297C87.9375 99.0703 87.5352 99.1406 87.0859 99.1406ZM92.5762 99L90.5898 92.4492H91.709L92.5059 95.3086C92.6152 95.6992 92.7324 96.1426 92.8574 96.6387C92.9824 97.1309 93.1055 97.6895 93.2266 98.3145H93.0449C93.1621 97.7168 93.2812 97.1699 93.4023 96.6738C93.5234 96.1777 93.6406 95.7227 93.7539 95.3086L94.5391 92.4492H95.6641L96.4375 95.3086C96.5469 95.7109 96.6602 96.1602 96.7773 96.6562C96.8984 97.1484 97.0176 97.7012 97.1348 98.3145H96.9473C97.0723 97.709 97.1953 97.1602 97.3164 96.668C97.4414 96.1719 97.5605 95.7188 97.6738 95.3086L98.4707 92.4492H99.5898L97.6035 99H96.5547L95.7051 96.0352C95.6191 95.7344 95.5352 95.4277 95.4531 95.1152C95.3711 94.8027 95.291 94.4824 95.2129 94.1543C95.1348 93.8262 95.0547 93.4922 94.9727 93.1523H95.207C95.1289 93.4883 95.0488 93.8223 94.9668 94.1543C94.8887 94.4824 94.8086 94.8047 94.7266 95.1211C94.6445 95.4375 94.5605 95.7422 94.4746 96.0352L93.625 99H92.5762ZM106.135 99.1523C105.721 99.1523 105.344 99.0742 105.004 98.918C104.668 98.7617 104.4 98.5332 104.201 98.2324C104.002 97.9316 103.902 97.5664 103.902 97.1367C103.902 96.7617 103.977 96.457 104.125 96.2227C104.273 95.9883 104.471 95.8047 104.717 95.6719C104.967 95.5352 105.242 95.4336 105.543 95.3672C105.844 95.3008 106.146 95.248 106.451 95.209C106.842 95.1582 107.16 95.1191 107.406 95.0918C107.652 95.0645 107.834 95.0176 107.951 94.9512C108.072 94.8848 108.133 94.7715 108.133 94.6113V94.5762C108.133 94.3027 108.082 94.0723 107.98 93.8848C107.879 93.6934 107.727 93.5469 107.523 93.4453C107.32 93.3438 107.066 93.293 106.762 93.293C106.449 93.293 106.182 93.3418 105.959 93.4395C105.736 93.5371 105.555 93.6602 105.414 93.8086C105.277 93.9531 105.174 94.1016 105.104 94.2539L104.09 93.9199C104.258 93.5215 104.484 93.2109 104.77 92.9883C105.055 92.7617 105.369 92.6016 105.713 92.5078C106.057 92.4141 106.396 92.3672 106.732 92.3672C106.951 92.3672 107.199 92.3945 107.477 92.4492C107.758 92.5 108.027 92.6035 108.285 92.7598C108.547 92.916 108.762 93.1484 108.93 93.457C109.102 93.7617 109.188 94.1699 109.188 94.6816V99H108.15V98.1094H108.08C108.006 98.2617 107.887 98.4199 107.723 98.584C107.559 98.7441 107.346 98.8789 107.084 98.9883C106.822 99.0977 106.506 99.1523 106.135 99.1523ZM106.316 98.2207C106.707 98.2207 107.037 98.1445 107.307 97.9922C107.576 97.8398 107.781 97.6426 107.922 97.4004C108.062 97.1543 108.133 96.8984 108.133 96.6328V95.7246C108.09 95.7754 107.996 95.8223 107.852 95.8652C107.707 95.9043 107.541 95.9395 107.354 95.9707C107.17 96.002 106.99 96.0293 106.814 96.0527C106.643 96.0723 106.506 96.0879 106.404 96.0996C106.15 96.1309 105.912 96.1855 105.689 96.2637C105.471 96.3379 105.295 96.4492 105.162 96.5977C105.029 96.7422 104.963 96.9395 104.963 97.1895C104.963 97.416 105.021 97.6055 105.139 97.7578C105.256 97.9102 105.416 98.0254 105.619 98.1035C105.822 98.1816 106.055 98.2207 106.316 98.2207ZM116.641 99.1406C116.191 99.1406 115.791 99.0762 115.439 98.9473C115.092 98.8145 114.805 98.6191 114.578 98.3613C114.352 98.1035 114.199 97.7871 114.121 97.4121L115.123 97.1719C115.217 97.5312 115.393 97.7949 115.65 97.9629C115.912 98.1309 116.238 98.2148 116.629 98.2148C117.086 98.2148 117.449 98.1172 117.719 97.9219C117.992 97.7266 118.129 97.4941 118.129 97.2246C118.129 96.998 118.049 96.8105 117.889 96.6621C117.732 96.5098 117.492 96.3965 117.168 96.3223L116.078 96.0645C115.484 95.9238 115.043 95.707 114.754 95.4141C114.465 95.1172 114.32 94.7383 114.32 94.2773C114.32 93.9023 114.426 93.5723 114.637 93.2871C114.848 92.998 115.135 92.7734 115.498 92.6133C115.865 92.4492 116.281 92.3672 116.746 92.3672C117.195 92.3672 117.576 92.4355 117.889 92.5723C118.205 92.7051 118.461 92.8906 118.656 93.1289C118.855 93.3633 119.004 93.6348 119.102 93.9434L118.146 94.1895C118.057 93.9551 117.906 93.7422 117.695 93.5508C117.488 93.3594 117.174 93.2637 116.752 93.2637C116.361 93.2637 116.035 93.3535 115.773 93.5332C115.516 93.7129 115.387 93.9395 115.387 94.2129C115.387 94.4551 115.475 94.6504 115.65 94.7988C115.826 94.9434 116.105 95.0605 116.488 95.1504L117.479 95.3848C118.072 95.5254 118.512 95.7441 118.797 96.041C119.082 96.334 119.225 96.7051 119.225 97.1543C119.225 97.5371 119.115 97.8789 118.896 98.1797C118.682 98.4766 118.379 98.7109 117.988 98.8828C117.602 99.0547 117.152 99.1406 116.641 99.1406ZM120.754 101.449V92.4492H121.773V93.498H121.891C121.965 93.3809 122.068 93.2344 122.201 93.0586C122.334 92.8789 122.525 92.7188 122.775 92.5781C123.025 92.4375 123.363 92.3672 123.789 92.3672C124.336 92.3672 124.816 92.5039 125.23 92.7773C125.648 93.0508 125.975 93.4414 126.209 93.9492C126.447 94.4531 126.566 95.0508 126.566 95.7422C126.566 96.4375 126.449 97.0391 126.215 97.5469C125.98 98.0547 125.654 98.4473 125.236 98.7246C124.822 99.002 124.342 99.1406 123.795 99.1406C123.381 99.1406 123.047 99.0703 122.793 98.9297C122.539 98.7852 122.344 98.623 122.207 98.4434C122.07 98.2598 121.965 98.1074 121.891 97.9863H121.809V101.449H120.754ZM123.637 98.1973C124.047 98.1973 124.389 98.0879 124.662 97.8691C124.939 97.6465 125.146 97.3496 125.283 96.9785C125.424 96.6035 125.494 96.1875 125.494 95.7305C125.494 95.2773 125.426 94.8691 125.289 94.5059C125.152 94.1387 124.945 93.8477 124.668 93.6328C124.395 93.418 124.051 93.3105 123.637 93.3105C123.234 93.3105 122.896 93.4121 122.623 93.6152C122.35 93.8184 122.143 94.1016 122.002 94.4648C121.865 94.8242 121.797 95.2461 121.797 95.7305C121.797 96.2148 121.867 96.6426 122.008 97.0137C122.148 97.3848 122.355 97.6758 122.629 97.8867C122.906 98.0938 123.242 98.1973 123.637 98.1973ZM130.855 99.1406C130.223 99.1406 129.676 99 129.215 98.7188C128.758 98.4375 128.404 98.0449 128.154 97.541C127.908 97.0371 127.785 96.4492 127.785 95.7773C127.785 95.1055 127.906 94.5137 128.148 94.002C128.391 93.4902 128.732 93.0898 129.174 92.8008C129.619 92.5117 130.139 92.3672 130.732 92.3672C131.08 92.3672 131.422 92.4258 131.758 92.543C132.098 92.6562 132.404 92.8418 132.678 93.0996C132.955 93.3535 133.176 93.6895 133.34 94.1074C133.504 94.5254 133.586 95.0371 133.586 95.6426V96.082H128.5V95.1914H133.018L132.525 95.5195C132.525 95.0898 132.457 94.709 132.32 94.377C132.188 94.041 131.988 93.7793 131.723 93.5918C131.457 93.4004 131.127 93.3047 130.732 93.3047C130.338 93.3047 130 93.4023 129.719 93.5977C129.438 93.7891 129.223 94.041 129.074 94.3535C128.926 94.6621 128.852 94.9941 128.852 95.3496V95.9414C128.852 96.4258 128.936 96.8379 129.104 97.1777C129.271 97.5137 129.506 97.7695 129.807 97.9453C130.111 98.1172 130.463 98.2031 130.861 98.2031C131.119 98.2031 131.354 98.166 131.564 98.0918C131.775 98.0176 131.957 97.9062 132.109 97.7578C132.262 97.6055 132.379 97.418 132.461 97.1953L133.48 97.4766C133.379 97.8047 133.207 98.0938 132.965 98.3438C132.723 98.5938 132.422 98.7891 132.062 98.9297C131.707 99.0703 131.305 99.1406 130.855 99.1406ZM137.764 99.1406C137.17 99.1406 136.648 99 136.199 98.7188C135.754 98.4375 135.406 98.043 135.156 97.5352C134.906 97.0273 134.781 96.4375 134.781 95.7656C134.781 95.082 134.906 94.4863 135.156 93.9785C135.406 93.4668 135.754 93.0703 136.199 92.7891C136.648 92.5078 137.17 92.3672 137.764 92.3672C138.08 92.3672 138.379 92.4082 138.66 92.4902C138.941 92.5723 139.197 92.6914 139.428 92.8477C139.662 93 139.863 93.1895 140.031 93.416C140.199 93.6387 140.328 93.8926 140.418 94.1777L139.404 94.4648C139.357 94.2969 139.285 94.1426 139.188 94.002C139.09 93.8613 138.971 93.7402 138.83 93.6387C138.693 93.5332 138.535 93.4531 138.355 93.3984C138.176 93.3398 137.979 93.3105 137.764 93.3105C137.326 93.3105 136.967 93.4258 136.686 93.6562C136.404 93.8828 136.195 94.1816 136.059 94.5527C135.922 94.9238 135.854 95.3281 135.854 95.7656C135.854 96.1953 135.922 96.5957 136.059 96.9668C136.195 97.334 136.404 97.6309 136.686 97.8574C136.967 98.084 137.326 98.1973 137.764 98.1973C137.982 98.1973 138.184 98.168 138.367 98.1094C138.551 98.0508 138.713 97.9688 138.854 97.8633C138.998 97.7539 139.119 97.625 139.217 97.4766C139.314 97.3281 139.387 97.166 139.434 96.9902L140.441 97.2773C140.355 97.5703 140.227 97.832 140.055 98.0625C139.887 98.2891 139.686 98.4844 139.451 98.6484C139.217 98.8086 138.957 98.9297 138.672 99.0117C138.387 99.0977 138.084 99.1406 137.764 99.1406ZM141.953 99V92.4492H143.008V99H141.953ZM142.486 91.377C142.287 91.377 142.115 91.3086 141.971 91.1719C141.826 91.0352 141.754 90.8711 141.754 90.6797C141.754 90.4844 141.826 90.3203 141.971 90.1875C142.115 90.0508 142.287 89.9824 142.486 89.9824C142.689 89.9824 142.863 90.0508 143.008 90.1875C143.152 90.3203 143.225 90.4844 143.225 90.6797C143.225 90.8711 143.152 91.0352 143.008 91.1719C142.863 91.3086 142.689 91.377 142.486 91.377ZM147.906 92.4492V93.3516H144.051V92.4492H147.906ZM145.34 99V91.5762C145.34 91.1973 145.428 90.8809 145.604 90.627C145.783 90.373 146.016 90.1816 146.301 90.0527C146.586 89.9238 146.887 89.8594 147.203 89.8594C147.453 89.8594 147.66 89.8809 147.824 89.9238C147.988 89.9629 148.109 90 148.188 90.0352L147.895 90.9375C147.84 90.918 147.768 90.8965 147.678 90.873C147.592 90.8496 147.475 90.8379 147.326 90.8379C147.002 90.8379 146.766 90.9219 146.617 91.0898C146.469 91.2539 146.395 91.4941 146.395 91.8105V99H145.34ZM149.301 99V92.4492H150.355V99H149.301ZM149.834 91.377C149.635 91.377 149.463 91.3086 149.318 91.1719C149.174 91.0352 149.102 90.8711 149.102 90.6797C149.102 90.4844 149.174 90.3203 149.318 90.1875C149.463 90.0508 149.635 89.9824 149.834 89.9824C150.037 89.9824 150.211 90.0508 150.355 90.1875C150.5 90.3203 150.572 90.4844 150.572 90.6797C150.572 90.8711 150.5 91.0352 150.355 91.1719C150.211 91.3086 150.037 91.377 149.834 91.377ZM154.873 99.1406C154.279 99.1406 153.758 99 153.309 98.7188C152.863 98.4375 152.516 98.043 152.266 97.5352C152.016 97.0273 151.891 96.4375 151.891 95.7656C151.891 95.082 152.016 94.4863 152.266 93.9785C152.516 93.4668 152.863 93.0703 153.309 92.7891C153.758 92.5078 154.279 92.3672 154.873 92.3672C155.189 92.3672 155.488 92.4082 155.77 92.4902C156.051 92.5723 156.307 92.6914 156.537 92.8477C156.771 93 156.973 93.1895 157.141 93.416C157.309 93.6387 157.438 93.8926 157.527 94.1777L156.514 94.4648C156.467 94.2969 156.395 94.1426 156.297 94.002C156.199 93.8613 156.08 93.7402 155.939 93.6387C155.803 93.5332 155.645 93.4531 155.465 93.3984C155.285 93.3398 155.088 93.3105 154.873 93.3105C154.436 93.3105 154.076 93.4258 153.795 93.6562C153.514 93.8828 153.305 94.1816 153.168 94.5527C153.031 94.9238 152.963 95.3281 152.963 95.7656C152.963 96.1953 153.031 96.5957 153.168 96.9668C153.305 97.334 153.514 97.6309 153.795 97.8574C154.076 98.084 154.436 98.1973 154.873 98.1973C155.092 98.1973 155.293 98.168 155.477 98.1094C155.66 98.0508 155.822 97.9688 155.963 97.8633C156.107 97.7539 156.229 97.625 156.326 97.4766C156.424 97.3281 156.496 97.166 156.543 96.9902L157.551 97.2773C157.465 97.5703 157.336 97.832 157.164 98.0625C156.996 98.2891 156.795 98.4844 156.561 98.6484C156.326 98.8086 156.066 98.9297 155.781 99.0117C155.496 99.0977 155.193 99.1406 154.873 99.1406ZM162.438 101.449V92.4492H163.457V93.498H163.574C163.648 93.3809 163.752 93.2344 163.885 93.0586C164.018 92.8789 164.209 92.7188 164.459 92.5781C164.709 92.4375 165.047 92.3672 165.473 92.3672C166.02 92.3672 166.5 92.5039 166.914 92.7773C167.332 93.0508 167.658 93.4414 167.893 93.9492C168.131 94.4531 168.25 95.0508 168.25 95.7422C168.25 96.4375 168.133 97.0391 167.898 97.5469C167.664 98.0547 167.338 98.4473 166.92 98.7246C166.506 99.002 166.025 99.1406 165.479 99.1406C165.064 99.1406 164.73 99.0703 164.477 98.9297C164.223 98.7852 164.027 98.623 163.891 98.4434C163.754 98.2598 163.648 98.1074 163.574 97.9863H163.492V101.449H162.438ZM165.32 98.1973C165.73 98.1973 166.072 98.0879 166.346 97.8691C166.623 97.6465 166.83 97.3496 166.967 96.9785C167.107 96.6035 167.178 96.1875 167.178 95.7305C167.178 95.2773 167.109 94.8691 166.973 94.5059C166.836 94.1387 166.629 93.8477 166.352 93.6328C166.078 93.418 165.734 93.3105 165.32 93.3105C164.918 93.3105 164.58 93.4121 164.307 93.6152C164.033 93.8184 163.826 94.1016 163.686 94.4648C163.549 94.8242 163.48 95.2461 163.48 95.7305C163.48 96.2148 163.551 96.6426 163.691 97.0137C163.832 97.3848 164.039 97.6758 164.312 97.8867C164.59 98.0938 164.926 98.1973 165.32 98.1973ZM172.451 99.1406C171.857 99.1406 171.336 99 170.887 98.7188C170.441 98.4375 170.094 98.043 169.844 97.5352C169.594 97.0273 169.469 96.4375 169.469 95.7656C169.469 95.082 169.594 94.4863 169.844 93.9785C170.094 93.4668 170.441 93.0703 170.887 92.7891C171.336 92.5078 171.857 92.3672 172.451 92.3672C173.049 92.3672 173.572 92.5078 174.021 92.7891C174.471 93.0703 174.82 93.4668 175.07 93.9785C175.32 94.4863 175.445 95.082 175.445 95.7656C175.445 96.4375 175.32 97.0273 175.07 97.5352C174.82 98.043 174.471 98.4375 174.021 98.7188C173.572 99 173.049 99.1406 172.451 99.1406ZM172.451 98.1973C172.893 98.1973 173.256 98.084 173.541 97.8574C173.826 97.6309 174.037 97.334 174.174 96.9668C174.311 96.5957 174.379 96.1953 174.379 95.7656C174.379 95.332 174.311 94.9297 174.174 94.5586C174.037 94.1836 173.826 93.8828 173.541 93.6562C173.256 93.4258 172.893 93.3105 172.451 93.3105C172.014 93.3105 171.654 93.4258 171.373 93.6562C171.092 93.8828 170.883 94.1816 170.746 94.5527C170.609 94.9238 170.541 95.3281 170.541 95.7656C170.541 96.1953 170.609 96.5957 170.746 96.9668C170.883 97.334 171.092 97.6309 171.373 97.8574C171.654 98.084 172.014 98.1973 172.451 98.1973ZM179.207 99.1406C178.758 99.1406 178.357 99.0762 178.006 98.9473C177.658 98.8145 177.371 98.6191 177.145 98.3613C176.918 98.1035 176.766 97.7871 176.688 97.4121L177.689 97.1719C177.783 97.5312 177.959 97.7949 178.217 97.9629C178.479 98.1309 178.805 98.2148 179.195 98.2148C179.652 98.2148 180.016 98.1172 180.285 97.9219C180.559 97.7266 180.695 97.4941 180.695 97.2246C180.695 96.998 180.615 96.8105 180.455 96.6621C180.299 96.5098 180.059 96.3965 179.734 96.3223L178.645 96.0645C178.051 95.9238 177.609 95.707 177.32 95.4141C177.031 95.1172 176.887 94.7383 176.887 94.2773C176.887 93.9023 176.992 93.5723 177.203 93.2871C177.414 92.998 177.701 92.7734 178.064 92.6133C178.432 92.4492 178.848 92.3672 179.312 92.3672C179.762 92.3672 180.143 92.4355 180.455 92.5723C180.771 92.7051 181.027 92.8906 181.223 93.1289C181.422 93.3633 181.57 93.6348 181.668 93.9434L180.713 94.1895C180.623 93.9551 180.473 93.7422 180.262 93.5508C180.055 93.3594 179.74 93.2637 179.318 93.2637C178.928 93.2637 178.602 93.3535 178.34 93.5332C178.082 93.7129 177.953 93.9395 177.953 94.2129C177.953 94.4551 178.041 94.6504 178.217 94.7988C178.393 94.9434 178.672 95.0605 179.055 95.1504L180.045 95.3848C180.639 95.5254 181.078 95.7441 181.363 96.041C181.648 96.334 181.791 96.7051 181.791 97.1543C181.791 97.5371 181.682 97.8789 181.463 98.1797C181.248 98.4766 180.945 98.7109 180.555 98.8828C180.168 99.0547 179.719 99.1406 179.207 99.1406ZM185.898 92.4492V93.3516H182.512V92.4492H185.898ZM183.496 90.8906H184.551V97.3008C184.551 97.5938 184.609 97.8086 184.727 97.9453C184.848 98.0781 185.047 98.1445 185.324 98.1445C185.391 98.1445 185.475 98.1367 185.576 98.1211C185.682 98.1055 185.777 98.0898 185.863 98.0742L186.08 98.9648C185.971 99.0039 185.846 99.0332 185.705 99.0527C185.568 99.0723 185.432 99.082 185.295 99.082C184.729 99.082 184.287 98.9336 183.971 98.6367C183.654 98.3359 183.496 97.918 183.496 97.3828V90.8906ZM193.662 99.1406C193.248 99.1406 192.914 99.0703 192.66 98.9297C192.406 98.7852 192.211 98.623 192.074 98.4434C191.938 98.2598 191.832 98.1074 191.758 97.9863H191.641V99H190.621V90.2695H191.676V93.498H191.758C191.832 93.3809 191.936 93.2344 192.068 93.0586C192.201 92.8789 192.393 92.7188 192.643 92.5781C192.893 92.4375 193.23 92.3672 193.656 92.3672C194.203 92.3672 194.684 92.5039 195.098 92.7773C195.516 93.0508 195.842 93.4414 196.076 93.9492C196.314 94.4531 196.434 95.0508 196.434 95.7422C196.434 96.4375 196.316 97.0391 196.082 97.5469C195.848 98.0547 195.521 98.4473 195.104 98.7246C194.689 99.002 194.209 99.1406 193.662 99.1406ZM193.504 98.1973C193.914 98.1973 194.256 98.0879 194.529 97.8691C194.807 97.6465 195.014 97.3496 195.15 96.9785C195.291 96.6035 195.361 96.1875 195.361 95.7305C195.361 95.2773 195.293 94.8691 195.156 94.5059C195.02 94.1387 194.812 93.8477 194.535 93.6328C194.262 93.418 193.918 93.3105 193.504 93.3105C193.102 93.3105 192.764 93.4121 192.49 93.6152C192.217 93.8184 192.01 94.1016 191.869 94.4648C191.732 94.8242 191.664 95.2461 191.664 95.7305C191.664 96.2148 191.734 96.6426 191.875 97.0137C192.016 97.3848 192.223 97.6758 192.496 97.8867C192.773 98.0938 193.109 98.1973 193.504 98.1973ZM197.629 101.373L197.898 100.459L198.01 100.488C198.225 100.543 198.42 100.557 198.596 100.529C198.771 100.506 198.93 100.42 199.07 100.271C199.211 100.123 199.334 99.8926 199.439 99.5801L199.627 99.0352L197.125 92.4492H198.279L199.674 96.334C199.822 96.7402 199.947 97.1426 200.049 97.541C200.15 97.9395 200.258 98.3262 200.371 98.7012H199.984C200.098 98.3262 200.205 97.9395 200.307 97.541C200.412 97.1387 200.537 96.7363 200.682 96.334L202.088 92.4492H203.236L200.359 99.9785C200.227 100.326 200.066 100.611 199.879 100.834C199.695 101.061 199.48 101.227 199.234 101.332C198.988 101.441 198.711 101.496 198.402 101.496C198.215 101.496 198.053 101.482 197.916 101.455C197.779 101.428 197.684 101.4 197.629 101.373ZM210.086 99.1406C209.637 99.1406 209.236 99.0762 208.885 98.9473C208.537 98.8145 208.25 98.6191 208.023 98.3613C207.797 98.1035 207.645 97.7871 207.566 97.4121L208.568 97.1719C208.662 97.5312 208.838 97.7949 209.096 97.9629C209.357 98.1309 209.684 98.2148 210.074 98.2148C210.531 98.2148 210.895 98.1172 211.164 97.9219C211.438 97.7266 211.574 97.4941 211.574 97.2246C211.574 96.998 211.494 96.8105 211.334 96.6621C211.178 96.5098 210.938 96.3965 210.613 96.3223L209.523 96.0645C208.93 95.9238 208.488 95.707 208.199 95.4141C207.91 95.1172 207.766 94.7383 207.766 94.2773C207.766 93.9023 207.871 93.5723 208.082 93.2871C208.293 92.998 208.58 92.7734 208.943 92.6133C209.311 92.4492 209.727 92.3672 210.191 92.3672C210.641 92.3672 211.021 92.4355 211.334 92.5723C211.65 92.7051 211.906 92.8906 212.102 93.1289C212.301 93.3633 212.449 93.6348 212.547 93.9434L211.592 94.1895C211.502 93.9551 211.352 93.7422 211.141 93.5508C210.934 93.3594 210.619 93.2637 210.197 93.2637C209.807 93.2637 209.48 93.3535 209.219 93.5332C208.961 93.7129 208.832 93.9395 208.832 94.2129C208.832 94.4551 208.92 94.6504 209.096 94.7988C209.271 94.9434 209.551 95.0605 209.934 95.1504L210.924 95.3848C211.518 95.5254 211.957 95.7441 212.242 96.041C212.527 96.334 212.67 96.7051 212.67 97.1543C212.67 97.5371 212.561 97.8789 212.342 98.1797C212.127 98.4766 211.824 98.7109 211.434 98.8828C211.047 99.0547 210.598 99.1406 210.086 99.1406ZM216.953 99.1406C216.32 99.1406 215.773 99 215.312 98.7188C214.855 98.4375 214.502 98.0449 214.252 97.541C214.006 97.0371 213.883 96.4492 213.883 95.7773C213.883 95.1055 214.004 94.5137 214.246 94.002C214.488 93.4902 214.83 93.0898 215.271 92.8008C215.717 92.5117 216.236 92.3672 216.83 92.3672C217.178 92.3672 217.52 92.4258 217.855 92.543C218.195 92.6562 218.502 92.8418 218.775 93.0996C219.053 93.3535 219.273 93.6895 219.438 94.1074C219.602 94.5254 219.684 95.0371 219.684 95.6426V96.082H214.598V95.1914H219.115L218.623 95.5195C218.623 95.0898 218.555 94.709 218.418 94.377C218.285 94.041 218.086 93.7793 217.82 93.5918C217.555 93.4004 217.225 93.3047 216.83 93.3047C216.436 93.3047 216.098 93.4023 215.816 93.5977C215.535 93.7891 215.32 94.041 215.172 94.3535C215.023 94.6621 214.949 94.9941 214.949 95.3496V95.9414C214.949 96.4258 215.033 96.8379 215.201 97.1777C215.369 97.5137 215.604 97.7695 215.904 97.9453C216.209 98.1172 216.561 98.2031 216.959 98.2031C217.217 98.2031 217.451 98.166 217.662 98.0918C217.873 98.0176 218.055 97.9062 218.207 97.7578C218.359 97.6055 218.477 97.418 218.559 97.1953L219.578 97.4766C219.477 97.8047 219.305 98.0938 219.062 98.3438C218.82 98.5938 218.52 98.7891 218.16 98.9297C217.805 99.0703 217.402 99.1406 216.953 99.1406ZM223.146 99.1523C222.732 99.1523 222.355 99.0742 222.016 98.918C221.68 98.7617 221.412 98.5332 221.213 98.2324C221.014 97.9316 220.914 97.5664 220.914 97.1367C220.914 96.7617 220.988 96.457 221.137 96.2227C221.285 95.9883 221.482 95.8047 221.729 95.6719C221.979 95.5352 222.254 95.4336 222.555 95.3672C222.855 95.3008 223.158 95.248 223.463 95.209C223.854 95.1582 224.172 95.1191 224.418 95.0918C224.664 95.0645 224.846 95.0176 224.963 94.9512C225.084 94.8848 225.145 94.7715 225.145 94.6113V94.5762C225.145 94.3027 225.094 94.0723 224.992 93.8848C224.891 93.6934 224.738 93.5469 224.535 93.4453C224.332 93.3438 224.078 93.293 223.773 93.293C223.461 93.293 223.193 93.3418 222.971 93.4395C222.748 93.5371 222.566 93.6602 222.426 93.8086C222.289 93.9531 222.186 94.1016 222.115 94.2539L221.102 93.9199C221.27 93.5215 221.496 93.2109 221.781 92.9883C222.066 92.7617 222.381 92.6016 222.725 92.5078C223.068 92.4141 223.408 92.3672 223.744 92.3672C223.963 92.3672 224.211 92.3945 224.488 92.4492C224.77 92.5 225.039 92.6035 225.297 92.7598C225.559 92.916 225.773 93.1484 225.941 93.457C226.113 93.7617 226.199 94.1699 226.199 94.6816V99H225.162V98.1094H225.092C225.018 98.2617 224.898 98.4199 224.734 98.584C224.57 98.7441 224.357 98.8789 224.096 98.9883C223.834 99.0977 223.518 99.1523 223.146 99.1523ZM223.328 98.2207C223.719 98.2207 224.049 98.1445 224.318 97.9922C224.588 97.8398 224.793 97.6426 224.934 97.4004C225.074 97.1543 225.145 96.8984 225.145 96.6328V95.7246C225.102 95.7754 225.008 95.8223 224.863 95.8652C224.719 95.9043 224.553 95.9395 224.365 95.9707C224.182 96.002 224.002 96.0293 223.826 96.0527C223.654 96.0723 223.518 96.0879 223.416 96.0996C223.162 96.1309 222.924 96.1855 222.701 96.2637C222.482 96.3379 222.307 96.4492 222.174 96.5977C222.041 96.7422 221.975 96.9395 221.975 97.1895C221.975 97.416 222.033 97.6055 222.15 97.7578C222.268 97.9102 222.428 98.0254 222.631 98.1035C222.834 98.1816 223.066 98.2207 223.328 98.2207ZM228.051 99V92.4492H229.07V93.457H229.141C229.262 93.125 229.477 92.8594 229.785 92.6602C230.098 92.457 230.449 92.3555 230.84 92.3555C230.918 92.3555 231.01 92.3574 231.115 92.3613C231.225 92.3652 231.311 92.3691 231.373 92.373V93.4336C231.342 93.4258 231.264 93.4141 231.139 93.3984C231.014 93.3828 230.881 93.375 230.74 93.375C230.428 93.375 230.146 93.4414 229.896 93.5742C229.65 93.7031 229.457 93.8828 229.316 94.1133C229.176 94.3398 229.105 94.6016 229.105 94.8984V99H228.051ZM235.041 99.1406C234.447 99.1406 233.926 99 233.477 98.7188C233.031 98.4375 232.684 98.043 232.434 97.5352C232.184 97.0273 232.059 96.4375 232.059 95.7656C232.059 95.082 232.184 94.4863 232.434 93.9785C232.684 93.4668 233.031 93.0703 233.477 92.7891C233.926 92.5078 234.447 92.3672 235.041 92.3672C235.357 92.3672 235.656 92.4082 235.938 92.4902C236.219 92.5723 236.475 92.6914 236.705 92.8477C236.939 93 237.141 93.1895 237.309 93.416C237.477 93.6387 237.605 93.8926 237.695 94.1777L236.682 94.4648C236.635 94.2969 236.562 94.1426 236.465 94.002C236.367 93.8613 236.248 93.7402 236.107 93.6387C235.971 93.5332 235.812 93.4531 235.633 93.3984C235.453 93.3398 235.256 93.3105 235.041 93.3105C234.604 93.3105 234.244 93.4258 233.963 93.6562C233.682 93.8828 233.473 94.1816 233.336 94.5527C233.199 94.9238 233.131 95.3281 233.131 95.7656C233.131 96.1953 233.199 96.5957 233.336 96.9668C233.473 97.334 233.682 97.6309 233.963 97.8574C234.244 98.084 234.604 98.1973 235.041 98.1973C235.26 98.1973 235.461 98.168 235.645 98.1094C235.828 98.0508 235.99 97.9688 236.131 97.8633C236.275 97.7539 236.396 97.625 236.494 97.4766C236.592 97.3281 236.664 97.166 236.711 96.9902L237.719 97.2773C237.633 97.5703 237.504 97.832 237.332 98.0625C237.164 98.2891 236.963 98.4844 236.729 98.6484C236.494 98.8086 236.234 98.9297 235.949 99.0117C235.664 99.0977 235.361 99.1406 235.041 99.1406ZM240.285 95.0742V99H239.23V90.2695H240.285V94.0371H240.104C240.303 93.4316 240.586 93.002 240.953 92.748C241.324 92.4941 241.758 92.3672 242.254 92.3672C242.695 92.3672 243.082 92.459 243.414 92.6426C243.75 92.8223 244.01 93.0957 244.193 93.4629C244.381 93.8262 244.475 94.2852 244.475 94.8398V99H243.414V94.9277C243.414 94.4238 243.281 94.0293 243.016 93.7441C242.754 93.459 242.395 93.3164 241.938 93.3164C241.625 93.3164 241.344 93.3848 241.094 93.5215C240.844 93.6582 240.646 93.8574 240.502 94.1191C240.357 94.3809 240.285 94.6992 240.285 95.0742ZM246.332 99V92.4492H247.387V99H246.332ZM246.865 91.377C246.666 91.377 246.494 91.3086 246.35 91.1719C246.205 91.0352 246.133 90.8711 246.133 90.6797C246.133 90.4844 246.205 90.3203 246.35 90.1875C246.494 90.0508 246.666 89.9824 246.865 89.9824C247.068 89.9824 247.242 90.0508 247.387 90.1875C247.531 90.3203 247.604 90.4844 247.604 90.6797C247.604 90.8711 247.531 91.0352 247.387 91.1719C247.242 91.3086 247.068 91.377 246.865 91.377ZM250.293 95.0742V99H249.238V92.4492H250.252L250.258 94.0371H250.111C250.311 93.4316 250.594 93.002 250.961 92.748C251.332 92.4941 251.766 92.3672 252.262 92.3672C252.703 92.3672 253.09 92.459 253.422 92.6426C253.754 92.8223 254.012 93.0957 254.195 93.4629C254.383 93.8262 254.477 94.2852 254.477 94.8398V99H253.422V94.9277C253.422 94.4238 253.289 94.0293 253.023 93.7441C252.762 93.459 252.402 93.3164 251.945 93.3164C251.633 93.3164 251.352 93.3848 251.102 93.5215C250.852 93.6582 250.654 93.8574 250.51 94.1191C250.365 94.3809 250.293 94.6992 250.293 95.0742ZM258.982 101.59C258.498 101.59 258.078 101.527 257.723 101.402C257.371 101.281 257.078 101.119 256.844 100.916C256.609 100.713 256.424 100.492 256.287 100.254L257.143 99.7031C257.236 99.8281 257.352 99.9668 257.488 100.119C257.629 100.271 257.816 100.4 258.051 100.506C258.289 100.615 258.6 100.67 258.982 100.67C259.506 100.67 259.936 100.545 260.271 100.295C260.611 100.045 260.781 99.6504 260.781 99.1113V97.7988H260.682C260.607 97.9238 260.502 98.0723 260.365 98.2441C260.232 98.416 260.039 98.5684 259.785 98.7012C259.535 98.8301 259.199 98.8945 258.777 98.8945C258.254 98.8945 257.783 98.7715 257.365 98.5254C256.947 98.2754 256.617 97.9121 256.375 97.4355C256.133 96.959 256.012 96.3789 256.012 95.6953C256.012 95.0195 256.131 94.4336 256.369 93.9375C256.607 93.4375 256.936 93.0508 257.354 92.7773C257.775 92.5039 258.258 92.3672 258.801 92.3672C259.223 92.3672 259.559 92.4375 259.809 92.5781C260.062 92.7148 260.258 92.873 260.395 93.0527C260.531 93.2324 260.637 93.3809 260.711 93.498H260.811V92.4492H261.836V99.1699C261.836 99.7324 261.709 100.191 261.455 100.547C261.201 100.906 260.857 101.17 260.424 101.338C259.994 101.506 259.514 101.59 258.982 101.59ZM258.953 97.957C259.352 97.957 259.688 97.8672 259.961 97.6875C260.234 97.5039 260.441 97.2422 260.582 96.9023C260.723 96.5586 260.793 96.1484 260.793 95.6719C260.793 95.207 260.723 94.7988 260.582 94.4473C260.445 94.0918 260.24 93.8145 259.967 93.6152C259.693 93.4121 259.355 93.3105 258.953 93.3105C258.539 93.3105 258.193 93.418 257.916 93.6328C257.639 93.8438 257.43 94.127 257.289 94.4824C257.152 94.8379 257.084 95.2344 257.084 95.6719C257.084 96.1211 257.154 96.5176 257.295 96.8613C257.436 97.2051 257.645 97.4746 257.922 97.6699C258.199 97.8613 258.543 97.957 258.953 97.957ZM267.062 99V92.4492H268.117V99H267.062ZM267.596 91.377C267.396 91.377 267.225 91.3086 267.08 91.1719C266.936 91.0352 266.863 90.8711 266.863 90.6797C266.863 90.4844 266.936 90.3203 267.08 90.1875C267.225 90.0508 267.396 89.9824 267.596 89.9824C267.799 89.9824 267.973 90.0508 268.117 90.1875C268.262 90.3203 268.334 90.4844 268.334 90.6797C268.334 90.8711 268.262 91.0352 268.117 91.1719C267.973 91.3086 267.799 91.377 267.596 91.377ZM272.547 92.4492V93.3516H269.16V92.4492H272.547ZM270.145 90.8906H271.199V97.3008C271.199 97.5938 271.258 97.8086 271.375 97.9453C271.496 98.0781 271.695 98.1445 271.973 98.1445C272.039 98.1445 272.123 98.1367 272.225 98.1211C272.33 98.1055 272.426 98.0898 272.512 98.0742L272.729 98.9648C272.619 99.0039 272.494 99.0332 272.354 99.0527C272.217 99.0723 272.08 99.082 271.943 99.082C271.377 99.082 270.936 98.9336 270.619 98.6367C270.303 98.3359 270.145 97.918 270.145 97.3828V90.8906ZM280.311 99.1406C279.896 99.1406 279.562 99.0703 279.309 98.9297C279.055 98.7852 278.859 98.623 278.723 98.4434C278.586 98.2598 278.48 98.1074 278.406 97.9863H278.289V99H277.27V90.2695H278.324V93.498H278.406C278.48 93.3809 278.584 93.2344 278.717 93.0586C278.85 92.8789 279.041 92.7188 279.291 92.5781C279.541 92.4375 279.879 92.3672 280.305 92.3672C280.852 92.3672 281.332 92.5039 281.746 92.7773C282.164 93.0508 282.49 93.4414 282.725 93.9492C282.963 94.4531 283.082 95.0508 283.082 95.7422C283.082 96.4375 282.965 97.0391 282.73 97.5469C282.496 98.0547 282.17 98.4473 281.752 98.7246C281.338 99.002 280.857 99.1406 280.311 99.1406ZM280.152 98.1973C280.562 98.1973 280.904 98.0879 281.178 97.8691C281.455 97.6465 281.662 97.3496 281.799 96.9785C281.939 96.6035 282.01 96.1875 282.01 95.7305C282.01 95.2773 281.941 94.8691 281.805 94.5059C281.668 94.1387 281.461 93.8477 281.184 93.6328C280.91 93.418 280.566 93.3105 280.152 93.3105C279.75 93.3105 279.412 93.4121 279.139 93.6152C278.865 93.8184 278.658 94.1016 278.518 94.4648C278.381 94.8242 278.312 95.2461 278.312 95.7305C278.312 96.2148 278.383 96.6426 278.523 97.0137C278.664 97.3848 278.871 97.6758 279.145 97.8867C279.422 98.0938 279.758 98.1973 280.152 98.1973ZM287.371 99.1406C286.738 99.1406 286.191 99 285.73 98.7188C285.273 98.4375 284.92 98.0449 284.67 97.541C284.424 97.0371 284.301 96.4492 284.301 95.7773C284.301 95.1055 284.422 94.5137 284.664 94.002C284.906 93.4902 285.248 93.0898 285.689 92.8008C286.135 92.5117 286.654 92.3672 287.248 92.3672C287.596 92.3672 287.938 92.4258 288.273 92.543C288.613 92.6562 288.92 92.8418 289.193 93.0996C289.471 93.3535 289.691 93.6895 289.855 94.1074C290.02 94.5254 290.102 95.0371 290.102 95.6426V96.082H285.016V95.1914H289.533L289.041 95.5195C289.041 95.0898 288.973 94.709 288.836 94.377C288.703 94.041 288.504 93.7793 288.238 93.5918C287.973 93.4004 287.643 93.3047 287.248 93.3047C286.854 93.3047 286.516 93.4023 286.234 93.5977C285.953 93.7891 285.738 94.041 285.59 94.3535C285.441 94.6621 285.367 94.9941 285.367 95.3496V95.9414C285.367 96.4258 285.451 96.8379 285.619 97.1777C285.787 97.5137 286.021 97.7695 286.322 97.9453C286.627 98.1172 286.979 98.2031 287.377 98.2031C287.635 98.2031 287.869 98.166 288.08 98.0918C288.291 98.0176 288.473 97.9062 288.625 97.7578C288.777 97.6055 288.895 97.418 288.977 97.1953L289.996 97.4766C289.895 97.8047 289.723 98.0938 289.48 98.3438C289.238 98.5938 288.938 98.7891 288.578 98.9297C288.223 99.0703 287.82 99.1406 287.371 99.1406ZM292.668 90.2695V99H291.613V90.2695H292.668ZM297.186 99.1406C296.592 99.1406 296.07 99 295.621 98.7188C295.176 98.4375 294.828 98.043 294.578 97.5352C294.328 97.0273 294.203 96.4375 294.203 95.7656C294.203 95.082 294.328 94.4863 294.578 93.9785C294.828 93.4668 295.176 93.0703 295.621 92.7891C296.07 92.5078 296.592 92.3672 297.186 92.3672C297.783 92.3672 298.307 92.5078 298.756 92.7891C299.205 93.0703 299.555 93.4668 299.805 93.9785C300.055 94.4863 300.18 95.082 300.18 95.7656C300.18 96.4375 300.055 97.0273 299.805 97.5352C299.555 98.043 299.205 98.4375 298.756 98.7188C298.307 99 297.783 99.1406 297.186 99.1406ZM297.186 98.1973C297.627 98.1973 297.99 98.084 298.275 97.8574C298.561 97.6309 298.771 97.334 298.908 96.9668C299.045 96.5957 299.113 96.1953 299.113 95.7656C299.113 95.332 299.045 94.9297 298.908 94.5586C298.771 94.1836 298.561 93.8828 298.275 93.6562C297.99 93.4258 297.627 93.3105 297.186 93.3105C296.748 93.3105 296.389 93.4258 296.107 93.6562C295.826 93.8828 295.617 94.1816 295.48 94.5527C295.344 94.9238 295.275 95.3281 295.275 95.7656C295.275 96.1953 295.344 96.5957 295.48 96.9668C295.617 97.334 295.826 97.6309 296.107 97.8574C296.389 98.084 296.748 98.1973 297.186 98.1973ZM302.963 99L300.977 92.4492H302.096L302.893 95.3086C303.002 95.6992 303.119 96.1426 303.244 96.6387C303.369 97.1309 303.492 97.6895 303.613 98.3145H303.432C303.549 97.7168 303.668 97.1699 303.789 96.6738C303.91 96.1777 304.027 95.7227 304.141 95.3086L304.926 92.4492H306.051L306.824 95.3086C306.934 95.7109 307.047 96.1602 307.164 96.6562C307.285 97.1484 307.404 97.7012 307.521 98.3145H307.334C307.459 97.709 307.582 97.1602 307.703 96.668C307.828 96.1719 307.947 95.7188 308.061 95.3086L308.857 92.4492H309.977L307.99 99H306.941L306.092 96.0352C306.006 95.7344 305.922 95.4277 305.84 95.1152C305.758 94.8027 305.678 94.4824 305.6 94.1543C305.521 93.8262 305.441 93.4922 305.359 93.1523H305.594C305.516 93.4883 305.436 93.8223 305.354 94.1543C305.275 94.4824 305.195 94.8047 305.113 95.1211C305.031 95.4375 304.947 95.7422 304.861 96.0352L304.012 99H302.963Z" fill="#2C324C"/>
            <g filter="url(#filter1_d_6595_42861)">
                <g clip-path="url(#clip1_6595_42861)">
                    <rect x="55" y="120" width="285" height="38" rx="4" fill="white"/>
                    <mask id="path-6-inside-1_6595_42861" fill="white">
                        <path d="M55 121C55 120.448 55.4477 120 56 120H94C94.5523 120 95 120.448 95 121V157C95 157.552 94.5523 158 94 158H56C55.4477 158 55 157.552 55 157V121Z"/>
                    </mask>
                    <path d="M55 120H95H55ZM95 158H55H95ZM55 158V120V158ZM94 120C95.1046 120 96 120.895 96 122V156C96 157.105 95.1046 158 94 158C94 158 94 157.552 94 157V121C94 120.448 94 120 94 120Z" fill="#E6E6EB" mask="url(#path-6-inside-1_6595_42861)"/>
                    <path d="M79.6667 134.333V143.667H70.3333V134.333H79.6667ZM81 133H69V145H81V133ZM78.3333 142.333H71.6667V141.667H78.3333V142.333ZM78.3333 141H71.6667V140.333H78.3333V141ZM78.3333 139H71.6667V135.667H78.3333V139Z" fill="#434960"/>
                    <path d="M115.491 144.232C113.331 144.232 111.937 143.098 111.793 141.491L111.786 141.416H113.017L113.023 141.491C113.112 142.476 114.138 143.098 115.56 143.098C116.899 143.098 117.877 142.407 117.877 141.402V141.396C117.877 140.575 117.31 140.015 115.956 139.714L114.862 139.475C112.887 139.037 112.032 138.128 112.032 136.699V136.692C112.039 135.059 113.468 133.903 115.505 133.903C117.474 133.903 118.848 135.065 118.95 136.535L118.957 136.631H117.727L117.713 136.542C117.576 135.674 116.756 135.031 115.471 135.038C114.24 135.045 113.29 135.626 113.29 136.658V136.665C113.29 137.451 113.83 137.984 115.17 138.278L116.264 138.524C118.321 138.982 119.135 139.81 119.135 141.231V141.238C119.135 143.084 117.692 144.232 115.491 144.232ZM124.043 144.13C121.938 144.13 120.666 142.653 120.666 140.343V140.336C120.666 138.06 121.965 136.501 123.968 136.501C125.971 136.501 127.188 137.991 127.188 140.192V140.657H121.883C121.917 142.182 122.758 143.07 124.07 143.07C125.068 143.07 125.684 142.599 125.882 142.154L125.909 142.093H127.099L127.085 142.147C126.832 143.146 125.779 144.13 124.043 144.13ZM123.961 137.561C122.867 137.561 122.033 138.306 121.903 139.707H125.978C125.854 138.251 125.048 137.561 123.961 137.561ZM131.057 144.13C129.655 144.13 128.596 143.282 128.596 141.942V141.929C128.596 140.616 129.566 139.857 131.282 139.755L133.395 139.625V138.955C133.395 138.046 132.841 137.554 131.74 137.554C130.858 137.554 130.277 137.882 130.086 138.456L130.079 138.477H128.89L128.896 138.436C129.088 137.28 130.209 136.501 131.781 136.501C133.579 136.501 134.584 137.424 134.584 138.955V144H133.395V142.913H133.285C132.82 143.699 132.048 144.13 131.057 144.13ZM129.812 141.915C129.812 142.66 130.448 143.098 131.303 143.098C132.513 143.098 133.395 142.305 133.395 141.252V140.582L131.426 140.705C130.305 140.773 129.812 141.17 129.812 141.901V141.915ZM136.758 144V136.631H137.947V137.725H138.057C138.337 136.952 139.027 136.501 140.025 136.501C140.251 136.501 140.504 136.528 140.62 136.549V137.704C140.374 137.663 140.148 137.636 139.889 137.636C138.754 137.636 137.947 138.354 137.947 139.434V144H136.758ZM144.899 144.13C142.835 144.13 141.516 142.633 141.516 140.295V140.281C141.516 137.991 142.828 136.501 144.893 136.501C146.684 136.501 147.757 137.533 147.976 138.846L147.982 138.887H146.8L146.793 138.866C146.608 138.142 145.952 137.554 144.893 137.554C143.566 137.554 142.732 138.62 142.732 140.281V140.295C142.732 141.99 143.58 143.077 144.893 143.077C145.884 143.077 146.513 142.64 146.786 141.819L146.8 141.778L147.976 141.771L147.962 141.847C147.661 143.18 146.67 144.13 144.899 144.13ZM149.787 144V133.705H150.977V137.738H151.086C151.455 136.959 152.146 136.501 153.232 136.501C154.887 136.501 155.81 137.479 155.81 139.229V144H154.62V139.516C154.62 138.189 154.073 137.554 152.897 137.554C151.722 137.554 150.977 138.347 150.977 139.639V144H149.787ZM162.393 144V137.615H161.169V136.631H162.393V135.811C162.393 134.341 163.131 133.637 164.532 133.637C164.819 133.637 165.079 133.657 165.325 133.705V134.655C165.182 134.628 164.983 134.621 164.771 134.621C163.924 134.621 163.582 135.038 163.582 135.845V136.631H165.257V137.615H163.582V144H162.393ZM169.687 144.13C167.588 144.13 166.289 142.681 166.289 140.322V140.309C166.289 137.943 167.588 136.501 169.687 136.501C171.785 136.501 173.084 137.943 173.084 140.309V140.322C173.084 142.681 171.785 144.13 169.687 144.13ZM169.687 143.077C171.081 143.077 171.867 142.059 171.867 140.322V140.309C171.867 138.565 171.081 137.554 169.687 137.554C168.292 137.554 167.506 138.565 167.506 140.309V140.322C167.506 142.059 168.292 143.077 169.687 143.077ZM174.93 144V136.631H176.119V137.725H176.229C176.509 136.952 177.199 136.501 178.197 136.501C178.423 136.501 178.676 136.528 178.792 136.549V137.704C178.546 137.663 178.32 137.636 178.061 137.636C176.926 137.636 176.119 138.354 176.119 139.434V144H174.93ZM186.223 144.13C184.821 144.13 183.762 143.282 183.762 141.942V141.929C183.762 140.616 184.732 139.857 186.448 139.755L188.561 139.625V138.955C188.561 138.046 188.007 137.554 186.906 137.554C186.024 137.554 185.443 137.882 185.252 138.456L185.245 138.477H184.056L184.062 138.436C184.254 137.28 185.375 136.501 186.947 136.501C188.745 136.501 189.75 137.424 189.75 138.955V144H188.561V142.913H188.451C187.986 143.699 187.214 144.13 186.223 144.13ZM184.979 141.915C184.979 142.66 185.614 143.098 186.469 143.098C187.679 143.098 188.561 142.305 188.561 141.252V140.582L186.592 140.705C185.471 140.773 184.979 141.17 184.979 141.901V141.915ZM195.861 146.461V136.631H197.051V137.807H197.16C197.611 136.986 198.432 136.501 199.457 136.501C201.323 136.501 202.547 138.012 202.547 140.309V140.322C202.547 142.633 201.33 144.13 199.457 144.13C198.445 144.13 197.563 143.624 197.16 142.838H197.051V146.461H195.861ZM199.184 143.077C200.53 143.077 201.33 142.038 201.33 140.322V140.309C201.33 138.593 200.53 137.554 199.184 137.554C197.844 137.554 197.023 138.606 197.023 140.309V140.322C197.023 142.024 197.844 143.077 199.184 143.077ZM207.435 144.13C205.336 144.13 204.037 142.681 204.037 140.322V140.309C204.037 137.943 205.336 136.501 207.435 136.501C209.533 136.501 210.832 137.943 210.832 140.309V140.322C210.832 142.681 209.533 144.13 207.435 144.13ZM207.435 143.077C208.829 143.077 209.615 142.059 209.615 140.322V140.309C209.615 138.565 208.829 137.554 207.435 137.554C206.04 137.554 205.254 138.565 205.254 140.309V140.322C205.254 142.059 206.04 143.077 207.435 143.077ZM215.207 144.13C213.566 144.13 212.438 143.337 212.302 142.12H213.519C213.717 142.735 214.305 143.139 215.248 143.139C216.239 143.139 216.943 142.667 216.943 141.997V141.983C216.943 141.484 216.567 141.136 215.658 140.917L214.517 140.644C213.136 140.315 212.514 139.714 212.514 138.654V138.647C212.514 137.424 213.689 136.501 215.255 136.501C216.8 136.501 217.873 137.273 218.037 138.477H216.868C216.711 137.896 216.137 137.492 215.248 137.492C214.373 137.492 213.73 137.943 213.73 138.593V138.606C213.73 139.105 214.1 139.42 214.968 139.632L216.103 139.905C217.49 140.24 218.16 140.842 218.16 141.895V141.908C218.16 143.221 216.882 144.13 215.207 144.13ZM222.556 144.055C221.038 144.055 220.402 143.494 220.402 142.086V137.615H219.24V136.631H220.402V134.724H221.633V136.631H223.246V137.615H221.633V141.785C221.633 142.653 221.934 143.002 222.699 143.002C222.911 143.002 223.027 142.995 223.246 142.975V143.986C223.014 144.027 222.788 144.055 222.556 144.055Z" fill="#696D80"/>
                </g>
                <rect x="55.5" y="120.5" width="284" height="37" rx="3.5" stroke="#E6E6EB"/>
            </g>
            <g filter="url(#filter2_ddi_6595_42861)">
                <rect x="242" y="174" width="50" height="31" rx="4" fill="#F9F9FA"/>
                <rect x="242.5" y="174.5" width="49" height="30" rx="3.5" stroke="#E6E6EB"/>
                <path d="M251.043 194V185.545H254.459C256.275 185.545 257.365 186.559 257.365 188.17V188.182C257.365 189.301 256.773 190.227 255.771 190.59L257.617 194H255.889L254.23 190.818H252.555V194H251.043ZM252.555 189.658H254.301C255.256 189.658 255.812 189.125 255.812 188.217V188.205C255.812 187.32 255.232 186.77 254.271 186.77H252.555V189.658ZM261.59 194.129C259.686 194.129 258.531 192.852 258.531 190.812V190.807C258.531 188.791 259.697 187.473 261.52 187.473C263.342 187.473 264.467 188.75 264.467 190.684V191.164H259.99C260.008 192.312 260.629 192.98 261.619 192.98C262.41 192.98 262.861 192.582 263.002 192.289L263.02 192.248H264.408L264.391 192.301C264.186 193.127 263.33 194.129 261.59 194.129ZM261.537 188.615C260.723 188.615 260.113 189.166 260.002 190.186H263.043C262.943 189.137 262.352 188.615 261.537 188.615ZM268.346 194.129C266.717 194.129 265.732 193.379 265.609 192.295V192.283H267.057L267.062 192.295C267.215 192.74 267.643 193.051 268.369 193.051C269.096 193.051 269.6 192.723 269.6 192.242V192.23C269.6 191.855 269.318 191.609 268.615 191.451L267.578 191.217C266.359 190.947 265.779 190.373 265.779 189.43V189.424C265.779 188.27 266.834 187.473 268.346 187.473C269.904 187.473 270.836 188.246 270.93 189.283V189.295H269.559L269.553 189.277C269.447 188.873 269.025 188.545 268.34 188.545C267.689 188.545 267.221 188.861 267.221 189.342V189.348C267.221 189.723 267.49 189.951 268.182 190.109L269.219 190.338C270.473 190.619 271.064 191.152 271.064 192.084V192.096C271.064 193.314 269.922 194.129 268.346 194.129ZM275.277 194.129C273.373 194.129 272.219 192.852 272.219 190.812V190.807C272.219 188.791 273.385 187.473 275.207 187.473C277.029 187.473 278.154 188.75 278.154 190.684V191.164H273.678C273.695 192.312 274.316 192.98 275.307 192.98C276.098 192.98 276.549 192.582 276.689 192.289L276.707 192.248H278.096L278.078 192.301C277.873 193.127 277.018 194.129 275.277 194.129ZM275.225 188.615C274.41 188.615 273.801 189.166 273.689 190.186H276.73C276.631 189.137 276.039 188.615 275.225 188.615ZM282.133 194.029C280.662 194.029 280.059 193.537 280.059 192.301V188.727H279.062V187.596H280.059V186.025H281.541V187.596H282.895V188.727H281.541V191.955C281.541 192.594 281.793 192.863 282.402 192.863C282.607 192.863 282.719 192.857 282.895 192.84V193.965C282.684 194.006 282.414 194.029 282.133 194.029Z" fill="#141B38"/>
            </g>
            <g filter="url(#filter3_ddi_6595_42861)">
                <rect x="297" y="174" width="51" height="31" rx="4" fill="#0068A0"/>
                <path d="M305.416 194L308.416 185.545H310.121L313.121 194H311.539L310.83 191.814H307.701L306.998 194H305.416ZM309.219 187.115L308.082 190.648H310.455L309.318 187.115H309.219ZM314.422 196.127V187.596H315.881V188.598H315.98C316.332 187.9 317.029 187.49 317.926 187.49C319.531 187.49 320.557 188.768 320.557 190.795V190.807C320.557 192.846 319.549 194.105 317.926 194.105C317.047 194.105 316.314 193.672 315.98 192.98H315.881V196.127H314.422ZM317.469 192.875C318.465 192.875 319.068 192.09 319.068 190.807V190.795C319.068 189.506 318.465 188.721 317.469 188.721C316.479 188.721 315.863 189.506 315.863 190.789V190.801C315.863 192.084 316.479 192.875 317.469 192.875ZM322.027 196.127V187.596H323.486V188.598H323.586C323.938 187.9 324.635 187.49 325.531 187.49C327.137 187.49 328.162 188.768 328.162 190.795V190.807C328.162 192.846 327.154 194.105 325.531 194.105C324.652 194.105 323.92 193.672 323.586 192.98H323.486V196.127H322.027ZM325.074 192.875C326.07 192.875 326.674 192.09 326.674 190.807V190.795C326.674 189.506 326.07 188.721 325.074 188.721C324.084 188.721 323.469 189.506 323.469 190.789V190.801C323.469 192.084 324.084 192.875 325.074 192.875ZM329.691 194V185.117H331.15V194H329.691ZM333.682 196.25C333.506 196.25 333.301 196.244 333.125 196.227V195.107C333.242 195.119 333.406 195.125 333.559 195.125C334.156 195.125 334.514 194.879 334.672 194.299L334.748 194.006L332.457 187.596H334.051L335.545 192.6H335.656L337.145 187.596H338.68L336.383 194.135C335.832 195.74 335.1 196.25 333.682 196.25Z" fill="white"/>
            </g>
        </g>
    </g>
    <defs>
        <filter id="filter0_ddddd_6595_42861" x="-46.2886" y="0.449097" width="487.577" height="320.577" filterUnits="userSpaceOnUse" color-interpolation-filters="sRGB">
            <feFlood flood-opacity="0" result="BackgroundImageFix"/>
            <feColorMatrix in="SourceAlpha" type="matrix" values="0 0 0 0 0 0 0 0 0 0 0 0 0 0 0 0 0 0 127 0" result="hardAlpha"/>
            <feOffset dy="1.77104"/>
            <feGaussianBlur stdDeviation="2.55971"/>
            <feColorMatrix type="matrix" values="0 0 0 0 0 0 0 0 0 0 0 0 0 0 0 0 0 0 0.0421718 0"/>
            <feBlend mode="normal" in2="BackgroundImageFix" result="effect1_dropShadow_6595_42861"/>
            <feColorMatrix in="SourceAlpha" type="matrix" values="0 0 0 0 0 0 0 0 0 0 0 0 0 0 0 0 0 0 127 0" result="hardAlpha"/>
            <feOffset dy="4.25607"/>
            <feGaussianBlur stdDeviation="6.15134"/>
            <feColorMatrix type="matrix" values="0 0 0 0 0 0 0 0 0 0 0 0 0 0 0 0 0 0 0.0605839 0"/>
            <feBlend mode="normal" in2="effect1_dropShadow_6595_42861" result="effect2_dropShadow_6595_42861"/>
            <feColorMatrix in="SourceAlpha" type="matrix" values="0 0 0 0 0 0 0 0 0 0 0 0 0 0 0 0 0 0 127 0" result="hardAlpha"/>
            <feOffset dy="8.01379"/>
            <feGaussianBlur stdDeviation="11.5824"/>
            <feColorMatrix type="matrix" values="0 0 0 0 0 0 0 0 0 0 0 0 0 0 0 0 0 0 0.075 0"/>
            <feBlend mode="normal" in2="effect2_dropShadow_6595_42861" result="effect3_dropShadow_6595_42861"/>
            <feColorMatrix in="SourceAlpha" type="matrix" values="0 0 0 0 0 0 0 0 0 0 0 0 0 0 0 0 0 0 127 0" result="hardAlpha"/>
            <feOffset dy="14.2952"/>
            <feGaussianBlur stdDeviation="20.6611"/>
            <feColorMatrix type="matrix" values="0 0 0 0 0 0 0 0 0 0 0 0 0 0 0 0 0 0 0.0894161 0"/>
            <feBlend mode="normal" in2="effect3_dropShadow_6595_42861" result="effect4_dropShadow_6595_42861"/>
            <feColorMatrix in="SourceAlpha" type="matrix" values="0 0 0 0 0 0 0 0 0 0 0 0 0 0 0 0 0 0 127 0" result="hardAlpha"/>
            <feOffset dy="26.7377"/>
            <feGaussianBlur stdDeviation="38.6443"/>
            <feColorMatrix type="matrix" values="0 0 0 0 0 0 0 0 0 0 0 0 0 0 0 0 0 0 0.107828 0"/>
            <feBlend mode="normal" in2="effect4_dropShadow_6595_42861" result="effect5_dropShadow_6595_42861"/>
            <feBlend mode="normal" in="SourceGraphic" in2="effect5_dropShadow_6595_42861" result="shape"/>
        </filter>
        <filter id="filter1_d_6595_42861" x="54" y="120" width="287" height="40" filterUnits="userSpaceOnUse" color-interpolation-filters="sRGB">
            <feFlood flood-opacity="0" result="BackgroundImageFix"/>
            <feColorMatrix in="SourceAlpha" type="matrix" values="0 0 0 0 0 0 0 0 0 0 0 0 0 0 0 0 0 0 127 0" result="hardAlpha"/>
            <feOffset dy="1"/>
            <feGaussianBlur stdDeviation="0.5"/>
            <feComposite in2="hardAlpha" operator="out"/>
            <feColorMatrix type="matrix" values="0 0 0 0 0 0 0 0 0 0 0 0 0 0 0 0 0 0 0.04 0"/>
            <feBlend mode="normal" in2="BackgroundImageFix" result="effect1_dropShadow_6595_42861"/>
            <feBlend mode="normal" in="SourceGraphic" in2="effect1_dropShadow_6595_42861" result="shape"/>
        </filter>
        <filter id="filter2_ddi_6595_42861" x="237" y="171" width="60" height="41" filterUnits="userSpaceOnUse" color-interpolation-filters="sRGB">
            <feFlood flood-opacity="0" result="BackgroundImageFix"/>
            <feColorMatrix in="SourceAlpha" type="matrix" values="0 0 0 0 0 0 0 0 0 0 0 0 0 0 0 0 0 0 127 0" result="hardAlpha"/>
            <feOffset dy="1"/>
            <feGaussianBlur stdDeviation="0.5"/>
            <feColorMatrix type="matrix" values="0 0 0 0 0 0 0 0 0 0 0 0 0 0 0 0 0 0 0.05 0"/>
            <feBlend mode="normal" in2="BackgroundImageFix" result="effect1_dropShadow_6595_42861"/>
            <feColorMatrix in="SourceAlpha" type="matrix" values="0 0 0 0 0 0 0 0 0 0 0 0 0 0 0 0 0 0 127 0" result="hardAlpha"/>
            <feOffset dy="2"/>
            <feGaussianBlur stdDeviation="2.5"/>
            <feColorMatrix type="matrix" values="0 0 0 0 0.235294 0 0 0 0 0.258824 0 0 0 0 0.341176 0 0 0 0.05 0"/>
            <feBlend mode="normal" in2="effect1_dropShadow_6595_42861" result="effect2_dropShadow_6595_42861"/>
            <feBlend mode="normal" in="SourceGraphic" in2="effect2_dropShadow_6595_42861" result="shape"/>
            <feColorMatrix in="SourceAlpha" type="matrix" values="0 0 0 0 0 0 0 0 0 0 0 0 0 0 0 0 0 0 127 0" result="hardAlpha"/>
            <feOffset dy="-1"/>
            <feGaussianBlur stdDeviation="0.5"/>
            <feComposite in2="hardAlpha" operator="arithmetic" k2="-1" k3="1"/>
            <feColorMatrix type="matrix" values="0 0 0 0 0 0 0 0 0 0 0 0 0 0 0 0 0 0 0.12 0"/>
            <feBlend mode="normal" in2="shape" result="effect3_innerShadow_6595_42861"/>
        </filter>
        <filter id="filter3_ddi_6595_42861" x="292" y="171" width="61" height="41" filterUnits="userSpaceOnUse" color-interpolation-filters="sRGB">
            <feFlood flood-opacity="0" result="BackgroundImageFix"/>
            <feColorMatrix in="SourceAlpha" type="matrix" values="0 0 0 0 0 0 0 0 0 0 0 0 0 0 0 0 0 0 127 0" result="hardAlpha"/>
            <feOffset dy="1"/>
            <feGaussianBlur stdDeviation="0.5"/>
            <feColorMatrix type="matrix" values="0 0 0 0 0 0 0 0 0 0 0 0 0 0 0 0 0 0 0.08 0"/>
            <feBlend mode="normal" in2="BackgroundImageFix" result="effect1_dropShadow_6595_42861"/>
            <feColorMatrix in="SourceAlpha" type="matrix" values="0 0 0 0 0 0 0 0 0 0 0 0 0 0 0 0 0 0 127 0" result="hardAlpha"/>
            <feOffset dy="2"/>
            <feGaussianBlur stdDeviation="2.5"/>
            <feColorMatrix type="matrix" values="0 0 0 0 0.235294 0 0 0 0 0.258824 0 0 0 0 0.341176 0 0 0 0.12 0"/>
            <feBlend mode="normal" in2="effect1_dropShadow_6595_42861" result="effect2_dropShadow_6595_42861"/>
            <feBlend mode="normal" in="SourceGraphic" in2="effect2_dropShadow_6595_42861" result="shape"/>
            <feColorMatrix in="SourceAlpha" type="matrix" values="0 0 0 0 0 0 0 0 0 0 0 0 0 0 0 0 0 0 127 0" result="hardAlpha"/>
            <feOffset dy="-1"/>
            <feGaussianBlur stdDeviation="0.5"/>
            <feComposite in2="hardAlpha" operator="arithmetic" k2="-1" k3="1"/>
            <feColorMatrix type="matrix" values="0 0 0 0 0 0 0 0 0 0 0 0 0 0 0 0 0 0 0.12 0"/>
            <feBlend mode="normal" in2="shape" result="effect3_innerShadow_6595_42861"/>
        </filter>
        <clipPath id="clip0_6595_42861">
            <rect x="31" y="51" width="333" height="166" rx="6" fill="white"/>
        </clipPath>
        <clipPath id="clip1_6595_42861">
            <rect x="55" y="120" width="285" height="38" rx="4" fill="white"/>
        </clipPath>
    </defs>
</svg>
