<svg width="219" height="180" viewBox="0 0 219 180" fill="none" xmlns="http://www.w3.org/2000/svg">
    <g filter="url(#filter0_ddddd_40_3925)">
        <rect x="112.527" y="49.4385" width="63.2393" height="63.2393" rx="31.6196" fill="url(#paint0_linear_40_3925)"/>
        <path d="M144.147 74.8871C140.713 74.8871 137.976 77.6776 137.976 81.0585C137.976 84.4931 140.713 87.23 144.147 87.23C147.528 87.23 150.319 84.4931 150.319 81.0585C150.319 77.6776 147.528 74.8871 144.147 74.8871ZM144.147 85.0834C141.947 85.0834 140.122 83.3125 140.122 81.0585C140.122 78.8583 141.893 77.0873 144.147 77.0873C146.348 77.0873 148.119 78.8583 148.119 81.0585C148.119 83.3125 146.348 85.0834 144.147 85.0834ZM151.982 74.6724C151.982 73.8675 151.338 73.2235 150.533 73.2235C149.728 73.2235 149.085 73.8675 149.085 74.6724C149.085 75.4774 149.728 76.1214 150.533 76.1214C151.338 76.1214 151.982 75.4774 151.982 74.6724ZM156.061 76.1214C155.954 74.1894 155.524 72.4722 154.129 71.0769C152.734 69.6816 151.016 69.2523 149.085 69.145C147.099 69.0376 141.142 69.0376 139.157 69.145C137.225 69.2523 135.561 69.6816 134.112 71.0769C132.717 72.4722 132.287 74.1894 132.18 76.1214C132.073 78.107 132.073 84.0638 132.18 86.0494C132.287 87.9813 132.717 89.6449 134.112 91.0938C135.561 92.4891 137.225 92.9184 139.157 93.0258C141.142 93.1331 147.099 93.1331 149.085 93.0258C151.016 92.9184 152.734 92.4891 154.129 91.0938C155.524 89.6449 155.954 87.9813 156.061 86.0494C156.168 84.0638 156.168 78.107 156.061 76.1214ZM153.485 88.1423C153.109 89.2156 152.251 90.0205 151.231 90.4499C149.621 91.0938 145.865 90.9328 144.147 90.9328C142.376 90.9328 138.62 91.0938 137.064 90.4499C135.99 90.0205 135.185 89.2156 134.756 88.1423C134.112 86.586 134.273 82.8295 134.273 81.0585C134.273 79.3413 134.112 75.5847 134.756 73.9748C135.185 72.9551 135.99 72.1502 137.064 71.7209C138.62 71.0769 142.376 71.2379 144.147 71.2379C145.865 71.2379 149.621 71.0769 151.231 71.7209C152.251 72.0965 153.056 72.9551 153.485 73.9748C154.129 75.5847 153.968 79.3413 153.968 81.0585C153.968 82.8295 154.129 86.586 153.485 88.1423Z" fill="url(#paint1_linear_40_3925)"/>
    </g>
    <g filter="url(#filter1_ddddd_40_3925)">
        <rect x="80.9434" y="19" width="63.2393" height="63.2393" rx="31.6196" fill="url(#paint2_linear_40_3925)"/>
        <path d="M112.564 39.2178C106.267 39.2178 101.115 44.3581 101.115 50.6892C101.115 56.4134 105.305 61.1645 110.778 62.0232V54.0092H107.87V50.6892H110.778V48.159C110.778 45.2855 112.484 43.7056 115.105 43.7056C116.353 43.7056 117.658 43.9231 117.658 43.9231V46.7509H116.216C114.796 46.7509 114.35 47.6324 114.35 48.5368V50.6892H117.532L117.017 54.0092H114.35V62.0232C117.047 61.5971 119.504 60.2206 121.276 58.1422C123.048 56.0638 124.018 53.4204 124.012 50.6892C124.012 44.3581 118.86 39.2178 112.564 39.2178V39.2178Z" fill="url(#paint3_linear_40_3925)"/>
    </g>
    <g filter="url(#filter2_ddddd_40_3925)">
        <rect x="43" y="47.2031" width="63.2393" height="63.2393" rx="31.6196" fill="url(#paint4_linear_40_3925)"/>
        <path d="M86.5948 71.9538C85.7132 72.3545 84.763 72.6178 83.7784 72.7437C84.7859 72.1369 85.5644 71.1753 85.9308 70.019C84.9805 70.5914 83.9273 70.9921 82.8168 71.2211C81.9123 70.2365 80.6416 69.6641 79.199 69.6641C76.5086 69.6641 74.3105 71.8622 74.3105 74.5755C74.3105 74.9647 74.3563 75.3425 74.4365 75.6974C70.3608 75.4913 66.7316 73.5337 64.316 70.5685C63.8924 71.2897 63.652 72.1369 63.652 73.0299C63.652 74.7357 64.5106 76.2469 65.8387 77.1056C65.0258 77.1056 64.2702 76.8766 63.6062 76.5332V76.5675C63.6062 78.9488 65.3006 80.9408 67.5445 81.3873C66.8241 81.5845 66.0677 81.6119 65.3349 81.4675C65.6459 82.4434 66.2549 83.2974 67.0763 83.9093C67.8977 84.5213 68.8902 84.8604 69.9143 84.8791C68.1783 86.2534 66.0264 86.9963 63.8123 86.9856C63.423 86.9856 63.0338 86.9627 62.6445 86.9169C64.8197 88.3136 67.4071 89.1265 70.1776 89.1265C79.199 89.1265 84.1562 81.6392 84.1562 75.1479C84.1562 74.9304 84.1562 74.7243 84.1448 74.5068C85.1065 73.8199 85.9307 72.9498 86.5948 71.9538Z" fill="url(#paint5_linear_40_3925)"/>
    </g>
    <rect x="79.7441" y="82.2207" width="63.2393" height="63.2393" rx="31.6196" fill="url(#paint6_linear_40_3925)"/>
    <path d="M102.091 113.84C102.091 111.883 103.683 110.291 105.64 110.291H110.22V108.116H105.64C104.122 108.116 102.666 108.719 101.593 109.793C100.519 110.866 99.916 112.322 99.916 113.84C99.916 115.359 100.519 116.815 101.593 117.888C102.666 118.962 104.122 119.565 105.64 119.565H110.22V117.389H105.64C103.683 117.389 102.091 115.798 102.091 113.84ZM106.785 114.985H115.944V112.696H106.785V114.985ZM117.089 108.116H112.509V110.291H117.089C119.046 110.291 120.638 111.883 120.638 113.84C120.638 115.798 119.046 117.389 117.089 117.389H112.509V119.565H117.089C118.607 119.565 120.063 118.962 121.136 117.888C122.21 116.815 122.813 115.359 122.813 113.84C122.813 112.322 122.21 110.866 121.136 109.793C120.063 108.719 118.607 108.116 117.089 108.116Z" fill="white"/>
    <defs>
        <filter id="filter0_ddddd_40_3925" x="69.6326" y="30.672" width="149.029" height="149.029" filterUnits="userSpaceOnUse" color-interpolation-filters="sRGB">
            <feFlood flood-opacity="0" result="BackgroundImageFix"/>
            <feColorMatrix in="SourceAlpha" type="matrix" values="0 0 0 0 0 0 0 0 0 0 0 0 0 0 0 0 0 0 127 0" result="hardAlpha"/>
            <feOffset dy="0.828782"/>
            <feGaussianBlur stdDeviation="0.736695"/>
            <feColorMatrix type="matrix" values="0 0 0 0 0.223529 0 0 0 0 0.380392 0 0 0 0 0.54902 0 0 0 0.07 0"/>
            <feBlend mode="normal" in2="BackgroundImageFix" result="effect1_dropShadow_40_3925"/>
            <feColorMatrix in="SourceAlpha" type="matrix" values="0 0 0 0 0 0 0 0 0 0 0 0 0 0 0 0 0 0 127 0" result="hardAlpha"/>
            <feOffset dy="2.09605"/>
            <feGaussianBlur stdDeviation="1.86316"/>
            <feColorMatrix type="matrix" values="0 0 0 0 0.223529 0 0 0 0 0.380392 0 0 0 0 0.54902 0 0 0 0.0482987 0"/>
            <feBlend mode="normal" in2="effect1_dropShadow_40_3925" result="effect2_dropShadow_40_3925"/>
            <feColorMatrix in="SourceAlpha" type="matrix" values="0 0 0 0 0 0 0 0 0 0 0 0 0 0 0 0 0 0 127 0" result="hardAlpha"/>
            <feOffset dy="4.27575"/>
            <feGaussianBlur stdDeviation="3.80067"/>
            <feColorMatrix type="matrix" values="0 0 0 0 0.223529 0 0 0 0 0.380392 0 0 0 0 0.54902 0 0 0 0.0389404 0"/>
            <feBlend mode="normal" in2="effect2_dropShadow_40_3925" result="effect3_dropShadow_40_3925"/>
            <feColorMatrix in="SourceAlpha" type="matrix" values="0 0 0 0 0 0 0 0 0 0 0 0 0 0 0 0 0 0 127 0" result="hardAlpha"/>
            <feOffset dy="8.80723"/>
            <feGaussianBlur stdDeviation="7.82865"/>
            <feColorMatrix type="matrix" values="0 0 0 0 0.223529 0 0 0 0 0.380392 0 0 0 0 0.54902 0 0 0 0.0310596 0"/>
            <feBlend mode="normal" in2="effect3_dropShadow_40_3925" result="effect4_dropShadow_40_3925"/>
            <feColorMatrix in="SourceAlpha" type="matrix" values="0 0 0 0 0 0 0 0 0 0 0 0 0 0 0 0 0 0 127 0" result="hardAlpha"/>
            <feOffset dy="24.1283"/>
            <feGaussianBlur stdDeviation="21.4474"/>
            <feColorMatrix type="matrix" values="0 0 0 0 0.223529 0 0 0 0 0.380392 0 0 0 0 0.54902 0 0 0 0.0217013 0"/>
            <feBlend mode="normal" in2="effect4_dropShadow_40_3925" result="effect5_dropShadow_40_3925"/>
            <feBlend mode="normal" in="SourceGraphic" in2="effect5_dropShadow_40_3925" result="shape"/>
        </filter>
        <filter id="filter1_ddddd_40_3925" x="38.0486" y="0.23353" width="149.029" height="149.029" filterUnits="userSpaceOnUse" color-interpolation-filters="sRGB">
            <feFlood flood-opacity="0" result="BackgroundImageFix"/>
            <feColorMatrix in="SourceAlpha" type="matrix" values="0 0 0 0 0 0 0 0 0 0 0 0 0 0 0 0 0 0 127 0" result="hardAlpha"/>
            <feOffset dy="0.828782"/>
            <feGaussianBlur stdDeviation="0.736695"/>
            <feColorMatrix type="matrix" values="0 0 0 0 0.223529 0 0 0 0 0.380392 0 0 0 0 0.54902 0 0 0 0.07 0"/>
            <feBlend mode="normal" in2="BackgroundImageFix" result="effect1_dropShadow_40_3925"/>
            <feColorMatrix in="SourceAlpha" type="matrix" values="0 0 0 0 0 0 0 0 0 0 0 0 0 0 0 0 0 0 127 0" result="hardAlpha"/>
            <feOffset dy="2.09605"/>
            <feGaussianBlur stdDeviation="1.86316"/>
            <feColorMatrix type="matrix" values="0 0 0 0 0.223529 0 0 0 0 0.380392 0 0 0 0 0.54902 0 0 0 0.0482987 0"/>
            <feBlend mode="normal" in2="effect1_dropShadow_40_3925" result="effect2_dropShadow_40_3925"/>
            <feColorMatrix in="SourceAlpha" type="matrix" values="0 0 0 0 0 0 0 0 0 0 0 0 0 0 0 0 0 0 127 0" result="hardAlpha"/>
            <feOffset dy="4.27575"/>
            <feGaussianBlur stdDeviation="3.80067"/>
            <feColorMatrix type="matrix" values="0 0 0 0 0.223529 0 0 0 0 0.380392 0 0 0 0 0.54902 0 0 0 0.0389404 0"/>
            <feBlend mode="normal" in2="effect2_dropShadow_40_3925" result="effect3_dropShadow_40_3925"/>
            <feColorMatrix in="SourceAlpha" type="matrix" values="0 0 0 0 0 0 0 0 0 0 0 0 0 0 0 0 0 0 127 0" result="hardAlpha"/>
            <feOffset dy="8.80723"/>
            <feGaussianBlur stdDeviation="7.82865"/>
            <feColorMatrix type="matrix" values="0 0 0 0 0.223529 0 0 0 0 0.380392 0 0 0 0 0.54902 0 0 0 0.0310596 0"/>
            <feBlend mode="normal" in2="effect3_dropShadow_40_3925" result="effect4_dropShadow_40_3925"/>
            <feColorMatrix in="SourceAlpha" type="matrix" values="0 0 0 0 0 0 0 0 0 0 0 0 0 0 0 0 0 0 127 0" result="hardAlpha"/>
            <feOffset dy="24.1283"/>
            <feGaussianBlur stdDeviation="21.4474"/>
            <feColorMatrix type="matrix" values="0 0 0 0 0.223529 0 0 0 0 0.380392 0 0 0 0 0.54902 0 0 0 0.0217013 0"/>
            <feBlend mode="normal" in2="effect4_dropShadow_40_3925" result="effect5_dropShadow_40_3925"/>
            <feBlend mode="normal" in="SourceGraphic" in2="effect5_dropShadow_40_3925" result="shape"/>
        </filter>
        <filter id="filter2_ddddd_40_3925" x="0.105209" y="28.4367" width="149.029" height="149.029" filterUnits="userSpaceOnUse" color-interpolation-filters="sRGB">
            <feFlood flood-opacity="0" result="BackgroundImageFix"/>
            <feColorMatrix in="SourceAlpha" type="matrix" values="0 0 0 0 0 0 0 0 0 0 0 0 0 0 0 0 0 0 127 0" result="hardAlpha"/>
            <feOffset dy="0.828782"/>
            <feGaussianBlur stdDeviation="0.736695"/>
            <feColorMatrix type="matrix" values="0 0 0 0 0.223529 0 0 0 0 0.380392 0 0 0 0 0.54902 0 0 0 0.07 0"/>
            <feBlend mode="normal" in2="BackgroundImageFix" result="effect1_dropShadow_40_3925"/>
            <feColorMatrix in="SourceAlpha" type="matrix" values="0 0 0 0 0 0 0 0 0 0 0 0 0 0 0 0 0 0 127 0" result="hardAlpha"/>
            <feOffset dy="2.09605"/>
            <feGaussianBlur stdDeviation="1.86316"/>
            <feColorMatrix type="matrix" values="0 0 0 0 0.223529 0 0 0 0 0.380392 0 0 0 0 0.54902 0 0 0 0.0482987 0"/>
            <feBlend mode="normal" in2="effect1_dropShadow_40_3925" result="effect2_dropShadow_40_3925"/>
            <feColorMatrix in="SourceAlpha" type="matrix" values="0 0 0 0 0 0 0 0 0 0 0 0 0 0 0 0 0 0 127 0" result="hardAlpha"/>
            <feOffset dy="4.27575"/>
            <feGaussianBlur stdDeviation="3.80067"/>
            <feColorMatrix type="matrix" values="0 0 0 0 0.223529 0 0 0 0 0.380392 0 0 0 0 0.54902 0 0 0 0.0389404 0"/>
            <feBlend mode="normal" in2="effect2_dropShadow_40_3925" result="effect3_dropShadow_40_3925"/>
            <feColorMatrix in="SourceAlpha" type="matrix" values="0 0 0 0 0 0 0 0 0 0 0 0 0 0 0 0 0 0 127 0" result="hardAlpha"/>
            <feOffset dy="8.80723"/>
            <feGaussianBlur stdDeviation="7.82865"/>
            <feColorMatrix type="matrix" values="0 0 0 0 0.223529 0 0 0 0 0.380392 0 0 0 0 0.54902 0 0 0 0.0310596 0"/>
            <feBlend mode="normal" in2="effect3_dropShadow_40_3925" result="effect4_dropShadow_40_3925"/>
            <feColorMatrix in="SourceAlpha" type="matrix" values="0 0 0 0 0 0 0 0 0 0 0 0 0 0 0 0 0 0 127 0" result="hardAlpha"/>
            <feOffset dy="24.1283"/>
            <feGaussianBlur stdDeviation="21.4474"/>
            <feColorMatrix type="matrix" values="0 0 0 0 0.223529 0 0 0 0 0.380392 0 0 0 0 0.54902 0 0 0 0.0217013 0"/>
            <feBlend mode="normal" in2="effect4_dropShadow_40_3925" result="effect5_dropShadow_40_3925"/>
            <feBlend mode="normal" in="SourceGraphic" in2="effect5_dropShadow_40_3925" result="shape"/>
        </filter>
        <linearGradient id="paint0_linear_40_3925" x1="134.495" y1="108.351" x2="145.478" y2="52.434" gradientUnits="userSpaceOnUse">
            <stop stop-color="white"/>
            <stop offset="1" stop-color="#E1F5FF"/>
        </linearGradient>
        <linearGradient id="paint1_linear_40_3925" x1="144.121" y1="69.0645" x2="144.121" y2="93.1063" gradientUnits="userSpaceOnUse">
            <stop stop-color="#268AC0"/>
            <stop offset="1" stop-color="#026AA2"/>
        </linearGradient>
        <linearGradient id="paint2_linear_40_3925" x1="102.911" y1="77.9124" x2="113.894" y2="21.9955" gradientUnits="userSpaceOnUse">
            <stop stop-color="white"/>
            <stop offset="1" stop-color="#E1F5FF"/>
        </linearGradient>
        <linearGradient id="paint3_linear_40_3925" x1="112.564" y1="39.2178" x2="112.564" y2="62.0232" gradientUnits="userSpaceOnUse">
            <stop stop-color="#268AC0"/>
            <stop offset="1" stop-color="#026AA2"/>
        </linearGradient>
        <linearGradient id="paint4_linear_40_3925" x1="64.9673" y1="106.115" x2="75.951" y2="50.1987" gradientUnits="userSpaceOnUse">
            <stop stop-color="white"/>
            <stop offset="1" stop-color="#E1F5FF"/>
        </linearGradient>
        <linearGradient id="paint5_linear_40_3925" x1="74.6196" y1="69.6641" x2="74.6196" y2="89.1265" gradientUnits="userSpaceOnUse">
            <stop stop-color="#268AC0"/>
            <stop offset="1" stop-color="#026AA2"/>
        </linearGradient>
        <linearGradient id="paint6_linear_40_3925" x1="111.364" y1="82.2207" x2="111.364" y2="145.46" gradientUnits="userSpaceOnUse">
            <stop stop-color="#268AC0"/>
            <stop offset="1" stop-color="#0068A0"/>
        </linearGradient>
    </defs>
</svg>
