<svg width="16" height="16" viewBox="0 0 16 16" fill="none" xmlns="http://www.w3.org/2000/svg">
<mask id="mask0_1241_60045" style="mask-type:alpha" maskUnits="userSpaceOnUse" x="0" y="0" width="16" height="16">
<rect width="16" height="16" fill="#D9D9D9"/>
</mask>
<g mask="url(#mask0_1241_60045)">
<path d="M3.33333 14C2.96667 14 2.65278 13.8694 2.39167 13.6083C2.13056 13.3472 2 13.0333 2 12.6667V3.33333C2 2.96667 2.13056 2.65278 2.39167 2.39167C2.65278 2.13056 2.96667 2 3.33333 2H12.6667C13.0333 2 13.3472 2.13056 13.6083 2.39167C13.8694 2.65278 14 2.96667 14 3.33333V7.8C13.7889 7.7 13.5722 7.61389 13.35 7.54167C13.1278 7.46944 12.9 7.41667 12.6667 7.38333V3.33333H3.33333V12.6667H7.36667C7.4 12.9111 7.45278 13.1444 7.525 13.3667C7.59722 13.5889 7.68333 13.8 7.78333 14H3.33333ZM3.33333 12.6667V3.33333V7.38333V7.33333V12.6667ZM4.66667 11.3333H7.38333C7.41667 11.1 7.46944 10.8722 7.54167 10.65C7.61389 10.4278 7.69444 10.2111 7.78333 10H4.66667V11.3333ZM4.66667 8.66667H8.73333C9.08889 8.33333 9.48611 8.05556 9.925 7.83333C10.3639 7.61111 10.8333 7.46111 11.3333 7.38333V7.33333H4.66667V8.66667ZM4.66667 6H11.3333V4.66667H4.66667V6ZM12 15.3333C11.0778 15.3333 10.2917 15.0083 9.64167 14.3583C8.99167 13.7083 8.66667 12.9222 8.66667 12C8.66667 11.0778 8.99167 10.2917 9.64167 9.64167C10.2917 8.99167 11.0778 8.66667 12 8.66667C12.9222 8.66667 13.7083 8.99167 14.3583 9.64167C15.0083 10.2917 15.3333 11.0778 15.3333 12C15.3333 12.9222 15.0083 13.7083 14.3583 14.3583C13.7083 15.0083 12.9222 15.3333 12 15.3333ZM11.6667 14H12.3333V12.3333H14V11.6667H12.3333V10H11.6667V11.6667H10V12.3333H11.6667V14Z" fill="white"/>
</g>
</svg>
