<svg width="26" height="33" viewBox="0 0 26 33" fill="none" xmlns="http://www.w3.org/2000/svg">
    <path d="M0.0830078 27.4421V24.9422H3.41634V12.8588C3.41634 10.596 4.11612 8.59546 5.51567 6.85724C6.91526 5.11899 8.71548 4.00414 10.9163 3.51269V2.34603C10.9163 1.75842 11.1167 1.26429 11.5173 0.863653C11.9179 0.463014 12.412 0.262695 12.9996 0.262695C13.5872 0.262695 14.0814 0.463014 14.482 0.863653C14.8826 1.26429 15.0829 1.75842 15.0829 2.34603V3.51269C17.2838 4.00414 19.084 5.11899 20.4836 6.85724C21.8831 8.59546 22.5829 10.596 22.5829 12.8588V24.9422H25.9163V27.4421H0.0830078ZM12.9996 32.3459C12.1791 32.3459 11.4719 32.0543 10.8778 31.4709C10.2838 30.8876 9.98684 30.175 9.98684 29.3332H16.0124C16.0124 30.175 15.7208 30.8876 15.1374 31.4709C14.5541 32.0543 13.8415 32.3459 12.9996 32.3459ZM5.91626 24.9422H20.083V12.8588C20.083 10.8973 19.3928 9.22631 18.0125 7.84595C16.6321 6.46561 14.9612 5.77544 12.9996 5.77544C11.0381 5.77544 9.36713 6.46561 7.9868 7.84595C6.60644 9.22631 5.91626 10.8973 5.91626 12.8588V24.9422Z" fill="url(#paint0_linear_1337_57577)"/>
    <defs>
        <linearGradient id="paint0_linear_1337_57577" x1="12.9996" y1="0.262695" x2="12.9996" y2="32.3459" gradientUnits="userSpaceOnUse">
            <stop stop-color="#5B669A"/>
            <stop offset="1" stop-color="#243681"/>
        </linearGradient>
    </defs>
</svg>
