<svg width="217" height="170" viewBox="0 0 217 170" fill="none" xmlns="http://www.w3.org/2000/svg">
<g filter="url(#filter0_ddd_918_27759)">
<g clip-path="url(#clip0_918_27759)">
<rect x="20" y="8" width="177" height="133" rx="4" fill="white"/>
<path fill-rule="evenodd" clip-rule="evenodd" d="M10.5 -12C11.3284 -12 12 -12.6716 12 -13.5C12 -14.3284 11.3284 -15 10.5 -15C9.67157 -15 9 -14.3284 9 -13.5C9 -12.6716 9.67157 -12 10.5 -12ZM25.5 -12C26.3284 -12 27 -12.6716 27 -13.5C27 -14.3284 26.3284 -15 25.5 -15C24.6716 -15 24 -14.3284 24 -13.5C24 -12.6716 24.6716 -12 25.5 -12ZM42 -13.5C42 -12.6716 41.3284 -12 40.5 -12C39.6716 -12 39 -12.6716 39 -13.5C39 -14.3284 39.6716 -15 40.5 -15C41.3284 -15 42 -14.3284 42 -13.5ZM55.5 -12C56.3284 -12 57 -12.6716 57 -13.5C57 -14.3284 56.3284 -15 55.5 -15C54.6716 -15 54 -14.3284 54 -13.5C54 -12.6716 54.6716 -12 55.5 -12ZM72 -13.5C72 -12.6716 71.3284 -12 70.5 -12C69.6716 -12 69 -12.6716 69 -13.5C69 -14.3284 69.6716 -15 70.5 -15C71.3284 -15 72 -14.3284 72 -13.5ZM85.5 -12C86.3284 -12 87 -12.6716 87 -13.5C87 -14.3284 86.3284 -15 85.5 -15C84.6716 -15 84 -14.3284 84 -13.5C84 -12.6716 84.6716 -12 85.5 -12ZM102 -13.5C102 -12.6716 101.328 -12 100.5 -12C99.6716 -12 99 -12.6716 99 -13.5C99 -14.3284 99.6716 -15 100.5 -15C101.328 -15 102 -14.3284 102 -13.5ZM115.5 -12C116.328 -12 117 -12.6716 117 -13.5C117 -14.3284 116.328 -15 115.5 -15C114.672 -15 114 -14.3284 114 -13.5C114 -12.6716 114.672 -12 115.5 -12ZM132 -13.5C132 -12.6716 131.328 -12 130.5 -12C129.672 -12 129 -12.6716 129 -13.5C129 -14.3284 129.672 -15 130.5 -15C131.328 -15 132 -14.3284 132 -13.5ZM145.5 -12C146.328 -12 147 -12.6716 147 -13.5C147 -14.3284 146.328 -15 145.5 -15C144.672 -15 144 -14.3284 144 -13.5C144 -12.6716 144.672 -12 145.5 -12ZM162 -13.5C162 -12.6716 161.328 -12 160.5 -12C159.672 -12 159 -12.6716 159 -13.5C159 -14.3284 159.672 -15 160.5 -15C161.328 -15 162 -14.3284 162 -13.5ZM10.5 3C11.3284 3 12 2.32843 12 1.5C12 0.671574 11.3284 0 10.5 0C9.67157 0 9 0.671574 9 1.5C9 2.32843 9.67157 3 10.5 3ZM27 1.5C27 2.32843 26.3284 3 25.5 3C24.6716 3 24 2.32843 24 1.5C24 0.671574 24.6716 0 25.5 0C26.3284 0 27 0.671574 27 1.5ZM40.5 3C41.3284 3 42 2.32843 42 1.5C42 0.671574 41.3284 0 40.5 0C39.6716 0 39 0.671574 39 1.5C39 2.32843 39.6716 3 40.5 3ZM57 1.5C57 2.32843 56.3284 3 55.5 3C54.6716 3 54 2.32843 54 1.5C54 0.671574 54.6716 0 55.5 0C56.3284 0 57 0.671574 57 1.5ZM70.5 3C71.3284 3 72 2.32843 72 1.5C72 0.671574 71.3284 0 70.5 0C69.6716 0 69 0.671574 69 1.5C69 2.32843 69.6716 3 70.5 3ZM87 1.5C87 2.32843 86.3284 3 85.5 3C84.6716 3 84 2.32843 84 1.5C84 0.671574 84.6716 0 85.5 0C86.3284 0 87 0.671574 87 1.5ZM100.5 3C101.328 3 102 2.32843 102 1.5C102 0.671574 101.328 0 100.5 0C99.6716 0 99 0.671574 99 1.5C99 2.32843 99.6716 3 100.5 3ZM117 1.5C117 2.32843 116.328 3 115.5 3C114.672 3 114 2.32843 114 1.5C114 0.671574 114.672 0 115.5 0C116.328 0 117 0.671574 117 1.5ZM130.5 3C131.328 3 132 2.32843 132 1.5C132 0.671574 131.328 0 130.5 0C129.672 0 129 0.671574 129 1.5C129 2.32843 129.672 3 130.5 3ZM147 1.5C147 2.32843 146.328 3 145.5 3C144.672 3 144 2.32843 144 1.5C144 0.671574 144.672 0 145.5 0C146.328 0 147 0.671574 147 1.5ZM160.5 3C161.328 3 162 2.32843 162 1.5C162 0.671574 161.328 0 160.5 0C159.672 0 159 0.671574 159 1.5C159 2.32843 159.672 3 160.5 3ZM12 16.5C12 17.3284 11.3284 18 10.5 18C9.67157 18 9 17.3284 9 16.5C9 15.6716 9.67157 15 10.5 15C11.3284 15 12 15.6716 12 16.5ZM25.5 18C26.3284 18 27 17.3284 27 16.5C27 15.6716 26.3284 15 25.5 15C24.6716 15 24 15.6716 24 16.5C24 17.3284 24.6716 18 25.5 18ZM42 16.5C42 17.3284 41.3284 18 40.5 18C39.6716 18 39 17.3284 39 16.5C39 15.6716 39.6716 15 40.5 15C41.3284 15 42 15.6716 42 16.5ZM55.5 18C56.3284 18 57 17.3284 57 16.5C57 15.6716 56.3284 15 55.5 15C54.6716 15 54 15.6716 54 16.5C54 17.3284 54.6716 18 55.5 18ZM72 16.5C72 17.3284 71.3284 18 70.5 18C69.6716 18 69 17.3284 69 16.5C69 15.6716 69.6716 15 70.5 15C71.3284 15 72 15.6716 72 16.5ZM85.5 18C86.3284 18 87 17.3284 87 16.5C87 15.6716 86.3284 15 85.5 15C84.6716 15 84 15.6716 84 16.5C84 17.3284 84.6716 18 85.5 18ZM102 16.5C102 17.3284 101.328 18 100.5 18C99.6716 18 99 17.3284 99 16.5C99 15.6716 99.6716 15 100.5 15C101.328 15 102 15.6716 102 16.5ZM115.5 18C116.328 18 117 17.3284 117 16.5C117 15.6716 116.328 15 115.5 15C114.672 15 114 15.6716 114 16.5C114 17.3284 114.672 18 115.5 18ZM132 16.5C132 17.3284 131.328 18 130.5 18C129.672 18 129 17.3284 129 16.5C129 15.6716 129.672 15 130.5 15C131.328 15 132 15.6716 132 16.5ZM145.5 18C146.328 18 147 17.3284 147 16.5C147 15.6716 146.328 15 145.5 15C144.672 15 144 15.6716 144 16.5C144 17.3284 144.672 18 145.5 18ZM162 16.5C162 17.3284 161.328 18 160.5 18C159.672 18 159 17.3284 159 16.5C159 15.6716 159.672 15 160.5 15C161.328 15 162 15.6716 162 16.5ZM10.5 33C11.3284 33 12 32.3284 12 31.5C12 30.6716 11.3284 30 10.5 30C9.67157 30 9 30.6716 9 31.5C9 32.3284 9.67157 33 10.5 33ZM27 31.5C27 32.3284 26.3284 33 25.5 33C24.6716 33 24 32.3284 24 31.5C24 30.6716 24.6716 30 25.5 30C26.3284 30 27 30.6716 27 31.5ZM40.5 33C41.3284 33 42 32.3284 42 31.5C42 30.6716 41.3284 30 40.5 30C39.6716 30 39 30.6716 39 31.5C39 32.3284 39.6716 33 40.5 33ZM57 31.5C57 32.3284 56.3284 33 55.5 33C54.6716 33 54 32.3284 54 31.5C54 30.6716 54.6716 30 55.5 30C56.3284 30 57 30.6716 57 31.5ZM70.5 33C71.3284 33 72 32.3284 72 31.5C72 30.6716 71.3284 30 70.5 30C69.6716 30 69 30.6716 69 31.5C69 32.3284 69.6716 33 70.5 33ZM87 31.5C87 32.3284 86.3284 33 85.5 33C84.6716 33 84 32.3284 84 31.5C84 30.6716 84.6716 30 85.5 30C86.3284 30 87 30.6716 87 31.5ZM100.5 33C101.328 33 102 32.3284 102 31.5C102 30.6716 101.328 30 100.5 30C99.6716 30 99 30.6716 99 31.5C99 32.3284 99.6716 33 100.5 33ZM117 31.5C117 32.3284 116.328 33 115.5 33C114.672 33 114 32.3284 114 31.5C114 30.6716 114.672 30 115.5 30C116.328 30 117 30.6716 117 31.5ZM130.5 33C131.328 33 132 32.3284 132 31.5C132 30.6716 131.328 30 130.5 30C129.672 30 129 30.6716 129 31.5C129 32.3284 129.672 33 130.5 33ZM147 31.5C147 32.3284 146.328 33 145.5 33C144.672 33 144 32.3284 144 31.5C144 30.6716 144.672 30 145.5 30C146.328 30 147 30.6716 147 31.5ZM160.5 33C161.328 33 162 32.3284 162 31.5C162 30.6716 161.328 30 160.5 30C159.672 30 159 30.6716 159 31.5C159 32.3284 159.672 33 160.5 33ZM12 46.5C12 47.3284 11.3284 48 10.5 48C9.67157 48 9 47.3284 9 46.5C9 45.6716 9.67157 45 10.5 45C11.3284 45 12 45.6716 12 46.5ZM25.5 48C26.3284 48 27 47.3284 27 46.5C27 45.6716 26.3284 45 25.5 45C24.6716 45 24 45.6716 24 46.5C24 47.3284 24.6716 48 25.5 48ZM42 46.5C42 47.3284 41.3284 48 40.5 48C39.6716 48 39 47.3284 39 46.5C39 45.6716 39.6716 45 40.5 45C41.3284 45 42 45.6716 42 46.5ZM55.5 48C56.3284 48 57 47.3284 57 46.5C57 45.6716 56.3284 45 55.5 45C54.6716 45 54 45.6716 54 46.5C54 47.3284 54.6716 48 55.5 48ZM72 46.5C72 47.3284 71.3284 48 70.5 48C69.6716 48 69 47.3284 69 46.5C69 45.6716 69.6716 45 70.5 45C71.3284 45 72 45.6716 72 46.5ZM85.5 48C86.3284 48 87 47.3284 87 46.5C87 45.6716 86.3284 45 85.5 45C84.6716 45 84 45.6716 84 46.5C84 47.3284 84.6716 48 85.5 48ZM102 46.5C102 47.3284 101.328 48 100.5 48C99.6716 48 99 47.3284 99 46.5C99 45.6716 99.6716 45 100.5 45C101.328 45 102 45.6716 102 46.5ZM115.5 48C116.328 48 117 47.3284 117 46.5C117 45.6716 116.328 45 115.5 45C114.672 45 114 45.6716 114 46.5C114 47.3284 114.672 48 115.5 48ZM132 46.5C132 47.3284 131.328 48 130.5 48C129.672 48 129 47.3284 129 46.5C129 45.6716 129.672 45 130.5 45C131.328 45 132 45.6716 132 46.5ZM145.5 48C146.328 48 147 47.3284 147 46.5C147 45.6716 146.328 45 145.5 45C144.672 45 144 45.6716 144 46.5C144 47.3284 144.672 48 145.5 48ZM162 46.5C162 47.3284 161.328 48 160.5 48C159.672 48 159 47.3284 159 46.5C159 45.6716 159.672 45 160.5 45C161.328 45 162 45.6716 162 46.5ZM10.5 63C11.3284 63 12 62.3284 12 61.5C12 60.6716 11.3284 60 10.5 60C9.67157 60 9 60.6716 9 61.5C9 62.3284 9.67157 63 10.5 63ZM27 61.5C27 62.3284 26.3284 63 25.5 63C24.6716 63 24 62.3284 24 61.5C24 60.6716 24.6716 60 25.5 60C26.3284 60 27 60.6716 27 61.5ZM40.5 63C41.3284 63 42 62.3284 42 61.5C42 60.6716 41.3284 60 40.5 60C39.6716 60 39 60.6716 39 61.5C39 62.3284 39.6716 63 40.5 63ZM57 61.5C57 62.3284 56.3284 63 55.5 63C54.6716 63 54 62.3284 54 61.5C54 60.6716 54.6716 60 55.5 60C56.3284 60 57 60.6716 57 61.5ZM70.5 63C71.3284 63 72 62.3284 72 61.5C72 60.6716 71.3284 60 70.5 60C69.6716 60 69 60.6716 69 61.5C69 62.3284 69.6716 63 70.5 63ZM87 61.5C87 62.3284 86.3284 63 85.5 63C84.6716 63 84 62.3284 84 61.5C84 60.6716 84.6716 60 85.5 60C86.3284 60 87 60.6716 87 61.5ZM100.5 63C101.328 63 102 62.3284 102 61.5C102 60.6716 101.328 60 100.5 60C99.6716 60 99 60.6716 99 61.5C99 62.3284 99.6716 63 100.5 63ZM117 61.5C117 62.3284 116.328 63 115.5 63C114.672 63 114 62.3284 114 61.5C114 60.6716 114.672 60 115.5 60C116.328 60 117 60.6716 117 61.5ZM130.5 63C131.328 63 132 62.3284 132 61.5C132 60.6716 131.328 60 130.5 60C129.672 60 129 60.6716 129 61.5C129 62.3284 129.672 63 130.5 63ZM147 61.5C147 62.3284 146.328 63 145.5 63C144.672 63 144 62.3284 144 61.5C144 60.6716 144.672 60 145.5 60C146.328 60 147 60.6716 147 61.5ZM160.5 63C161.328 63 162 62.3284 162 61.5C162 60.6716 161.328 60 160.5 60C159.672 60 159 60.6716 159 61.5C159 62.3284 159.672 63 160.5 63ZM12 76.5C12 77.3284 11.3284 78 10.5 78C9.67157 78 9 77.3284 9 76.5C9 75.6716 9.67157 75 10.5 75C11.3284 75 12 75.6716 12 76.5ZM25.5 78C26.3284 78 27 77.3284 27 76.5C27 75.6716 26.3284 75 25.5 75C24.6716 75 24 75.6716 24 76.5C24 77.3284 24.6716 78 25.5 78ZM42 76.5C42 77.3284 41.3284 78 40.5 78C39.6716 78 39 77.3284 39 76.5C39 75.6716 39.6716 75 40.5 75C41.3284 75 42 75.6716 42 76.5ZM55.5 78C56.3284 78 57 77.3284 57 76.5C57 75.6716 56.3284 75 55.5 75C54.6716 75 54 75.6716 54 76.5C54 77.3284 54.6716 78 55.5 78ZM72 76.5C72 77.3284 71.3284 78 70.5 78C69.6716 78 69 77.3284 69 76.5C69 75.6716 69.6716 75 70.5 75C71.3284 75 72 75.6716 72 76.5ZM85.5 78C86.3284 78 87 77.3284 87 76.5C87 75.6716 86.3284 75 85.5 75C84.6716 75 84 75.6716 84 76.5C84 77.3284 84.6716 78 85.5 78ZM102 76.5C102 77.3284 101.328 78 100.5 78C99.6716 78 99 77.3284 99 76.5C99 75.6716 99.6716 75 100.5 75C101.328 75 102 75.6716 102 76.5ZM115.5 78C116.328 78 117 77.3284 117 76.5C117 75.6716 116.328 75 115.5 75C114.672 75 114 75.6716 114 76.5C114 77.3284 114.672 78 115.5 78ZM132 76.5C132 77.3284 131.328 78 130.5 78C129.672 78 129 77.3284 129 76.5C129 75.6716 129.672 75 130.5 75C131.328 75 132 75.6716 132 76.5ZM145.5 78C146.328 78 147 77.3284 147 76.5C147 75.6716 146.328 75 145.5 75C144.672 75 144 75.6716 144 76.5C144 77.3284 144.672 78 145.5 78ZM162 76.5C162 77.3284 161.328 78 160.5 78C159.672 78 159 77.3284 159 76.5C159 75.6716 159.672 75 160.5 75C161.328 75 162 75.6716 162 76.5ZM10.5 93C11.3284 93 12 92.3284 12 91.5C12 90.6716 11.3284 90 10.5 90C9.67157 90 9 90.6716 9 91.5C9 92.3284 9.67157 93 10.5 93ZM27 91.5C27 92.3284 26.3284 93 25.5 93C24.6716 93 24 92.3284 24 91.5C24 90.6716 24.6716 90 25.5 90C26.3284 90 27 90.6716 27 91.5ZM40.5 93C41.3284 93 42 92.3284 42 91.5C42 90.6716 41.3284 90 40.5 90C39.6716 90 39 90.6716 39 91.5C39 92.3284 39.6716 93 40.5 93ZM57 91.5C57 92.3284 56.3284 93 55.5 93C54.6716 93 54 92.3284 54 91.5C54 90.6716 54.6716 90 55.5 90C56.3284 90 57 90.6716 57 91.5ZM70.5 93C71.3284 93 72 92.3284 72 91.5C72 90.6716 71.3284 90 70.5 90C69.6716 90 69 90.6716 69 91.5C69 92.3284 69.6716 93 70.5 93ZM87 91.5C87 92.3284 86.3284 93 85.5 93C84.6716 93 84 92.3284 84 91.5C84 90.6716 84.6716 90 85.5 90C86.3284 90 87 90.6716 87 91.5ZM100.5 93C101.328 93 102 92.3284 102 91.5C102 90.6716 101.328 90 100.5 90C99.6716 90 99 90.6716 99 91.5C99 92.3284 99.6716 93 100.5 93ZM117 91.5C117 92.3284 116.328 93 115.5 93C114.672 93 114 92.3284 114 91.5C114 90.6716 114.672 90 115.5 90C116.328 90 117 90.6716 117 91.5ZM130.5 93C131.328 93 132 92.3284 132 91.5C132 90.6716 131.328 90 130.5 90C129.672 90 129 90.6716 129 91.5C129 92.3284 129.672 93 130.5 93ZM147 91.5C147 92.3284 146.328 93 145.5 93C144.672 93 144 92.3284 144 91.5C144 90.6716 144.672 90 145.5 90C146.328 90 147 90.6716 147 91.5ZM160.5 93C161.328 93 162 92.3284 162 91.5C162 90.6716 161.328 90 160.5 90C159.672 90 159 90.6716 159 91.5C159 92.3284 159.672 93 160.5 93Z" fill="url(#paint0_linear_918_27759)"/>
<path fill-rule="evenodd" clip-rule="evenodd" d="M34.5 -20C35.3284 -20 36 -20.6716 36 -21.5C36 -22.3284 35.3284 -23 34.5 -23C33.6716 -23 33 -22.3284 33 -21.5C33 -20.6716 33.6716 -20 34.5 -20ZM49.5 -20C50.3284 -20 51 -20.6716 51 -21.5C51 -22.3284 50.3284 -23 49.5 -23C48.6716 -23 48 -22.3284 48 -21.5C48 -20.6716 48.6716 -20 49.5 -20ZM66 -21.5C66 -20.6716 65.3284 -20 64.5 -20C63.6716 -20 63 -20.6716 63 -21.5C63 -22.3284 63.6716 -23 64.5 -23C65.3284 -23 66 -22.3284 66 -21.5ZM79.5 -20C80.3284 -20 81 -20.6716 81 -21.5C81 -22.3284 80.3284 -23 79.5 -23C78.6716 -23 78 -22.3284 78 -21.5C78 -20.6716 78.6716 -20 79.5 -20ZM96 -21.5C96 -20.6716 95.3284 -20 94.5 -20C93.6716 -20 93 -20.6716 93 -21.5C93 -22.3284 93.6716 -23 94.5 -23C95.3284 -23 96 -22.3284 96 -21.5ZM109.5 -20C110.328 -20 111 -20.6716 111 -21.5C111 -22.3284 110.328 -23 109.5 -23C108.672 -23 108 -22.3284 108 -21.5C108 -20.6716 108.672 -20 109.5 -20ZM126 -21.5C126 -20.6716 125.328 -20 124.5 -20C123.672 -20 123 -20.6716 123 -21.5C123 -22.3284 123.672 -23 124.5 -23C125.328 -23 126 -22.3284 126 -21.5ZM139.5 -20C140.328 -20 141 -20.6716 141 -21.5C141 -22.3284 140.328 -23 139.5 -23C138.672 -23 138 -22.3284 138 -21.5C138 -20.6716 138.672 -20 139.5 -20ZM156 -21.5C156 -20.6716 155.328 -20 154.5 -20C153.672 -20 153 -20.6716 153 -21.5C153 -22.3284 153.672 -23 154.5 -23C155.328 -23 156 -22.3284 156 -21.5ZM169.5 -20C170.328 -20 171 -20.6716 171 -21.5C171 -22.3284 170.328 -23 169.5 -23C168.672 -23 168 -22.3284 168 -21.5C168 -20.6716 168.672 -20 169.5 -20ZM186 -21.5C186 -20.6716 185.328 -20 184.5 -20C183.672 -20 183 -20.6716 183 -21.5C183 -22.3284 183.672 -23 184.5 -23C185.328 -23 186 -22.3284 186 -21.5ZM34.5 -5C35.3284 -5 36 -5.67157 36 -6.5C36 -7.32843 35.3284 -8 34.5 -8C33.6716 -8 33 -7.32843 33 -6.5C33 -5.67157 33.6716 -5 34.5 -5ZM51 -6.5C51 -5.67157 50.3284 -5 49.5 -5C48.6716 -5 48 -5.67157 48 -6.5C48 -7.32843 48.6716 -8 49.5 -8C50.3284 -8 51 -7.32843 51 -6.5ZM64.5 -5C65.3284 -5 66 -5.67157 66 -6.5C66 -7.32843 65.3284 -8 64.5 -8C63.6716 -8 63 -7.32843 63 -6.5C63 -5.67157 63.6716 -5 64.5 -5ZM81 -6.5C81 -5.67157 80.3284 -5 79.5 -5C78.6716 -5 78 -5.67157 78 -6.5C78 -7.32843 78.6716 -8 79.5 -8C80.3284 -8 81 -7.32843 81 -6.5ZM94.5 -5C95.3284 -5 96 -5.67157 96 -6.5C96 -7.32843 95.3284 -8 94.5 -8C93.6716 -8 93 -7.32843 93 -6.5C93 -5.67157 93.6716 -5 94.5 -5ZM111 -6.5C111 -5.67157 110.328 -5 109.5 -5C108.672 -5 108 -5.67157 108 -6.5C108 -7.32843 108.672 -8 109.5 -8C110.328 -8 111 -7.32843 111 -6.5ZM124.5 -5C125.328 -5 126 -5.67157 126 -6.5C126 -7.32843 125.328 -8 124.5 -8C123.672 -8 123 -7.32843 123 -6.5C123 -5.67157 123.672 -5 124.5 -5ZM141 -6.5C141 -5.67157 140.328 -5 139.5 -5C138.672 -5 138 -5.67157 138 -6.5C138 -7.32843 138.672 -8 139.5 -8C140.328 -8 141 -7.32843 141 -6.5ZM154.5 -5C155.328 -5 156 -5.67157 156 -6.5C156 -7.32843 155.328 -8 154.5 -8C153.672 -8 153 -7.32843 153 -6.5C153 -5.67157 153.672 -5 154.5 -5ZM171 -6.5C171 -5.67157 170.328 -5 169.5 -5C168.672 -5 168 -5.67157 168 -6.5C168 -7.32843 168.672 -8 169.5 -8C170.328 -8 171 -7.32843 171 -6.5ZM184.5 -5C185.328 -5 186 -5.67157 186 -6.5C186 -7.32843 185.328 -8 184.5 -8C183.672 -8 183 -7.32843 183 -6.5C183 -5.67157 183.672 -5 184.5 -5ZM36 8.5C36 9.32843 35.3284 10 34.5 10C33.6716 10 33 9.32843 33 8.5C33 7.67157 33.6716 7 34.5 7C35.3284 7 36 7.67157 36 8.5ZM49.5 10C50.3284 10 51 9.32843 51 8.5C51 7.67157 50.3284 7 49.5 7C48.6716 7 48 7.67157 48 8.5C48 9.32843 48.6716 10 49.5 10ZM66 8.5C66 9.32843 65.3284 10 64.5 10C63.6716 10 63 9.32843 63 8.5C63 7.67157 63.6716 7 64.5 7C65.3284 7 66 7.67157 66 8.5ZM79.5 10C80.3284 10 81 9.32843 81 8.5C81 7.67157 80.3284 7 79.5 7C78.6716 7 78 7.67157 78 8.5C78 9.32843 78.6716 10 79.5 10ZM96 8.5C96 9.32843 95.3284 10 94.5 10C93.6716 10 93 9.32843 93 8.5C93 7.67157 93.6716 7 94.5 7C95.3284 7 96 7.67157 96 8.5ZM109.5 10C110.328 10 111 9.32843 111 8.5C111 7.67157 110.328 7 109.5 7C108.672 7 108 7.67157 108 8.5C108 9.32843 108.672 10 109.5 10ZM126 8.5C126 9.32843 125.328 10 124.5 10C123.672 10 123 9.32843 123 8.5C123 7.67157 123.672 7 124.5 7C125.328 7 126 7.67157 126 8.5ZM139.5 10C140.328 10 141 9.32843 141 8.5C141 7.67157 140.328 7 139.5 7C138.672 7 138 7.67157 138 8.5C138 9.32843 138.672 10 139.5 10ZM156 8.5C156 9.32843 155.328 10 154.5 10C153.672 10 153 9.32843 153 8.5C153 7.67157 153.672 7 154.5 7C155.328 7 156 7.67157 156 8.5ZM169.5 10C170.328 10 171 9.32843 171 8.5C171 7.67157 170.328 7 169.5 7C168.672 7 168 7.67157 168 8.5C168 9.32843 168.672 10 169.5 10ZM186 8.5C186 9.32843 185.328 10 184.5 10C183.672 10 183 9.32843 183 8.5C183 7.67157 183.672 7 184.5 7C185.328 7 186 7.67157 186 8.5ZM34.5 25C35.3284 25 36 24.3284 36 23.5C36 22.6716 35.3284 22 34.5 22C33.6716 22 33 22.6716 33 23.5C33 24.3284 33.6716 25 34.5 25ZM51 23.5C51 24.3284 50.3284 25 49.5 25C48.6716 25 48 24.3284 48 23.5C48 22.6716 48.6716 22 49.5 22C50.3284 22 51 22.6716 51 23.5ZM64.5 25C65.3284 25 66 24.3284 66 23.5C66 22.6716 65.3284 22 64.5 22C63.6716 22 63 22.6716 63 23.5C63 24.3284 63.6716 25 64.5 25ZM81 23.5C81 24.3284 80.3284 25 79.5 25C78.6716 25 78 24.3284 78 23.5C78 22.6716 78.6716 22 79.5 22C80.3284 22 81 22.6716 81 23.5ZM94.5 25C95.3284 25 96 24.3284 96 23.5C96 22.6716 95.3284 22 94.5 22C93.6716 22 93 22.6716 93 23.5C93 24.3284 93.6716 25 94.5 25ZM111 23.5C111 24.3284 110.328 25 109.5 25C108.672 25 108 24.3284 108 23.5C108 22.6716 108.672 22 109.5 22C110.328 22 111 22.6716 111 23.5ZM124.5 25C125.328 25 126 24.3284 126 23.5C126 22.6716 125.328 22 124.5 22C123.672 22 123 22.6716 123 23.5C123 24.3284 123.672 25 124.5 25ZM141 23.5C141 24.3284 140.328 25 139.5 25C138.672 25 138 24.3284 138 23.5C138 22.6716 138.672 22 139.5 22C140.328 22 141 22.6716 141 23.5ZM154.5 25C155.328 25 156 24.3284 156 23.5C156 22.6716 155.328 22 154.5 22C153.672 22 153 22.6716 153 23.5C153 24.3284 153.672 25 154.5 25ZM171 23.5C171 24.3284 170.328 25 169.5 25C168.672 25 168 24.3284 168 23.5C168 22.6716 168.672 22 169.5 22C170.328 22 171 22.6716 171 23.5ZM184.5 25C185.328 25 186 24.3284 186 23.5C186 22.6716 185.328 22 184.5 22C183.672 22 183 22.6716 183 23.5C183 24.3284 183.672 25 184.5 25ZM36 38.5C36 39.3284 35.3284 40 34.5 40C33.6716 40 33 39.3284 33 38.5C33 37.6716 33.6716 37 34.5 37C35.3284 37 36 37.6716 36 38.5ZM49.5 40C50.3284 40 51 39.3284 51 38.5C51 37.6716 50.3284 37 49.5 37C48.6716 37 48 37.6716 48 38.5C48 39.3284 48.6716 40 49.5 40ZM66 38.5C66 39.3284 65.3284 40 64.5 40C63.6716 40 63 39.3284 63 38.5C63 37.6716 63.6716 37 64.5 37C65.3284 37 66 37.6716 66 38.5ZM79.5 40C80.3284 40 81 39.3284 81 38.5C81 37.6716 80.3284 37 79.5 37C78.6716 37 78 37.6716 78 38.5C78 39.3284 78.6716 40 79.5 40ZM96 38.5C96 39.3284 95.3284 40 94.5 40C93.6716 40 93 39.3284 93 38.5C93 37.6716 93.6716 37 94.5 37C95.3284 37 96 37.6716 96 38.5ZM109.5 40C110.328 40 111 39.3284 111 38.5C111 37.6716 110.328 37 109.5 37C108.672 37 108 37.6716 108 38.5C108 39.3284 108.672 40 109.5 40ZM126 38.5C126 39.3284 125.328 40 124.5 40C123.672 40 123 39.3284 123 38.5C123 37.6716 123.672 37 124.5 37C125.328 37 126 37.6716 126 38.5ZM139.5 40C140.328 40 141 39.3284 141 38.5C141 37.6716 140.328 37 139.5 37C138.672 37 138 37.6716 138 38.5C138 39.3284 138.672 40 139.5 40ZM156 38.5C156 39.3284 155.328 40 154.5 40C153.672 40 153 39.3284 153 38.5C153 37.6716 153.672 37 154.5 37C155.328 37 156 37.6716 156 38.5ZM169.5 40C170.328 40 171 39.3284 171 38.5C171 37.6716 170.328 37 169.5 37C168.672 37 168 37.6716 168 38.5C168 39.3284 168.672 40 169.5 40ZM186 38.5C186 39.3284 185.328 40 184.5 40C183.672 40 183 39.3284 183 38.5C183 37.6716 183.672 37 184.5 37C185.328 37 186 37.6716 186 38.5ZM34.5 55C35.3284 55 36 54.3284 36 53.5C36 52.6716 35.3284 52 34.5 52C33.6716 52 33 52.6716 33 53.5C33 54.3284 33.6716 55 34.5 55ZM51 53.5C51 54.3284 50.3284 55 49.5 55C48.6716 55 48 54.3284 48 53.5C48 52.6716 48.6716 52 49.5 52C50.3284 52 51 52.6716 51 53.5ZM64.5 55C65.3284 55 66 54.3284 66 53.5C66 52.6716 65.3284 52 64.5 52C63.6716 52 63 52.6716 63 53.5C63 54.3284 63.6716 55 64.5 55ZM81 53.5C81 54.3284 80.3284 55 79.5 55C78.6716 55 78 54.3284 78 53.5C78 52.6716 78.6716 52 79.5 52C80.3284 52 81 52.6716 81 53.5ZM94.5 55C95.3284 55 96 54.3284 96 53.5C96 52.6716 95.3284 52 94.5 52C93.6716 52 93 52.6716 93 53.5C93 54.3284 93.6716 55 94.5 55ZM111 53.5C111 54.3284 110.328 55 109.5 55C108.672 55 108 54.3284 108 53.5C108 52.6716 108.672 52 109.5 52C110.328 52 111 52.6716 111 53.5ZM124.5 55C125.328 55 126 54.3284 126 53.5C126 52.6716 125.328 52 124.5 52C123.672 52 123 52.6716 123 53.5C123 54.3284 123.672 55 124.5 55ZM141 53.5C141 54.3284 140.328 55 139.5 55C138.672 55 138 54.3284 138 53.5C138 52.6716 138.672 52 139.5 52C140.328 52 141 52.6716 141 53.5ZM154.5 55C155.328 55 156 54.3284 156 53.5C156 52.6716 155.328 52 154.5 52C153.672 52 153 52.6716 153 53.5C153 54.3284 153.672 55 154.5 55ZM171 53.5C171 54.3284 170.328 55 169.5 55C168.672 55 168 54.3284 168 53.5C168 52.6716 168.672 52 169.5 52C170.328 52 171 52.6716 171 53.5ZM184.5 55C185.328 55 186 54.3284 186 53.5C186 52.6716 185.328 52 184.5 52C183.672 52 183 52.6716 183 53.5C183 54.3284 183.672 55 184.5 55ZM36 68.5C36 69.3284 35.3284 70 34.5 70C33.6716 70 33 69.3284 33 68.5C33 67.6716 33.6716 67 34.5 67C35.3284 67 36 67.6716 36 68.5ZM49.5 70C50.3284 70 51 69.3284 51 68.5C51 67.6716 50.3284 67 49.5 67C48.6716 67 48 67.6716 48 68.5C48 69.3284 48.6716 70 49.5 70ZM66 68.5C66 69.3284 65.3284 70 64.5 70C63.6716 70 63 69.3284 63 68.5C63 67.6716 63.6716 67 64.5 67C65.3284 67 66 67.6716 66 68.5ZM79.5 70C80.3284 70 81 69.3284 81 68.5C81 67.6716 80.3284 67 79.5 67C78.6716 67 78 67.6716 78 68.5C78 69.3284 78.6716 70 79.5 70ZM96 68.5C96 69.3284 95.3284 70 94.5 70C93.6716 70 93 69.3284 93 68.5C93 67.6716 93.6716 67 94.5 67C95.3284 67 96 67.6716 96 68.5ZM109.5 70C110.328 70 111 69.3284 111 68.5C111 67.6716 110.328 67 109.5 67C108.672 67 108 67.6716 108 68.5C108 69.3284 108.672 70 109.5 70ZM126 68.5C126 69.3284 125.328 70 124.5 70C123.672 70 123 69.3284 123 68.5C123 67.6716 123.672 67 124.5 67C125.328 67 126 67.6716 126 68.5ZM139.5 70C140.328 70 141 69.3284 141 68.5C141 67.6716 140.328 67 139.5 67C138.672 67 138 67.6716 138 68.5C138 69.3284 138.672 70 139.5 70ZM156 68.5C156 69.3284 155.328 70 154.5 70C153.672 70 153 69.3284 153 68.5C153 67.6716 153.672 67 154.5 67C155.328 67 156 67.6716 156 68.5ZM169.5 70C170.328 70 171 69.3284 171 68.5C171 67.6716 170.328 67 169.5 67C168.672 67 168 67.6716 168 68.5C168 69.3284 168.672 70 169.5 70ZM186 68.5C186 69.3284 185.328 70 184.5 70C183.672 70 183 69.3284 183 68.5C183 67.6716 183.672 67 184.5 67C185.328 67 186 67.6716 186 68.5ZM34.5 85C35.3284 85 36 84.3284 36 83.5C36 82.6716 35.3284 82 34.5 82C33.6716 82 33 82.6716 33 83.5C33 84.3284 33.6716 85 34.5 85ZM51 83.5C51 84.3284 50.3284 85 49.5 85C48.6716 85 48 84.3284 48 83.5C48 82.6716 48.6716 82 49.5 82C50.3284 82 51 82.6716 51 83.5ZM64.5 85C65.3284 85 66 84.3284 66 83.5C66 82.6716 65.3284 82 64.5 82C63.6716 82 63 82.6716 63 83.5C63 84.3284 63.6716 85 64.5 85ZM81 83.5C81 84.3284 80.3284 85 79.5 85C78.6716 85 78 84.3284 78 83.5C78 82.6716 78.6716 82 79.5 82C80.3284 82 81 82.6716 81 83.5ZM94.5 85C95.3284 85 96 84.3284 96 83.5C96 82.6716 95.3284 82 94.5 82C93.6716 82 93 82.6716 93 83.5C93 84.3284 93.6716 85 94.5 85ZM111 83.5C111 84.3284 110.328 85 109.5 85C108.672 85 108 84.3284 108 83.5C108 82.6716 108.672 82 109.5 82C110.328 82 111 82.6716 111 83.5ZM124.5 85C125.328 85 126 84.3284 126 83.5C126 82.6716 125.328 82 124.5 82C123.672 82 123 82.6716 123 83.5C123 84.3284 123.672 85 124.5 85ZM141 83.5C141 84.3284 140.328 85 139.5 85C138.672 85 138 84.3284 138 83.5C138 82.6716 138.672 82 139.5 82C140.328 82 141 82.6716 141 83.5ZM154.5 85C155.328 85 156 84.3284 156 83.5C156 82.6716 155.328 82 154.5 82C153.672 82 153 82.6716 153 83.5C153 84.3284 153.672 85 154.5 85ZM171 83.5C171 84.3284 170.328 85 169.5 85C168.672 85 168 84.3284 168 83.5C168 82.6716 168.672 82 169.5 82C170.328 82 171 82.6716 171 83.5ZM184.5 85C185.328 85 186 84.3284 186 83.5C186 82.6716 185.328 82 184.5 82C183.672 82 183 82.6716 183 83.5C183 84.3284 183.672 85 184.5 85Z" fill="url(#paint1_linear_918_27759)"/>
<path fill-rule="evenodd" clip-rule="evenodd" d="M176.5 -28C177.328 -28 178 -28.6716 178 -29.5C178 -30.3284 177.328 -31 176.5 -31C175.672 -31 175 -30.3284 175 -29.5C175 -28.6716 175.672 -28 176.5 -28ZM191.5 -28C192.328 -28 193 -28.6716 193 -29.5C193 -30.3284 192.328 -31 191.5 -31C190.672 -31 190 -30.3284 190 -29.5C190 -28.6716 190.672 -28 191.5 -28ZM208 -29.5C208 -28.6716 207.328 -28 206.5 -28C205.672 -28 205 -28.6716 205 -29.5C205 -30.3284 205.672 -31 206.5 -31C207.328 -31 208 -30.3284 208 -29.5ZM221.5 -28C222.328 -28 223 -28.6716 223 -29.5C223 -30.3284 222.328 -31 221.5 -31C220.672 -31 220 -30.3284 220 -29.5C220 -28.6716 220.672 -28 221.5 -28ZM238 -29.5C238 -28.6716 237.328 -28 236.5 -28C235.672 -28 235 -28.6716 235 -29.5C235 -30.3284 235.672 -31 236.5 -31C237.328 -31 238 -30.3284 238 -29.5ZM251.5 -28C252.328 -28 253 -28.6716 253 -29.5C253 -30.3284 252.328 -31 251.5 -31C250.672 -31 250 -30.3284 250 -29.5C250 -28.6716 250.672 -28 251.5 -28ZM268 -29.5C268 -28.6716 267.328 -28 266.5 -28C265.672 -28 265 -28.6716 265 -29.5C265 -30.3284 265.672 -31 266.5 -31C267.328 -31 268 -30.3284 268 -29.5ZM281.5 -28C282.328 -28 283 -28.6716 283 -29.5C283 -30.3284 282.328 -31 281.5 -31C280.672 -31 280 -30.3284 280 -29.5C280 -28.6716 280.672 -28 281.5 -28ZM298 -29.5C298 -28.6716 297.328 -28 296.5 -28C295.672 -28 295 -28.6716 295 -29.5C295 -30.3284 295.672 -31 296.5 -31C297.328 -31 298 -30.3284 298 -29.5ZM311.5 -28C312.328 -28 313 -28.6716 313 -29.5C313 -30.3284 312.328 -31 311.5 -31C310.672 -31 310 -30.3284 310 -29.5C310 -28.6716 310.672 -28 311.5 -28ZM328 -29.5C328 -28.6716 327.328 -28 326.5 -28C325.672 -28 325 -28.6716 325 -29.5C325 -30.3284 325.672 -31 326.5 -31C327.328 -31 328 -30.3284 328 -29.5ZM176.5 -13C177.328 -13 178 -13.6716 178 -14.5C178 -15.3284 177.328 -16 176.5 -16C175.672 -16 175 -15.3284 175 -14.5C175 -13.6716 175.672 -13 176.5 -13ZM193 -14.5C193 -13.6716 192.328 -13 191.5 -13C190.672 -13 190 -13.6716 190 -14.5C190 -15.3284 190.672 -16 191.5 -16C192.328 -16 193 -15.3284 193 -14.5ZM206.5 -13C207.328 -13 208 -13.6716 208 -14.5C208 -15.3284 207.328 -16 206.5 -16C205.672 -16 205 -15.3284 205 -14.5C205 -13.6716 205.672 -13 206.5 -13ZM223 -14.5C223 -13.6716 222.328 -13 221.5 -13C220.672 -13 220 -13.6716 220 -14.5C220 -15.3284 220.672 -16 221.5 -16C222.328 -16 223 -15.3284 223 -14.5ZM236.5 -13C237.328 -13 238 -13.6716 238 -14.5C238 -15.3284 237.328 -16 236.5 -16C235.672 -16 235 -15.3284 235 -14.5C235 -13.6716 235.672 -13 236.5 -13ZM253 -14.5C253 -13.6716 252.328 -13 251.5 -13C250.672 -13 250 -13.6716 250 -14.5C250 -15.3284 250.672 -16 251.5 -16C252.328 -16 253 -15.3284 253 -14.5ZM266.5 -13C267.328 -13 268 -13.6716 268 -14.5C268 -15.3284 267.328 -16 266.5 -16C265.672 -16 265 -15.3284 265 -14.5C265 -13.6716 265.672 -13 266.5 -13ZM283 -14.5C283 -13.6716 282.328 -13 281.5 -13C280.672 -13 280 -13.6716 280 -14.5C280 -15.3284 280.672 -16 281.5 -16C282.328 -16 283 -15.3284 283 -14.5ZM296.5 -13C297.328 -13 298 -13.6716 298 -14.5C298 -15.3284 297.328 -16 296.5 -16C295.672 -16 295 -15.3284 295 -14.5C295 -13.6716 295.672 -13 296.5 -13ZM313 -14.5C313 -13.6716 312.328 -13 311.5 -13C310.672 -13 310 -13.6716 310 -14.5C310 -15.3284 310.672 -16 311.5 -16C312.328 -16 313 -15.3284 313 -14.5ZM326.5 -13C327.328 -13 328 -13.6716 328 -14.5C328 -15.3284 327.328 -16 326.5 -16C325.672 -16 325 -15.3284 325 -14.5C325 -13.6716 325.672 -13 326.5 -13ZM178 0.5C178 1.32843 177.328 2 176.5 2C175.672 2 175 1.32843 175 0.5C175 -0.328426 175.672 -1 176.5 -1C177.328 -1 178 -0.328426 178 0.5ZM191.5 2C192.328 2 193 1.32843 193 0.5C193 -0.328426 192.328 -1 191.5 -1C190.672 -1 190 -0.328426 190 0.5C190 1.32843 190.672 2 191.5 2ZM208 0.5C208 1.32843 207.328 2 206.5 2C205.672 2 205 1.32843 205 0.5C205 -0.328426 205.672 -1 206.5 -1C207.328 -1 208 -0.328426 208 0.5ZM221.5 2C222.328 2 223 1.32843 223 0.5C223 -0.328426 222.328 -1 221.5 -1C220.672 -1 220 -0.328426 220 0.5C220 1.32843 220.672 2 221.5 2ZM238 0.5C238 1.32843 237.328 2 236.5 2C235.672 2 235 1.32843 235 0.5C235 -0.328426 235.672 -1 236.5 -1C237.328 -1 238 -0.328426 238 0.5ZM251.5 2C252.328 2 253 1.32843 253 0.5C253 -0.328426 252.328 -1 251.5 -1C250.672 -1 250 -0.328426 250 0.5C250 1.32843 250.672 2 251.5 2ZM268 0.5C268 1.32843 267.328 2 266.5 2C265.672 2 265 1.32843 265 0.5C265 -0.328426 265.672 -1 266.5 -1C267.328 -1 268 -0.328426 268 0.5ZM281.5 2C282.328 2 283 1.32843 283 0.5C283 -0.328426 282.328 -1 281.5 -1C280.672 -1 280 -0.328426 280 0.5C280 1.32843 280.672 2 281.5 2ZM298 0.5C298 1.32843 297.328 2 296.5 2C295.672 2 295 1.32843 295 0.5C295 -0.328426 295.672 -1 296.5 -1C297.328 -1 298 -0.328426 298 0.5ZM311.5 2C312.328 2 313 1.32843 313 0.5C313 -0.328426 312.328 -1 311.5 -1C310.672 -1 310 -0.328426 310 0.5C310 1.32843 310.672 2 311.5 2ZM328 0.5C328 1.32843 327.328 2 326.5 2C325.672 2 325 1.32843 325 0.5C325 -0.328426 325.672 -1 326.5 -1C327.328 -1 328 -0.328426 328 0.5ZM176.5 17C177.328 17 178 16.3284 178 15.5C178 14.6716 177.328 14 176.5 14C175.672 14 175 14.6716 175 15.5C175 16.3284 175.672 17 176.5 17ZM193 15.5C193 16.3284 192.328 17 191.5 17C190.672 17 190 16.3284 190 15.5C190 14.6716 190.672 14 191.5 14C192.328 14 193 14.6716 193 15.5ZM206.5 17C207.328 17 208 16.3284 208 15.5C208 14.6716 207.328 14 206.5 14C205.672 14 205 14.6716 205 15.5C205 16.3284 205.672 17 206.5 17ZM223 15.5C223 16.3284 222.328 17 221.5 17C220.672 17 220 16.3284 220 15.5C220 14.6716 220.672 14 221.5 14C222.328 14 223 14.6716 223 15.5ZM236.5 17C237.328 17 238 16.3284 238 15.5C238 14.6716 237.328 14 236.5 14C235.672 14 235 14.6716 235 15.5C235 16.3284 235.672 17 236.5 17ZM253 15.5C253 16.3284 252.328 17 251.5 17C250.672 17 250 16.3284 250 15.5C250 14.6716 250.672 14 251.5 14C252.328 14 253 14.6716 253 15.5ZM266.5 17C267.328 17 268 16.3284 268 15.5C268 14.6716 267.328 14 266.5 14C265.672 14 265 14.6716 265 15.5C265 16.3284 265.672 17 266.5 17ZM283 15.5C283 16.3284 282.328 17 281.5 17C280.672 17 280 16.3284 280 15.5C280 14.6716 280.672 14 281.5 14C282.328 14 283 14.6716 283 15.5ZM296.5 17C297.328 17 298 16.3284 298 15.5C298 14.6716 297.328 14 296.5 14C295.672 14 295 14.6716 295 15.5C295 16.3284 295.672 17 296.5 17ZM313 15.5C313 16.3284 312.328 17 311.5 17C310.672 17 310 16.3284 310 15.5C310 14.6716 310.672 14 311.5 14C312.328 14 313 14.6716 313 15.5ZM326.5 17C327.328 17 328 16.3284 328 15.5C328 14.6716 327.328 14 326.5 14C325.672 14 325 14.6716 325 15.5C325 16.3284 325.672 17 326.5 17ZM178 30.5C178 31.3284 177.328 32 176.5 32C175.672 32 175 31.3284 175 30.5C175 29.6716 175.672 29 176.5 29C177.328 29 178 29.6716 178 30.5ZM191.5 32C192.328 32 193 31.3284 193 30.5C193 29.6716 192.328 29 191.5 29C190.672 29 190 29.6716 190 30.5C190 31.3284 190.672 32 191.5 32ZM208 30.5C208 31.3284 207.328 32 206.5 32C205.672 32 205 31.3284 205 30.5C205 29.6716 205.672 29 206.5 29C207.328 29 208 29.6716 208 30.5ZM221.5 32C222.328 32 223 31.3284 223 30.5C223 29.6716 222.328 29 221.5 29C220.672 29 220 29.6716 220 30.5C220 31.3284 220.672 32 221.5 32ZM238 30.5C238 31.3284 237.328 32 236.5 32C235.672 32 235 31.3284 235 30.5C235 29.6716 235.672 29 236.5 29C237.328 29 238 29.6716 238 30.5ZM251.5 32C252.328 32 253 31.3284 253 30.5C253 29.6716 252.328 29 251.5 29C250.672 29 250 29.6716 250 30.5C250 31.3284 250.672 32 251.5 32ZM268 30.5C268 31.3284 267.328 32 266.5 32C265.672 32 265 31.3284 265 30.5C265 29.6716 265.672 29 266.5 29C267.328 29 268 29.6716 268 30.5ZM281.5 32C282.328 32 283 31.3284 283 30.5C283 29.6716 282.328 29 281.5 29C280.672 29 280 29.6716 280 30.5C280 31.3284 280.672 32 281.5 32ZM298 30.5C298 31.3284 297.328 32 296.5 32C295.672 32 295 31.3284 295 30.5C295 29.6716 295.672 29 296.5 29C297.328 29 298 29.6716 298 30.5ZM311.5 32C312.328 32 313 31.3284 313 30.5C313 29.6716 312.328 29 311.5 29C310.672 29 310 29.6716 310 30.5C310 31.3284 310.672 32 311.5 32ZM328 30.5C328 31.3284 327.328 32 326.5 32C325.672 32 325 31.3284 325 30.5C325 29.6716 325.672 29 326.5 29C327.328 29 328 29.6716 328 30.5ZM176.5 47C177.328 47 178 46.3284 178 45.5C178 44.6716 177.328 44 176.5 44C175.672 44 175 44.6716 175 45.5C175 46.3284 175.672 47 176.5 47ZM193 45.5C193 46.3284 192.328 47 191.5 47C190.672 47 190 46.3284 190 45.5C190 44.6716 190.672 44 191.5 44C192.328 44 193 44.6716 193 45.5ZM206.5 47C207.328 47 208 46.3284 208 45.5C208 44.6716 207.328 44 206.5 44C205.672 44 205 44.6716 205 45.5C205 46.3284 205.672 47 206.5 47ZM223 45.5C223 46.3284 222.328 47 221.5 47C220.672 47 220 46.3284 220 45.5C220 44.6716 220.672 44 221.5 44C222.328 44 223 44.6716 223 45.5ZM236.5 47C237.328 47 238 46.3284 238 45.5C238 44.6716 237.328 44 236.5 44C235.672 44 235 44.6716 235 45.5C235 46.3284 235.672 47 236.5 47ZM253 45.5C253 46.3284 252.328 47 251.5 47C250.672 47 250 46.3284 250 45.5C250 44.6716 250.672 44 251.5 44C252.328 44 253 44.6716 253 45.5ZM266.5 47C267.328 47 268 46.3284 268 45.5C268 44.6716 267.328 44 266.5 44C265.672 44 265 44.6716 265 45.5C265 46.3284 265.672 47 266.5 47ZM283 45.5C283 46.3284 282.328 47 281.5 47C280.672 47 280 46.3284 280 45.5C280 44.6716 280.672 44 281.5 44C282.328 44 283 44.6716 283 45.5ZM296.5 47C297.328 47 298 46.3284 298 45.5C298 44.6716 297.328 44 296.5 44C295.672 44 295 44.6716 295 45.5C295 46.3284 295.672 47 296.5 47ZM313 45.5C313 46.3284 312.328 47 311.5 47C310.672 47 310 46.3284 310 45.5C310 44.6716 310.672 44 311.5 44C312.328 44 313 44.6716 313 45.5ZM326.5 47C327.328 47 328 46.3284 328 45.5C328 44.6716 327.328 44 326.5 44C325.672 44 325 44.6716 325 45.5C325 46.3284 325.672 47 326.5 47ZM178 60.5C178 61.3284 177.328 62 176.5 62C175.672 62 175 61.3284 175 60.5C175 59.6716 175.672 59 176.5 59C177.328 59 178 59.6716 178 60.5ZM191.5 62C192.328 62 193 61.3284 193 60.5C193 59.6716 192.328 59 191.5 59C190.672 59 190 59.6716 190 60.5C190 61.3284 190.672 62 191.5 62ZM208 60.5C208 61.3284 207.328 62 206.5 62C205.672 62 205 61.3284 205 60.5C205 59.6716 205.672 59 206.5 59C207.328 59 208 59.6716 208 60.5ZM221.5 62C222.328 62 223 61.3284 223 60.5C223 59.6716 222.328 59 221.5 59C220.672 59 220 59.6716 220 60.5C220 61.3284 220.672 62 221.5 62ZM238 60.5C238 61.3284 237.328 62 236.5 62C235.672 62 235 61.3284 235 60.5C235 59.6716 235.672 59 236.5 59C237.328 59 238 59.6716 238 60.5ZM251.5 62C252.328 62 253 61.3284 253 60.5C253 59.6716 252.328 59 251.5 59C250.672 59 250 59.6716 250 60.5C250 61.3284 250.672 62 251.5 62ZM268 60.5C268 61.3284 267.328 62 266.5 62C265.672 62 265 61.3284 265 60.5C265 59.6716 265.672 59 266.5 59C267.328 59 268 59.6716 268 60.5ZM281.5 62C282.328 62 283 61.3284 283 60.5C283 59.6716 282.328 59 281.5 59C280.672 59 280 59.6716 280 60.5C280 61.3284 280.672 62 281.5 62ZM298 60.5C298 61.3284 297.328 62 296.5 62C295.672 62 295 61.3284 295 60.5C295 59.6716 295.672 59 296.5 59C297.328 59 298 59.6716 298 60.5ZM311.5 62C312.328 62 313 61.3284 313 60.5C313 59.6716 312.328 59 311.5 59C310.672 59 310 59.6716 310 60.5C310 61.3284 310.672 62 311.5 62ZM328 60.5C328 61.3284 327.328 62 326.5 62C325.672 62 325 61.3284 325 60.5C325 59.6716 325.672 59 326.5 59C327.328 59 328 59.6716 328 60.5ZM176.5 77C177.328 77 178 76.3284 178 75.5C178 74.6716 177.328 74 176.5 74C175.672 74 175 74.6716 175 75.5C175 76.3284 175.672 77 176.5 77ZM193 75.5C193 76.3284 192.328 77 191.5 77C190.672 77 190 76.3284 190 75.5C190 74.6716 190.672 74 191.5 74C192.328 74 193 74.6716 193 75.5ZM206.5 77C207.328 77 208 76.3284 208 75.5C208 74.6716 207.328 74 206.5 74C205.672 74 205 74.6716 205 75.5C205 76.3284 205.672 77 206.5 77ZM223 75.5C223 76.3284 222.328 77 221.5 77C220.672 77 220 76.3284 220 75.5C220 74.6716 220.672 74 221.5 74C222.328 74 223 74.6716 223 75.5ZM236.5 77C237.328 77 238 76.3284 238 75.5C238 74.6716 237.328 74 236.5 74C235.672 74 235 74.6716 235 75.5C235 76.3284 235.672 77 236.5 77ZM253 75.5C253 76.3284 252.328 77 251.5 77C250.672 77 250 76.3284 250 75.5C250 74.6716 250.672 74 251.5 74C252.328 74 253 74.6716 253 75.5ZM266.5 77C267.328 77 268 76.3284 268 75.5C268 74.6716 267.328 74 266.5 74C265.672 74 265 74.6716 265 75.5C265 76.3284 265.672 77 266.5 77ZM283 75.5C283 76.3284 282.328 77 281.5 77C280.672 77 280 76.3284 280 75.5C280 74.6716 280.672 74 281.5 74C282.328 74 283 74.6716 283 75.5ZM296.5 77C297.328 77 298 76.3284 298 75.5C298 74.6716 297.328 74 296.5 74C295.672 74 295 74.6716 295 75.5C295 76.3284 295.672 77 296.5 77ZM313 75.5C313 76.3284 312.328 77 311.5 77C310.672 77 310 76.3284 310 75.5C310 74.6716 310.672 74 311.5 74C312.328 74 313 74.6716 313 75.5ZM326.5 77C327.328 77 328 76.3284 328 75.5C328 74.6716 327.328 74 326.5 74C325.672 74 325 74.6716 325 75.5C325 76.3284 325.672 77 326.5 77Z" fill="url(#paint2_linear_918_27759)"/>
<path d="M64.043 120H67.2129C69.7441 120 71.1914 118.447 71.1914 115.74V115.729C71.1914 113.08 69.7266 111.545 67.2129 111.545H64.043V120ZM65.5547 118.729V112.816H67.0137C68.6719 112.816 69.6504 113.895 69.6504 115.752V115.764C69.6504 117.662 68.6953 118.729 67.0137 118.729H65.5547ZM75.5391 120.129C77.4551 120.129 78.6211 118.875 78.6211 116.801V116.789C78.6211 114.727 77.4492 113.473 75.5391 113.473C73.6348 113.473 72.457 114.732 72.457 116.789V116.801C72.457 118.875 73.6172 120.129 75.5391 120.129ZM75.5391 118.945C74.5254 118.945 73.9453 118.154 73.9453 116.807V116.795C73.9453 115.447 74.5254 114.65 75.5391 114.65C76.5469 114.65 77.127 115.447 77.127 116.795V116.807C77.127 118.154 76.5527 118.945 75.5391 118.945ZM82.834 120.129C84.457 120.129 85.4004 119.256 85.6113 117.943L85.623 117.896L84.2461 117.902L84.2344 117.926C84.0527 118.6 83.5898 118.945 82.834 118.945C81.8438 118.945 81.252 118.148 81.252 116.789V116.777C81.252 115.436 81.8379 114.65 82.834 114.65C83.6309 114.65 84.1055 115.096 84.2402 115.717L84.2461 115.734H85.623V115.711C85.459 114.387 84.4746 113.473 82.8281 113.473C80.9004 113.473 79.7695 114.709 79.7695 116.777V116.789C79.7695 118.881 80.9062 120.129 82.834 120.129ZM89.1328 120.129C90.0586 120.129 90.709 119.713 91.0078 119.027H91.1074V120H92.5664V113.596H91.1074V117.328C91.1074 118.289 90.6035 118.898 89.6602 118.898C88.7812 118.898 88.4121 118.395 88.4121 117.404V113.596H86.9531V117.738C86.9531 119.262 87.6914 120.129 89.1328 120.129ZM94.3477 120H95.8066V116.104C95.8066 115.307 96.334 114.697 97.0547 114.697C97.7695 114.697 98.209 115.137 98.209 115.846V120H99.668V115.998C99.668 115.266 100.16 114.697 100.922 114.697C101.701 114.697 102.082 115.119 102.082 115.951V120H103.541V115.594C103.541 114.264 102.768 113.473 101.479 113.473C100.588 113.473 99.8496 113.93 99.5391 114.627H99.4395C99.1641 113.918 98.5312 113.473 97.6641 113.473C96.8262 113.473 96.1816 113.877 95.9062 114.592H95.8066V113.596H94.3477V120ZM108.012 120.129C109.752 120.129 110.607 119.127 110.812 118.301L110.83 118.248H109.441L109.424 118.289C109.283 118.582 108.832 118.98 108.041 118.98C107.051 118.98 106.43 118.312 106.412 117.164H110.889V116.684C110.889 114.75 109.764 113.473 107.941 113.473C106.119 113.473 104.953 114.791 104.953 116.807V116.812C104.953 118.852 106.107 120.129 108.012 120.129ZM107.959 114.615C108.773 114.615 109.365 115.137 109.465 116.186H106.424C106.535 115.166 107.145 114.615 107.959 114.615ZM112.348 120H113.807V116.268C113.807 115.307 114.346 114.697 115.213 114.697C116.098 114.697 116.502 115.201 116.502 116.197V120H117.961V115.857C117.961 114.334 117.182 113.473 115.752 113.473C114.826 113.473 114.211 113.889 113.906 114.574H113.807V113.596H112.348V120ZM122.203 120.029C122.484 120.029 122.754 120.006 122.965 119.965V118.84C122.789 118.857 122.678 118.863 122.473 118.863C121.863 118.863 121.611 118.594 121.611 117.955V114.727H122.965V113.596H121.611V112.025H120.129V113.596H119.133V114.727H120.129V118.301C120.129 119.537 120.732 120.029 122.203 120.029ZM126.164 120.105C127.008 120.105 127.688 119.742 128.039 119.121H128.139V120H129.58V115.623C129.58 114.27 128.654 113.473 127.008 113.473C125.484 113.473 124.453 114.188 124.312 115.266L124.307 115.318H125.684L125.689 115.295C125.836 114.873 126.27 114.633 126.938 114.633C127.723 114.633 128.139 114.984 128.139 115.623V116.174L126.492 116.273C124.934 116.367 124.061 117.035 124.061 118.178V118.189C124.061 119.355 124.945 120.105 126.164 120.105ZM125.502 118.119V118.107C125.502 117.58 125.883 117.281 126.697 117.229L128.139 117.135V117.65C128.139 118.412 127.488 118.986 126.609 118.986C125.965 118.986 125.502 118.664 125.502 118.119ZM133.852 120.029C134.133 120.029 134.402 120.006 134.613 119.965V118.84C134.438 118.857 134.326 118.863 134.121 118.863C133.512 118.863 133.26 118.594 133.26 117.955V114.727H134.613V113.596H133.26V112.025H131.777V113.596H130.781V114.727H131.777V118.301C131.777 119.537 132.381 120.029 133.852 120.029ZM136.816 112.523C137.291 112.523 137.684 112.143 137.684 111.662C137.684 111.188 137.291 110.801 136.816 110.801C136.336 110.801 135.943 111.188 135.943 111.662C135.943 112.143 136.336 112.523 136.816 112.523ZM136.084 120H137.543V113.596H136.084V120ZM142.102 120.129C144.018 120.129 145.184 118.875 145.184 116.801V116.789C145.184 114.727 144.012 113.473 142.102 113.473C140.197 113.473 139.02 114.732 139.02 116.789V116.801C139.02 118.875 140.18 120.129 142.102 120.129ZM142.102 118.945C141.088 118.945 140.508 118.154 140.508 116.807V116.795C140.508 115.447 141.088 114.65 142.102 114.65C143.109 114.65 143.689 115.447 143.689 116.795V116.807C143.689 118.154 143.115 118.945 142.102 118.945ZM146.648 120H148.107V116.268C148.107 115.307 148.646 114.697 149.514 114.697C150.398 114.697 150.803 115.201 150.803 116.197V120H152.262V115.857C152.262 114.334 151.482 113.473 150.053 113.473C149.127 113.473 148.512 113.889 148.207 114.574H148.107V113.596H146.648V120Z" fill="#0068A0"/>
<mask id="mask0_918_27759" style="mask-type:alpha" maskUnits="userSpaceOnUse" x="88" y="40" width="40" height="40">
<rect x="88" y="40" width="40" height="40" fill="#D9D9D9"/>
</mask>
<g mask="url(#mask0_918_27759)">
<path d="M111.25 54.792C111.25 54.6527 111.299 54.5067 111.396 54.354C111.493 54.2013 111.611 54.111 111.75 54.083C112.583 53.7223 113.451 53.4517 114.354 53.271C115.257 53.0903 116.194 53 117.167 53C117.75 53 118.306 53.0277 118.833 53.083C119.361 53.139 119.889 53.2363 120.417 53.375C120.556 53.403 120.687 53.4863 120.812 53.625C120.937 53.7637 121 53.9303 121 54.125C121 54.403 120.91 54.6183 120.729 54.771C120.548 54.9237 120.305 54.9583 120 54.875C119.555 54.7637 119.097 54.6873 118.625 54.646C118.153 54.604 117.667 54.583 117.167 54.583C116.306 54.583 115.479 54.6597 114.688 54.813C113.896 54.9657 113.125 55.1947 112.375 55.5C112.042 55.6387 111.771 55.6387 111.562 55.5C111.354 55.3613 111.25 55.1253 111.25 54.792ZM111.25 63.875C111.25 63.7363 111.299 63.5907 111.396 63.438C111.493 63.2847 111.611 63.1803 111.75 63.125C112.555 62.7917 113.423 62.5347 114.354 62.354C115.285 62.1733 116.222 62.083 117.167 62.083C117.75 62.083 118.306 62.118 118.833 62.188C119.361 62.2573 119.889 62.3473 120.417 62.458C120.556 62.514 120.687 62.6113 120.812 62.75C120.937 62.8887 121 63.0413 121 63.208C121 63.514 120.91 63.7363 120.729 63.875C120.548 64.0137 120.305 64.0553 120 64C119.555 63.8887 119.097 63.8053 118.625 63.75C118.153 63.6947 117.667 63.667 117.167 63.667C116.334 63.667 115.514 63.7503 114.708 63.917C113.903 64.0837 113.139 64.3197 112.417 64.625C112.056 64.7637 111.771 64.7637 111.562 64.625C111.354 64.4863 111.25 64.2363 111.25 63.875ZM111.25 59.333C111.25 59.1943 111.299 59.0487 111.396 58.896C111.493 58.7433 111.611 58.639 111.75 58.583C112.583 58.2497 113.451 57.9927 114.354 57.812C115.257 57.632 116.194 57.542 117.167 57.542C117.75 57.542 118.306 57.5767 118.833 57.646C119.361 57.7153 119.889 57.8057 120.417 57.917C120.556 57.9723 120.687 58.0627 120.812 58.188C120.937 58.3127 121 58.4723 121 58.667C121 58.9723 120.91 59.1943 120.729 59.333C120.548 59.4723 120.305 59.5003 120 59.417C119.555 59.3337 119.097 59.264 118.625 59.208C118.153 59.1527 117.667 59.125 117.167 59.125C116.334 59.125 115.514 59.2083 114.708 59.375C113.903 59.5417 113.139 59.7777 112.417 60.083C112.056 60.2223 111.771 60.2223 111.562 60.083C111.354 59.9443 111.25 59.6943 111.25 59.333ZM98.583 67.125C100.056 67.125 101.486 67.2917 102.875 67.625C104.264 67.9583 105.639 68.486 107 69.208V52.167C105.778 51.3057 104.438 50.6527 102.979 50.208C101.521 49.764 100.056 49.542 98.583 49.542C97.5557 49.542 96.6043 49.639 95.729 49.833C94.8543 50.0277 93.9307 50.3057 92.958 50.667C92.8193 50.6943 92.7223 50.7497 92.667 50.833C92.611 50.9163 92.583 51.0137 92.583 51.125V67.667C92.583 67.8057 92.6387 67.9097 92.75 67.979C92.8613 68.0483 92.9863 68.0553 93.125 68C93.847 67.6947 94.6803 67.4723 95.625 67.333C96.5697 67.1943 97.5557 67.125 98.583 67.125ZM109.083 69.208C110.444 68.486 111.806 67.9583 113.167 67.625C114.528 67.2917 115.944 67.125 117.417 67.125C118.444 67.125 119.437 67.1943 120.396 67.333C121.354 67.4723 122.18 67.667 122.875 67.917C123.014 67.9723 123.139 67.9653 123.25 67.896C123.361 67.8267 123.417 67.7087 123.417 67.542V51.125C123.417 51.0137 123.389 50.9233 123.333 50.854C123.278 50.7847 123.181 50.7223 123.042 50.667C122.125 50.2777 121.215 49.993 120.312 49.813C119.409 49.6323 118.444 49.542 117.417 49.542C115.944 49.542 114.493 49.764 113.062 50.208C111.632 50.6527 110.306 51.3057 109.083 52.167V69.208ZM108.042 71.792C107.819 71.792 107.604 71.771 107.396 71.729C107.187 71.6877 107 71.6113 106.833 71.5C105.556 70.75 104.222 70.1807 102.833 69.792C101.444 69.4027 100.028 69.208 98.583 69.208C97.639 69.208 96.7153 69.3123 95.812 69.521C94.9093 69.729 94.0137 69.9997 93.125 70.333C92.4863 70.611 91.889 70.5557 91.333 70.167C90.7777 69.7777 90.5 69.236 90.5 68.542V50.833C90.5 50.4163 90.604 50.0347 90.812 49.688C91.0207 49.3407 91.3193 49.0837 91.708 48.917C92.7913 48.417 93.9093 48.049 95.062 47.813C96.2153 47.5763 97.389 47.458 98.583 47.458C100.278 47.458 101.924 47.6943 103.521 48.167C105.118 48.639 106.625 49.3473 108.042 50.292C109.431 49.3473 110.924 48.639 112.521 48.167C114.118 47.6943 115.75 47.458 117.417 47.458C118.611 47.458 119.785 47.5763 120.938 47.813C122.091 48.049 123.209 48.417 124.292 48.917C124.681 49.0837 124.979 49.3407 125.188 49.688C125.396 50.0347 125.5 50.4163 125.5 50.833V68.542C125.5 69.264 125.201 69.8127 124.604 70.188C124.007 70.5627 123.389 70.5973 122.75 70.292C121.889 69.9587 121.014 69.6947 120.125 69.5C119.236 69.3053 118.334 69.208 117.417 69.208C115.972 69.208 114.563 69.4027 113.188 69.792C111.813 70.1807 110.5 70.75 109.25 71.5C109.083 71.6113 108.896 71.6877 108.688 71.729C108.479 71.771 108.264 71.792 108.042 71.792Z" fill="#0068A0"/>
</g>
</g>
</g>
<defs>
<filter id="filter0_ddd_918_27759" x="0" y="0" width="217" height="173" filterUnits="userSpaceOnUse" color-interpolation-filters="sRGB">
<feFlood flood-opacity="0" result="BackgroundImageFix"/>
<feColorMatrix in="SourceAlpha" type="matrix" values="0 0 0 0 0 0 0 0 0 0 0 0 0 0 0 0 0 0 127 0" result="hardAlpha"/>
<feOffset dy="12"/>
<feGaussianBlur stdDeviation="10"/>
<feComposite in2="hardAlpha" operator="out"/>
<feColorMatrix type="matrix" values="0 0 0 0 0 0 0 0 0 0 0 0 0 0 0 0 0 0 0.03 0"/>
<feBlend mode="normal" in2="BackgroundImageFix" result="effect1_dropShadow_918_27759"/>
<feColorMatrix in="SourceAlpha" type="matrix" values="0 0 0 0 0 0 0 0 0 0 0 0 0 0 0 0 0 0 127 0" result="hardAlpha"/>
<feOffset dy="1"/>
<feGaussianBlur stdDeviation="1"/>
<feColorMatrix type="matrix" values="0 0 0 0 0 0 0 0 0 0 0 0 0 0 0 0 0 0 0.05 0"/>
<feBlend mode="normal" in2="effect1_dropShadow_918_27759" result="effect2_dropShadow_918_27759"/>
<feColorMatrix in="SourceAlpha" type="matrix" values="0 0 0 0 0 0 0 0 0 0 0 0 0 0 0 0 0 0 127 0" result="hardAlpha"/>
<feMorphology radius="1" operator="dilate" in="SourceAlpha" result="effect3_dropShadow_918_27759"/>
<feOffset/>
<feColorMatrix type="matrix" values="0 0 0 0 0.0848611 0 0 0 0 0.448067 0 0 0 0 0.783333 0 0 0 0.09 0"/>
<feBlend mode="normal" in2="effect2_dropShadow_918_27759" result="effect3_dropShadow_918_27759"/>
<feBlend mode="normal" in="SourceGraphic" in2="effect3_dropShadow_918_27759" result="shape"/>
</filter>
<linearGradient id="paint0_linear_918_27759" x1="85.5" y1="-15" x2="85.5" y2="93" gradientUnits="userSpaceOnUse">
<stop stop-color="#0068A0" stop-opacity="0.2"/>
<stop offset="1" stop-color="#0068A0" stop-opacity="0"/>
</linearGradient>
<linearGradient id="paint1_linear_918_27759" x1="109.5" y1="-23" x2="109.5" y2="85" gradientUnits="userSpaceOnUse">
<stop stop-color="#0068A0" stop-opacity="0.2"/>
<stop offset="1" stop-color="#0068A0" stop-opacity="0"/>
</linearGradient>
<linearGradient id="paint2_linear_918_27759" x1="251.5" y1="-31" x2="251.5" y2="77" gradientUnits="userSpaceOnUse">
<stop stop-color="#0068A0" stop-opacity="0.2"/>
<stop offset="1" stop-color="#0068A0" stop-opacity="0"/>
</linearGradient>
<clipPath id="clip0_918_27759">
<rect x="20" y="8" width="177" height="133" rx="4" fill="white"/>
</clipPath>
</defs>
</svg>
