<svg width="19" height="15" viewBox="0 0 19 15" fill="none" xmlns="http://www.w3.org/2000/svg">
<path d="M6.44909 14.8851C6.0337 14.8851 5.67986 14.739 5.38756 14.4467C5.09526 14.1544 4.94911 13.8005 4.94911 13.3852V11.789C4.94911 11.5314 5.03533 11.3163 5.20776 11.1439C5.38019 10.9714 5.59526 10.8852 5.85296 10.8852H7.83371V8.13516C7.22474 8.18518 6.6225 8.11051 6.02699 7.91114C5.43147 7.71179 4.91704 7.39031 4.48371 6.94671V5.69286H3.19909L0.924085 3.41789C0.679219 3.173 0.558385 2.923 0.561585 2.66789C0.564802 2.41275 0.685635 2.19417 0.924085 2.01214C1.37537 1.65957 1.92954 1.37655 2.58659 1.16309C3.24364 0.949637 3.95934 0.842912 4.73369 0.842912C5.27985 0.842912 5.81031 0.905089 6.32506 1.02944C6.83981 1.15381 7.34269 1.35894 7.83371 1.64484V0.942912C7.83371 0.685212 7.91994 0.470146 8.09239 0.297713C8.26482 0.125279 8.47988 0.0390625 8.73756 0.0390625H17.9298C18.1875 0.0390625 18.4026 0.125279 18.575 0.297713C18.7474 0.470146 18.8337 0.685212 18.8337 0.942912V12.3852C18.8337 13.0839 18.5917 13.6752 18.1077 14.1592C17.6237 14.6432 17.0324 14.8851 16.3337 14.8851H6.44909ZM9.33369 10.8852H14.4491C14.7068 10.8852 14.9186 10.9682 15.0847 11.1342C15.2507 11.3003 15.3337 11.5121 15.3337 11.7698V12.3852C15.3337 12.6685 15.4295 12.906 15.6212 13.0977C15.8129 13.2893 16.0504 13.3852 16.3337 13.3852C16.617 13.3852 16.8545 13.2893 17.0462 13.0977C17.2379 12.906 17.3337 12.6685 17.3337 12.3852V1.53904H9.33369V2.63906L14.7837 8.08904C14.9003 8.2057 14.9795 8.30603 15.0212 8.39001C15.0628 8.47398 15.0837 8.57494 15.0837 8.69289C15.0837 8.89929 15.0103 9.07589 14.8635 9.22269C14.7167 9.36947 14.5401 9.44286 14.3337 9.44286C14.2157 9.44286 14.1132 9.42043 14.026 9.37556C13.9388 9.33068 13.8369 9.24991 13.7202 9.13324L11.0837 6.49671L10.701 6.87941C10.4869 7.09351 10.2683 7.2794 10.0452 7.43709C9.82214 7.59479 9.58497 7.72364 9.33369 7.82364V10.8852ZM3.83754 4.19291H5.98366V6.24674C6.25418 6.41854 6.517 6.53585 6.77214 6.59866C7.02727 6.6615 7.28112 6.69291 7.53369 6.69291C7.95549 6.69291 8.33658 6.62496 8.67696 6.48906C9.01734 6.35316 9.34395 6.1288 9.65679 5.81596L10.0299 5.44289L8.45679 3.86979C7.9478 3.36082 7.37729 2.97909 6.74524 2.72459C6.11319 2.4701 5.44267 2.34286 4.73369 2.34286C4.32342 2.34286 3.92822 2.3871 3.54809 2.47556C3.16795 2.56403 2.81186 2.68391 2.47981 2.83519L3.83754 4.19291ZM6.44909 13.3852H14.0607C13.9786 13.2416 13.9203 13.0849 13.8856 12.915C13.851 12.7451 13.8337 12.5685 13.8337 12.3852H6.44909V13.3852Z" fill="#696D80"/>
</svg>
