<svg width="16" height="10" viewBox="0 0 16 10" fill="none" xmlns="http://www.w3.org/2000/svg">
<path d="M8 0.166016C8.61884 0.166016 9.21233 0.411848 9.64992 0.849433C10.0875 1.28702 10.3333 1.88051 10.3333 2.49935C10.3333 3.11819 10.0875 3.71168 9.64992 4.14926C9.21233 4.58685 8.61884 4.83268 8 4.83268C7.38116 4.83268 6.78767 4.58685 6.35008 4.14926C5.9125 3.71168 5.66667 3.11819 5.66667 2.49935C5.66667 1.88051 5.9125 1.28702 6.35008 0.849433C6.78767 0.411848 7.38116 0.166016 8 0.166016ZM3.33333 1.83268C3.70667 1.83268 4.05333 1.93268 4.35333 2.11268C4.25333 3.06602 4.53333 4.01268 5.10667 4.75268C4.77333 5.39268 4.10667 5.83268 3.33333 5.83268C2.8029 5.83268 2.29419 5.62197 1.91912 5.2469C1.54405 4.87182 1.33333 4.36311 1.33333 3.83268C1.33333 3.30225 1.54405 2.79354 1.91912 2.41847C2.29419 2.0434 2.8029 1.83268 3.33333 1.83268ZM12.6667 1.83268C13.1971 1.83268 13.7058 2.0434 14.0809 2.41847C14.456 2.79354 14.6667 3.30225 14.6667 3.83268C14.6667 4.36311 14.456 4.87182 14.0809 5.2469C13.7058 5.62197 13.1971 5.83268 12.6667 5.83268C11.8933 5.83268 11.2267 5.39268 10.8933 4.75268C11.4746 4.00229 11.7444 3.05681 11.6467 2.11268C11.9467 1.93268 12.2933 1.83268 12.6667 1.83268ZM3.66667 8.66601C3.66667 7.28602 5.60667 6.16602 8 6.16602C10.3933 6.16602 12.3333 7.28602 12.3333 8.66601V9.83268H3.66667V8.66601ZM0 9.83268V8.83268C0 7.90602 1.26 7.12602 2.96667 6.89935C2.57333 7.35268 2.33333 7.97935 2.33333 8.66601V9.83268H0ZM16 9.83268H13.6667V8.66601C13.6667 7.97935 13.4267 7.35268 13.0333 6.89935C14.74 7.12602 16 7.90602 16 8.83268V9.83268Z" fill="white"/>
</svg>
