<svg width="88" height="88" viewBox="0 0 88 88" fill="none" xmlns="http://www.w3.org/2000/svg">
    <rect width="88" height="88" rx="44" fill="url(#paint0_linear_284_5853)"/>
    <mask id="mask0_284_5853" style="mask-type:alpha" maskUnits="userSpaceOnUse" x="24" y="24" width="40" height="40">
        <rect x="24" y="24" width="40" height="40" fill="url(#paint1_linear_284_5853)"/>
    </mask>
    <g mask="url(#mask0_284_5853)">
        <path d="M41.6388 50.4449L53.25 38.8337L51.2779 36.8616L41.6388 46.5003L36.6946 41.5557L34.75 43.5003L41.6388 50.4449ZM31.7779 59.0003C31.014 59.0003 30.36 58.7284 29.8158 58.1845C29.2719 57.6403 29 56.9863 29 56.2224V31.7782C29 31.0144 29.2719 30.3603 29.8158 29.8162C30.36 29.2723 31.014 29.0003 31.7779 29.0003H39.8054C40.0185 28.0189 40.5163 27.218 41.2988 26.5974C42.081 25.9771 42.9814 25.667 44 25.667C45.0186 25.667 45.919 25.9771 46.7013 26.5974C47.4838 27.218 47.9815 28.0189 48.1946 29.0003H56.2221C56.986 29.0003 57.64 29.2723 58.1842 29.8162C58.7281 30.3603 59 31.0144 59 31.7782V56.2224C59 56.9863 58.7281 57.6403 58.1842 58.1845C57.64 58.7284 56.986 59.0003 56.2221 59.0003H31.7779ZM31.7779 56.2224H56.2221V31.7782H31.7779V56.2224ZM44 30.8891C44.3797 30.8891 44.7061 30.7525 44.9792 30.4795C45.2522 30.2064 45.3888 29.88 45.3888 29.5003C45.3888 29.1206 45.2522 28.7942 44.9792 28.5212C44.7061 28.2481 44.3797 28.1116 44 28.1116C43.6203 28.1116 43.2939 28.2481 43.0208 28.5212C42.7478 28.7942 42.6113 29.1206 42.6113 29.5003C42.6113 29.88 42.7478 30.2064 43.0208 30.4795C43.2939 30.7525 43.6203 30.8891 44 30.8891Z" fill="url(#paint2_linear_284_5853)"/>
    </g>
    <defs>
        <linearGradient id="paint0_linear_284_5853" x1="30.5684" y1="81.9789" x2="45.8526" y2="4.16842" gradientUnits="userSpaceOnUse">
            <stop stop-color="white"/>
            <stop offset="1" stop-color="#EFF2FF"/>
        </linearGradient>
        <linearGradient id="paint1_linear_284_5853" x1="44" y1="24" x2="44" y2="64" gradientUnits="userSpaceOnUse">
            <stop stop-color="#5B669A"/>
            <stop offset="1" stop-color="#243681"/>
        </linearGradient>
        <linearGradient id="paint2_linear_284_5853" x1="44" y1="25.667" x2="44" y2="59.0003" gradientUnits="userSpaceOnUse">
            <stop stop-color="#5B669A"/>
            <stop offset="1" stop-color="#243681"/>
        </linearGradient>
    </defs>
</svg>
