<svg width="88" height="88" viewBox="0 0 88 88" fill="none" xmlns="http://www.w3.org/2000/svg">
    <rect width="88" height="88" rx="44" fill="url(#paint0_linear_284_5867)"/>
    <mask id="mask0_284_5867" style="mask-type:alpha" maskUnits="userSpaceOnUse" x="24" y="24" width="40" height="40">
        <rect x="24" y="24" width="40" height="40" fill="#D9D9D9"/>
    </mask>
    <g mask="url(#mask0_284_5867)">
        <path d="M44.0002 60.6663C41.6577 60.6663 39.4725 60.2381 37.4447 59.3818C35.417 58.5251 33.6531 57.3468 32.1531 55.8468C30.6531 54.3468 29.4747 52.5829 28.6181 50.5551C27.7617 48.5273 27.3335 46.3422 27.3335 43.9997C27.3335 41.6755 27.7617 39.4995 28.6181 37.4718C29.4747 35.444 30.6531 33.6801 32.1531 32.1801C33.6531 30.6801 35.417 29.4973 37.4447 28.6318C39.4725 27.7659 41.6577 27.333 44.0002 27.333C45.991 27.333 47.8567 27.6431 49.5972 28.2634C51.3381 28.884 52.9168 29.7405 54.3335 30.833L52.3335 32.8468C51.1668 31.9765 49.8845 31.3029 48.4864 30.8259C47.0881 30.3493 45.5927 30.1109 44.0002 30.1109C40.0835 30.1109 36.7895 31.4465 34.1181 34.1176C31.447 36.789 30.1114 40.083 30.1114 43.9997C30.1114 47.9163 31.447 51.2104 34.1181 53.8818C36.7895 56.5529 40.0835 57.8884 44.0002 57.8884C47.9168 57.8884 51.2109 56.5529 53.8822 53.8818C56.5534 51.2104 57.8889 47.9163 57.8889 43.9997C57.8889 43.2775 57.8381 42.5691 57.7364 41.8747C57.6345 41.1802 57.4817 40.5043 57.2781 39.8468L59.4585 37.6663C59.8566 38.6477 60.1575 39.6662 60.3614 40.7218C60.565 41.7773 60.6668 42.87 60.6668 43.9997C60.6668 46.3422 60.2339 48.5273 59.3681 50.5551C58.5025 52.5829 57.3197 54.3468 55.8197 55.8468C54.3197 57.3468 52.5559 58.5251 50.5281 59.3818C48.5003 60.2381 46.3243 60.6663 44.0002 60.6663ZM41.5835 51.6109L34.6389 44.6384L36.6668 42.6109L41.5835 47.5276L58.6389 30.458L60.6947 32.4859L41.5835 51.6109Z" fill="url(#paint1_linear_284_5867)"/>
    </g>
    <defs>
        <linearGradient id="paint0_linear_284_5867" x1="30.5684" y1="81.9789" x2="45.8526" y2="4.16842" gradientUnits="userSpaceOnUse">
            <stop stop-color="white"/>
            <stop offset="1" stop-color="#EFF2FF"/>
        </linearGradient>
        <linearGradient id="paint1_linear_284_5867" x1="44.0141" y1="27.333" x2="44.0141" y2="60.6663" gradientUnits="userSpaceOnUse">
            <stop stop-color="#5B669A"/>
            <stop offset="1" stop-color="#243681"/>
        </linearGradient>
    </defs>
</svg>
