<svg width="88" height="88" viewBox="0 0 88 88" fill="none" xmlns="http://www.w3.org/2000/svg">
    <rect width="88" height="88" rx="44" fill="url(#paint0_linear_284_5859)"/>
    <path fill-rule="evenodd" clip-rule="evenodd" d="M42.6702 30.6706C44.6122 28.7287 47.246 27.6377 49.9923 27.6377C52.7386 27.6377 55.3725 28.7287 57.3144 30.6706C59.2563 32.6125 60.3473 35.2464 60.3473 37.9927C60.3473 40.7386 59.2567 43.3721 57.3153 45.3139L57.3144 45.3148L47.2058 55.4534C46.9525 55.7074 46.6085 55.8502 46.2498 55.8502H34.0592L29 60.9094L27.0908 59.0002L32.1498 53.9412V41.7502C32.1498 41.3922 32.292 41.0488 32.5452 40.7956L42.6702 30.6706ZM45.6894 53.1502H36.7592L40.0591 49.8503H48.9796L45.6894 53.1502ZM51.6716 47.1503L55.4052 43.4056C56.8408 41.97 57.6473 40.0229 57.6473 37.9927C57.6473 35.9625 56.8408 34.0154 55.4052 32.5798C53.9696 31.1442 52.0225 30.3377 49.9923 30.3377C47.9621 30.3377 46.015 31.1442 44.5794 32.5798L34.8498 42.3094V51.2412L50 36.091L51.9092 38.0002L42.7591 47.1503H51.6716Z" fill="url(#paint1_linear_284_5859)"/>
    <defs>
        <linearGradient id="paint0_linear_284_5859" x1="30.5684" y1="81.9789" x2="45.8526" y2="4.16842" gradientUnits="userSpaceOnUse">
            <stop stop-color="white"/>
            <stop offset="1" stop-color="#EFF2FF"/>
        </linearGradient>
        <linearGradient id="paint1_linear_284_5859" x1="43.7191" y1="27.6377" x2="43.7191" y2="60.9094" gradientUnits="userSpaceOnUse">
            <stop stop-color="#5B669A"/>
            <stop offset="1" stop-color="#243681"/>
        </linearGradient>
    </defs>
</svg>
