<svg width="16" height="17" viewBox="0 0 16 17" fill="none" xmlns="http://www.w3.org/2000/svg">
<path d="M8.00033 6.5C7.46989 6.5 6.96118 6.71071 6.58611 7.08579C6.21104 7.46086 6.00033 7.96957 6.00033 8.5C6.00033 9.03043 6.21104 9.53914 6.58611 9.91421C6.96118 10.2893 7.46989 10.5 8.00033 10.5C8.53076 10.5 9.03947 10.2893 9.41454 9.91421C9.78961 9.53914 10.0003 9.03043 10.0003 8.5C10.0003 7.96957 9.78961 7.46086 9.41454 7.08579C9.03947 6.71071 8.53076 6.5 8.00033 6.5ZM8.00033 11.8333C7.11627 11.8333 6.26842 11.4821 5.6433 10.857C5.01818 10.2319 4.66699 9.38406 4.66699 8.5C4.66699 7.61595 5.01818 6.7681 5.6433 6.14298C6.26842 5.51786 7.11627 5.16667 8.00033 5.16667C8.88438 5.16667 9.73223 5.51786 10.3573 6.14298C10.9825 6.7681 11.3337 7.61595 11.3337 8.5C11.3337 9.38406 10.9825 10.2319 10.3573 10.857C9.73223 11.4821 8.88438 11.8333 8.00033 11.8333ZM8.00033 3.5C4.66699 3.5 1.82033 5.57333 0.666992 8.5C1.82033 11.4267 4.66699 13.5 8.00033 13.5C11.3337 13.5 14.1803 11.4267 15.3337 8.5C14.1803 5.57333 11.3337 3.5 8.00033 3.5Z" fill="#141B38"/>
</svg>