<svg width="12" height="13" viewBox="0 0 12 13" fill="none" xmlns="http://www.w3.org/2000/svg">
<path d="M2.04948 12.1695C1.80522 12.1695 1.59429 12.0781 1.41669 11.8951C1.23909 11.7117 1.15029 11.4978 1.15029 11.2535C1.15029 10.9981 1.23909 10.7813 1.41669 10.6031C1.59429 10.4255 1.80522 10.3367 2.04948 10.3367H9.99988C10.2442 10.3367 10.458 10.4255 10.6415 10.6031C10.825 10.7813 10.9167 10.9981 10.9167 11.2535C10.9167 11.4978 10.825 11.7117 10.6415 11.8951C10.458 12.0781 10.2442 12.1695 9.99988 12.1695H2.04948ZM4.43348 8.65353C4.31082 8.65353 4.19402 8.63113 4.08309 8.58633C3.97215 8.54206 3.87215 8.4754 3.78309 8.38633L0.933485 5.56953C0.755352 5.39193 0.669219 5.1754 0.675085 4.91993C0.680419 4.66446 0.772152 4.44793 0.950285 4.27033C1.11669 4.0922 1.33322 4.00313 1.59989 4.00313C1.86655 4.00313 2.08869 4.0922 2.26629 4.27033L4.41668 6.41993L9.78308 1.03673C9.96068 0.858598 10.1802 0.769531 10.4415 0.769531C10.7028 0.769531 10.9223 0.858598 11.0999 1.03673C11.2775 1.20313 11.3663 1.4226 11.3663 1.69513C11.3663 1.96713 11.2775 2.19193 11.0999 2.36953L5.08309 8.38633C4.98335 8.4754 4.87775 8.54206 4.76628 8.58633C4.65535 8.63113 4.54442 8.65353 4.43348 8.65353Z" fill="#696D80"/>
</svg>
