<svg width="20" height="20" viewBox="0 0 20 20" fill="none" xmlns="http://www.w3.org/2000/svg">
<path d="M15.8335 6.66732L12.5002 10.0007H15.0002C15.0002 11.3267 14.4734 12.5985 13.5357 13.5362C12.598 14.4739 11.3262 15.0007 10.0002 15.0007C9.16683 15.0007 8.3585 14.7923 7.66683 14.4173L6.45016 15.634C7.51107 16.3092 8.74261 16.6677 10.0002 16.6673C11.7683 16.6673 13.464 15.9649 14.7142 14.7147C15.9644 13.4645 16.6668 11.7688 16.6668 10.0007H19.1668L15.8335 6.66732ZM5.00016 10.0007C5.00016 8.67457 5.52695 7.4028 6.46463 6.46512C7.40231 5.52744 8.67408 5.00065 10.0002 5.00065C10.8335 5.00065 11.6418 5.20898 12.3335 5.58398L13.5502 4.36732C12.4893 3.69211 11.2577 3.33363 10.0002 3.33398C8.23205 3.33398 6.53636 4.03636 5.28612 5.28661C4.03587 6.53685 3.3335 8.23254 3.3335 10.0007H0.833496L4.16683 13.334L7.50016 10.0007" fill="#141B38"/>
</svg>
