<svg width="16" height="16" viewBox="0 0 16 16" fill="none" xmlns="http://www.w3.org/2000/svg">
<g clip-path="url(#clip0_1132_46110)">
<path d="M0.666504 2.66699V6.66699H4.6665" stroke="#468737" stroke-width="1.5" stroke-linecap="round" stroke-linejoin="round"/>
<path d="M15.3335 13.333V9.33301H11.3335" stroke="#468737" stroke-width="1.5" stroke-linecap="round" stroke-linejoin="round"/>
<path d="M13.6598 6.00038C13.3217 5.0449 12.7471 4.19064 11.9895 3.51732C11.232 2.844 10.3162 2.37355 9.32765 2.14988C8.3391 1.92621 7.31 1.9566 6.33638 2.23823C5.36275 2.51985 4.47634 3.04352 3.75984 3.76038L0.666504 6.66704M15.3332 9.33371L12.2398 12.2404C11.5233 12.9572 10.6369 13.4809 9.6633 13.7625C8.68967 14.0441 7.66058 14.0745 6.67203 13.8509C5.68348 13.6272 4.7677 13.1568 4.01015 12.4834C3.25259 11.8101 2.67795 10.9559 2.33984 10.0004" stroke="#468737" stroke-width="1.5" stroke-linecap="round" stroke-linejoin="round"/>
</g>
<defs>
<clipPath id="clip0_1132_46110">
<rect width="16" height="16" fill="white"/>
</clipPath>
</defs>
</svg>
