<svg width="14" height="15" viewBox="0 0 14 15" fill="none" xmlns="http://www.w3.org/2000/svg">
<path d="M6.98281 14.2664C6.00087 14.2664 5.07006 14.0623 4.1904 13.6539C3.31034 13.2456 2.54948 12.6623 1.90781 11.9039V12.2102C1.90781 12.463 1.81798 12.6794 1.63831 12.8594C1.45826 13.0391 1.24184 13.1289 0.989063 13.1289C0.736285 13.1289 0.520063 13.0391 0.340396 12.8594C0.16034 12.6794 0.0703125 12.463 0.0703125 12.2102V9.52684C0.0703125 9.27406 0.16034 9.05764 0.340396 8.87759C0.520063 8.69792 0.736285 8.60809 0.989063 8.60809H3.6724C3.92517 8.60809 4.14159 8.69792 4.32165 8.87759C4.50131 9.05764 4.59115 9.27406 4.59115 9.52684C4.59115 9.77962 4.50131 9.99584 4.32165 10.1755C4.14159 10.3556 3.92517 10.4456 3.6724 10.4456H3.08906C3.55573 11.0775 4.12681 11.566 4.80231 11.9109C5.4782 12.2563 6.20504 12.4289 6.98281 12.4289C7.95504 12.4289 8.83004 12.1787 9.60781 11.6782C10.3856 11.1773 10.9884 10.5088 11.4161 9.67267C11.5425 9.4199 11.7201 9.21826 11.9487 9.06776C12.177 8.91687 12.4224 8.86573 12.6849 8.91434C12.9377 8.96295 13.1224 9.10392 13.2391 9.33726C13.3557 9.57059 13.3606 9.80878 13.2536 10.0518C12.7286 11.3157 11.8999 12.3342 10.7675 13.1073C9.63465 13.8801 8.37309 14.2664 6.98281 14.2664ZM1.01823 6.61017C0.755729 6.56156 0.551563 6.42545 0.405729 6.20184C0.259896 5.97823 0.225868 5.74003 0.303646 5.48726C0.371701 5.2442 0.45434 5.00853 0.551563 4.78026C0.648785 4.55159 0.770313 4.31573 0.916146 4.07267C1.05226 3.84906 1.2467 3.71042 1.49948 3.65676C1.75226 3.60348 1.98559 3.65462 2.19948 3.81017C2.40365 3.95601 2.52031 4.15784 2.54948 4.41567C2.57865 4.67312 2.53976 4.91851 2.43281 5.15184C2.37448 5.26851 2.32353 5.38751 2.27998 5.50884L2.14115 5.89559C2.06337 6.14837 1.92006 6.34281 1.71123 6.47892C1.50201 6.61503 1.27101 6.65878 1.01823 6.61017ZM3.33698 2.64351C3.19115 2.4199 3.14253 2.18403 3.19115 1.93592C3.23976 1.6882 3.37587 1.49628 3.59948 1.36017C3.81337 1.23378 4.03212 1.12684 4.25573 1.03934C4.47934 0.95184 4.72726 0.869201 4.99948 0.791423C5.25226 0.723367 5.49045 0.759728 5.71406 0.900506C5.93767 1.04167 6.07379 1.24351 6.1224 1.50601C6.17101 1.75878 6.12726 1.99212 5.99115 2.20601C5.85504 2.4199 5.66059 2.56573 5.40781 2.64351C5.28142 2.69212 5.15504 2.7382 5.02865 2.78176C4.90226 2.8257 4.78073 2.87684 4.66406 2.93517C4.43073 3.05184 4.18534 3.08587 3.9279 3.03726C3.67006 2.98865 3.47309 2.8574 3.33698 2.64351ZM5.96198 8.52059L4.62031 7.89351C4.44531 7.81573 4.35781 7.67709 4.35781 7.47759C4.35781 7.27848 4.44531 7.14003 4.62031 7.06226L5.96198 6.44976L6.57448 5.10809C6.65226 4.93309 6.79323 4.84559 6.9974 4.84559C7.20156 4.84559 7.34254 4.93309 7.42031 5.10809L8.03281 6.44976L9.37448 7.07684C9.54948 7.15462 9.63698 7.29326 9.63698 7.49276C9.63698 7.69187 9.54948 7.83031 9.37448 7.90809L8.03281 8.52059L7.42031 9.86226C7.34254 10.0373 7.20156 10.1248 6.9974 10.1248C6.79323 10.1248 6.65226 10.0373 6.57448 9.86226L5.96198 8.52059ZM10.6724 2.71642C10.5071 2.92059 10.2932 3.03473 10.0307 3.05884C9.76823 3.08334 9.51545 3.0324 9.2724 2.90601C9.16545 2.84767 9.05131 2.7942 8.92998 2.74559C8.80826 2.69698 8.6842 2.65323 8.55781 2.61434C8.30504 2.53656 8.09854 2.39559 7.93831 2.19142C7.7777 1.98726 7.7217 1.75878 7.77031 1.50601C7.81892 1.24351 7.94784 1.03681 8.15706 0.885923C8.3659 0.735423 8.5967 0.694201 8.84948 0.762256C9.15087 0.840034 9.43281 0.932395 9.69531 1.03934C9.95781 1.14628 10.2155 1.27753 10.4682 1.43309C10.6918 1.5692 10.8231 1.76598 10.862 2.02342C10.9009 2.28126 10.8377 2.51226 10.6724 2.71642ZM12.9474 6.63934C12.6946 6.68795 12.4661 6.64167 12.262 6.50051C12.0578 6.35973 11.9168 6.16295 11.8391 5.91017C11.7905 5.77406 11.7444 5.64767 11.7008 5.53101C11.6569 5.41434 11.6057 5.29767 11.5474 5.18101C11.4307 4.94767 11.387 4.70209 11.4161 4.44426C11.4453 4.18681 11.562 3.98031 11.7661 3.82476C11.98 3.65948 12.2134 3.60348 12.4661 3.65676C12.7189 3.71042 12.9134 3.84906 13.0495 4.07267C13.1856 4.31573 13.3048 4.55626 13.4071 4.79426C13.509 5.03264 13.5939 5.27823 13.662 5.53101C13.73 5.78378 13.6911 6.01945 13.5453 6.23801C13.3995 6.45695 13.2002 6.59073 12.9474 6.63934Z" fill="#0068A0"/>
</svg>
