<svg width="14" height="15" viewBox="0 0 14 15" fill="none" xmlns="http://www.w3.org/2000/svg">
<mask id="mask0_907_27286" style="mask-type:alpha" maskUnits="userSpaceOnUse" x="0" y="0" width="14" height="15">
<rect y="0.5" width="14" height="14" fill="#D9D9D9"/>
</mask>
<g mask="url(#mask0_907_27286)">
<path d="M6.9999 14.2664C6.01796 14.2664 5.08715 14.0623 4.20749 13.6539C3.32743 13.2456 2.56657 12.6623 1.9249 11.9039V12.2102C1.9249 12.463 1.83507 12.6794 1.6554 12.8594C1.47535 13.0391 1.25893 13.1289 1.00615 13.1289C0.753375 13.1289 0.537152 13.0391 0.357486 12.8594C0.17743 12.6794 0.0874023 12.463 0.0874023 12.2102V9.52684C0.0874023 9.27406 0.17743 9.05764 0.357486 8.87759C0.537152 8.69792 0.753375 8.60809 1.00615 8.60809H3.68949C3.94226 8.60809 4.15868 8.69792 4.33874 8.87759C4.5184 9.05764 4.60824 9.27406 4.60824 9.52684C4.60824 9.77962 4.5184 9.99584 4.33874 10.1755C4.15868 10.3556 3.94226 10.4456 3.68949 10.4456H3.10615C3.57282 11.0775 4.1439 11.566 4.8194 11.9109C5.49529 12.2563 6.22213 12.4289 6.9999 12.4289C7.97213 12.4289 8.84713 12.1787 9.6249 11.6782C10.4027 11.1773 11.0055 10.5088 11.4332 9.67267C11.5596 9.4199 11.7372 9.21826 11.9658 9.06776C12.1941 8.91687 12.4395 8.86573 12.702 8.91434C12.9548 8.96295 13.1395 9.10392 13.2562 9.33726C13.3728 9.57059 13.3777 9.80878 13.2707 10.0518C12.7457 11.3157 11.917 12.3342 10.7846 13.1073C9.65174 13.8801 8.39018 14.2664 6.9999 14.2664ZM1.03532 6.61017C0.772819 6.56156 0.568652 6.42545 0.422819 6.20184C0.276986 5.97823 0.242958 5.74003 0.320736 5.48726C0.388791 5.2442 0.47143 5.00853 0.568652 4.78026C0.665875 4.55159 0.787402 4.31573 0.933236 4.07267C1.06935 3.84906 1.26379 3.71042 1.51657 3.65676C1.76935 3.60348 2.00268 3.65462 2.21657 3.81017C2.42074 3.95601 2.5374 4.15784 2.56657 4.41567C2.59574 4.67312 2.55685 4.91851 2.4499 5.15184C2.39157 5.26851 2.34062 5.38751 2.29707 5.50884L2.15824 5.89559C2.08046 6.14837 1.93715 6.34281 1.72832 6.47892C1.5191 6.61503 1.2881 6.65878 1.03532 6.61017ZM3.35407 2.64351C3.20824 2.4199 3.15962 2.18403 3.20824 1.93592C3.25685 1.6882 3.39296 1.49628 3.61657 1.36017C3.83046 1.23378 4.04921 1.12684 4.27282 1.03934C4.49643 0.95184 4.74435 0.869201 5.01657 0.791423C5.26935 0.723367 5.50754 0.759728 5.73115 0.900506C5.95476 1.04167 6.09088 1.24351 6.13949 1.50601C6.1881 1.75878 6.14435 1.99212 6.00824 2.20601C5.87213 2.4199 5.67768 2.56573 5.4249 2.64351C5.29851 2.69212 5.17212 2.7382 5.04574 2.78176C4.91935 2.8257 4.79782 2.87684 4.68115 2.93517C4.44782 3.05184 4.20243 3.08587 3.94499 3.03726C3.68715 2.98865 3.49018 2.8574 3.35407 2.64351ZM5.97907 8.52059L4.6374 7.89351C4.4624 7.81573 4.3749 7.67709 4.3749 7.47759C4.3749 7.27848 4.4624 7.14003 4.6374 7.06226L5.97907 6.44976L6.59157 5.10809C6.66935 4.93309 6.81032 4.84559 7.01449 4.84559C7.21865 4.84559 7.35963 4.93309 7.4374 5.10809L8.0499 6.44976L9.39157 7.07684C9.56657 7.15462 9.65407 7.29326 9.65407 7.49276C9.65407 7.69187 9.56657 7.83031 9.39157 7.90809L8.0499 8.52059L7.4374 9.86226C7.35963 10.0373 7.21865 10.1248 7.01449 10.1248C6.81032 10.1248 6.66935 10.0373 6.59157 9.86226L5.97907 8.52059ZM10.6895 2.71642C10.5242 2.92059 10.3103 3.03473 10.0478 3.05884C9.78532 3.08334 9.53254 3.0324 9.28949 2.90601C9.18254 2.84767 9.0684 2.7942 8.94707 2.74559C8.82535 2.69698 8.70129 2.65323 8.5749 2.61434C8.32213 2.53656 8.11563 2.39559 7.9554 2.19142C7.79479 1.98726 7.73879 1.75878 7.7874 1.50601C7.83601 1.24351 7.96493 1.03681 8.17415 0.885923C8.38299 0.735423 8.61379 0.694201 8.86657 0.762256C9.16796 0.840034 9.4499 0.932395 9.7124 1.03934C9.9749 1.14628 10.2325 1.27753 10.4853 1.43309C10.7089 1.5692 10.8402 1.76598 10.8791 2.02342C10.918 2.28126 10.8548 2.51226 10.6895 2.71642ZM12.9645 6.63934C12.7117 6.68795 12.4832 6.64167 12.2791 6.50051C12.0749 6.35973 11.9339 6.16295 11.8562 5.91017C11.8075 5.77406 11.7615 5.64767 11.7179 5.53101C11.674 5.41434 11.6228 5.29767 11.5645 5.18101C11.4478 4.94767 11.4041 4.70209 11.4332 4.44426C11.4624 4.18681 11.5791 3.98031 11.7832 3.82476C11.9971 3.65948 12.2305 3.60348 12.4832 3.65676C12.736 3.71042 12.9305 3.84906 13.0666 4.07267C13.2027 4.31573 13.3219 4.55626 13.4242 4.79426C13.526 5.03264 13.611 5.27823 13.6791 5.53101C13.7471 5.78378 13.7082 6.01945 13.5624 6.23801C13.4166 6.45695 13.2173 6.59073 12.9645 6.63934Z" fill="#995C00"/>
</g>
</svg>
