<svg width="16" height="16" viewBox="0 0 16 16" fill="none" xmlns="http://www.w3.org/2000/svg">
<mask id="mask0_900_25829" style="mask-type:alpha" maskUnits="userSpaceOnUse" x="0" y="0" width="16" height="16">
<rect width="16" height="16" fill="#D9D9D9"/>
</mask>
<g mask="url(#mask0_900_25829)">
<path d="M8.7001 7.71661L10.2833 9.31661C10.4166 9.46114 10.4833 9.63048 10.4833 9.82461C10.4833 10.0193 10.4166 10.1833 10.2833 10.3166C10.1388 10.4611 9.9665 10.5334 9.7665 10.5334C9.5665 10.5334 9.39423 10.4611 9.2497 10.3166L7.4665 8.53341C7.38917 8.45554 7.33103 8.36941 7.2921 8.27501C7.25317 8.18061 7.2337 8.08328 7.2337 7.98301V5.39981C7.2337 5.19981 7.3057 5.02754 7.4497 4.88301C7.59423 4.73848 7.7665 4.66621 7.9665 4.66621C8.1665 4.66621 8.33877 4.73848 8.4833 4.88301C8.62783 5.02754 8.7001 5.19981 8.7001 5.39981V7.71661ZM8.0001 14.1334C7.15583 14.1334 6.3641 13.9721 5.6249 13.6494C4.88623 13.3273 4.23637 12.8886 3.6753 12.3334C3.11423 11.7777 2.6753 11.1249 2.3585 10.375C2.0417 9.62461 1.8833 8.82728 1.8833 7.98301C1.8833 7.14994 2.04437 6.35821 2.3665 5.60781C2.68863 4.85794 3.12757 4.20541 3.6833 3.65021C4.23903 3.09448 4.88917 2.65821 5.6337 2.34141C6.37823 2.02461 7.16703 1.86621 8.0001 1.86621C8.91103 1.86621 9.7721 2.04408 10.5833 2.39981C11.3945 2.75554 12.0833 3.28328 12.6497 3.98301V3.35021C12.6497 3.14968 12.722 2.97741 12.8665 2.83341C13.011 2.68888 13.1833 2.61661 13.3833 2.61661C13.5833 2.61661 13.7556 2.68888 13.9001 2.83341C14.0446 2.97741 14.1169 3.14968 14.1169 3.35021V6.01661C14.1169 6.23901 14.039 6.42781 13.8833 6.58301C13.7276 6.73874 13.5388 6.81661 13.3169 6.81661H10.7833C10.5945 6.81661 10.4252 6.74434 10.2753 6.59981C10.1249 6.45528 10.0497 6.28301 10.0497 6.08301C10.0497 5.88301 10.1249 5.71074 10.2753 5.56621C10.4252 5.42221 10.5945 5.35021 10.7833 5.35021H11.7001C11.2777 4.74968 10.7388 4.28301 10.0833 3.95021C9.42783 3.61634 8.73343 3.44941 8.0001 3.44941C6.73343 3.44941 5.66117 3.89128 4.7833 4.77501C3.90543 5.65821 3.4665 6.73314 3.4665 7.99981C3.4665 9.26648 3.90543 10.3414 4.7833 11.2246C5.66117 12.1083 6.73343 12.5502 8.0001 12.5502C8.9889 12.5502 9.8833 12.2723 10.6833 11.7166C11.4833 11.1609 12.039 10.4163 12.3505 9.48301C12.4278 9.27181 12.5526 9.09421 12.7249 8.95021C12.8972 8.80568 13.0945 8.75554 13.3169 8.79981C13.5388 8.85528 13.7054 8.98301 13.8169 9.18301C13.9278 9.38301 13.95 9.59421 13.8833 9.81661C13.5057 11.1163 12.7697 12.1609 11.6753 12.9502C10.5809 13.739 9.35583 14.1334 8.0001 14.1334Z" fill="#696D80"/>
</g>
</svg>
