<svg width="14" height="15" viewBox="0 0 14 15" fill="none" xmlns="http://www.w3.org/2000/svg">
<path d="M9.04167 8.66667H8.58083L8.4175 8.50917C9.00893 7.82318 9.33398 6.94741 9.33333 6.04167C9.33333 5.29175 9.11096 4.55867 8.69432 3.93513C8.27769 3.31159 7.68551 2.82561 6.99268 2.53863C6.29984 2.25164 5.53746 2.17656 4.80195 2.32286C4.06644 2.46916 3.39083 2.83028 2.86056 3.36056C2.33028 3.89083 1.96916 4.56644 1.82286 5.30195C1.67656 6.03746 1.75164 6.79984 2.03863 7.49268C2.32561 8.18551 2.81159 8.77769 3.43513 9.19432C4.05867 9.61096 4.79175 9.83333 5.54167 9.83333C6.48083 9.83333 7.34417 9.48917 8.00917 8.9175L8.16667 9.08083V9.54167L11.0833 12.4525L11.9525 11.5833L9.04167 8.66667ZM5.54167 8.66667C4.08917 8.66667 2.91667 7.49417 2.91667 6.04167C2.91667 4.58917 4.08917 3.41667 5.54167 3.41667C6.99417 3.41667 8.16667 4.58917 8.16667 6.04167C8.16667 7.49417 6.99417 8.66667 5.54167 8.66667Z" fill="#434960"/>
</svg>
