<svg width="14" height="14" viewBox="0 0 14 14" fill="none" xmlns="http://www.w3.org/2000/svg">
<path d="M8.26717 13.6663H5.73383C5.55606 13.6663 5.40328 13.608 5.2755 13.4913C5.14772 13.3747 5.07272 13.2275 5.0505 13.0497L4.86717 11.5663C4.75606 11.4997 4.63383 11.4275 4.5005 11.3497C4.36717 11.2719 4.24495 11.1997 4.13383 11.133L2.7505 11.7163C2.58383 11.783 2.41717 11.7886 2.2505 11.733C2.08383 11.6775 1.95606 11.5719 1.86717 11.4163L0.617168 9.23301C0.528279 9.07745 0.503279 8.91634 0.542168 8.74967C0.581057 8.58301 0.667168 8.44412 0.800501 8.33301L1.96717 7.43301V6.56634L0.800501 5.66634C0.667168 5.55523 0.581057 5.41634 0.542168 5.24967C0.503279 5.08301 0.528279 4.9219 0.617168 4.76634L1.86717 2.58301C1.95606 2.42745 2.08383 2.3219 2.2505 2.26634C2.41717 2.21079 2.58383 2.21634 2.7505 2.28301L4.13383 2.86634C4.24495 2.79967 4.36717 2.72745 4.5005 2.64967C4.63383 2.5719 4.75606 2.49967 4.86717 2.43301L5.0505 0.949675C5.07272 0.771897 5.14772 0.624674 5.2755 0.508008C5.40328 0.391341 5.55606 0.333008 5.73383 0.333008H8.26717C8.44495 0.333008 8.59772 0.391341 8.7255 0.508008C8.85328 0.624674 8.92828 0.771897 8.9505 0.949675L9.13383 2.43301C9.24495 2.49967 9.36717 2.5719 9.5005 2.64967C9.63384 2.72745 9.75606 2.79967 9.86717 2.86634L11.2505 2.28301C11.4172 2.21634 11.5838 2.21079 11.7505 2.26634C11.9172 2.3219 12.0449 2.42745 12.1338 2.58301L13.4005 4.76634C13.4894 4.9219 13.5172 5.08301 13.4838 5.24967C13.4505 5.41634 13.3616 5.55523 13.2172 5.66634L12.0505 6.56634V7.43301L13.2172 8.33301C13.3616 8.44412 13.4505 8.58301 13.4838 8.74967C13.5172 8.91634 13.4894 9.07745 13.4005 9.23301L12.1338 11.4163C12.0449 11.5719 11.9172 11.6775 11.7505 11.733C11.5838 11.7886 11.4172 11.783 11.2505 11.7163L9.86717 11.133C9.75606 11.1997 9.63384 11.2719 9.5005 11.3497C9.36717 11.4275 9.24495 11.4997 9.13383 11.5663L8.9505 13.0497C8.92828 13.2275 8.85328 13.3747 8.7255 13.4913C8.59772 13.608 8.44495 13.6663 8.26717 13.6663ZM7.0005 9.38301C7.65606 9.38301 8.21717 9.14967 8.68384 8.68301C9.1505 8.21634 9.38383 7.65523 9.38383 6.99967C9.38383 6.34412 9.1505 5.78301 8.68384 5.31634C8.21717 4.84967 7.65606 4.61634 7.0005 4.61634C6.34495 4.61634 5.78383 4.84967 5.31717 5.31634C4.8505 5.78301 4.61717 6.34412 4.61717 6.99967C4.61717 7.65523 4.8505 8.21634 5.31717 8.68301C5.78383 9.14967 6.34495 9.38301 7.0005 9.38301ZM7.0005 7.98301C6.73383 7.98301 6.50328 7.88579 6.30883 7.69134C6.11439 7.4969 6.01717 7.26634 6.01717 6.99967C6.01717 6.73301 6.11439 6.50245 6.30883 6.30801C6.50328 6.11356 6.73383 6.01634 7.0005 6.01634C7.26717 6.01634 7.49772 6.11356 7.69217 6.30801C7.88661 6.50245 7.98383 6.73301 7.98383 6.99967C7.98383 7.26634 7.88661 7.4969 7.69217 7.69134C7.49772 7.88579 7.26717 7.98301 7.0005 7.98301ZM6.33383 12.2663H7.66717L7.86717 10.533C8.18939 10.4441 8.5005 10.3108 8.8005 10.133C9.1005 9.95523 9.37272 9.74412 9.61717 9.49967L11.2338 10.183L11.9005 9.08301L10.4838 7.99968C10.5394 7.84412 10.5783 7.68301 10.6005 7.51634C10.6227 7.34968 10.6338 7.17745 10.6338 6.99967C10.6338 6.84412 10.6227 6.68579 10.6005 6.52467C10.5783 6.36356 10.5449 6.19412 10.5005 6.01634L11.9172 4.91634L11.2505 3.81634L9.63383 4.51634C9.37828 4.26079 9.10328 4.0469 8.80884 3.87467C8.51439 3.70245 8.20606 3.5719 7.88383 3.48301L7.66717 1.73301H6.33383L6.11717 3.48301C5.79495 3.5719 5.48661 3.70245 5.19217 3.87467C4.89772 4.0469 4.62828 4.25523 4.38383 4.49967L2.76717 3.81634L2.1005 4.91634L3.5005 5.99967C3.45606 6.17745 3.42272 6.34967 3.4005 6.51634C3.37828 6.68301 3.36717 6.84412 3.36717 6.99967C3.36717 7.15523 3.37828 7.31356 3.4005 7.47467C3.42272 7.63579 3.45606 7.80523 3.5005 7.98301L2.1005 9.08301L2.76717 10.183L4.38383 9.49967C4.62828 9.74412 4.89772 9.95245 5.19217 10.1247C5.48661 10.2969 5.79495 10.4275 6.11717 10.5163L6.33383 12.2663Z" fill="#696D80"/>
</svg>
