<svg width="12" height="12" viewBox="0 0 12 12" fill="none" xmlns="http://www.w3.org/2000/svg">
<path d="M5.59613 11.5436C4.83312 11.5436 4.11523 11.3996 3.44248 11.1116C2.76972 10.8237 2.18106 10.4274 1.67649 9.92288C1.17192 9.41831 0.775668 8.82983 0.487715 8.15746C0.199762 7.48508 0.0557861 6.76361 0.0557861 5.99303C0.0557861 5.22244 0.199762 4.50307 0.487715 3.8349C0.775668 3.16672 1.17192 2.58035 1.67649 2.07578C2.18106 1.57122 2.76953 1.17496 3.4419 0.887007C4.11428 0.599055 4.83576 0.455078 5.60633 0.455078C6.37692 0.455078 7.0963 0.599055 7.76447 0.887007C8.43264 1.17496 9.01902 1.57122 9.52359 2.07578C10.0281 2.58035 10.4244 3.16672 10.7124 3.8349C11.0003 4.50307 11.1443 5.22454 11.1443 5.99933C11.1443 6.23647 11.1295 6.46902 11.1001 6.69699C11.0706 6.92496 11.0289 7.14835 10.9751 7.36715C10.8001 7.20135 10.6024 7.0766 10.3818 6.9929C10.1612 6.90921 9.93269 6.87374 9.69634 6.88649C9.737 6.74222 9.76389 6.59601 9.77704 6.44788C9.79019 6.29975 9.79677 6.15023 9.79677 5.99933C9.79677 4.82839 9.39005 3.8362 8.57661 3.02275C7.76317 2.20931 6.77098 1.80259 5.60004 1.80259C4.42909 1.80259 3.4369 2.20931 2.62346 3.02275C1.81002 3.8362 1.4033 4.82839 1.4033 5.99933C1.4033 7.17027 1.81002 8.16246 2.62346 8.9759C3.4369 9.78934 4.42909 10.1961 5.60004 10.1961C6.06116 10.1961 6.49448 10.1302 6.9 9.99849C7.30553 9.86676 7.68186 9.67576 8.029 9.42547C8.11668 9.65384 8.24412 9.84764 8.41131 10.0069C8.57851 10.1661 8.77111 10.2927 8.98912 10.3868C8.52191 10.7505 7.99998 11.0343 7.42333 11.238C6.84668 11.4417 6.23761 11.5436 5.59613 11.5436ZM9.73257 9.55581C9.50157 9.55581 9.30377 9.47402 9.13916 9.31045C8.97457 9.14688 8.89227 8.9496 8.89227 8.7186C8.89227 8.4876 8.97405 8.2898 9.13762 8.1252C9.30119 7.9606 9.49848 7.87829 9.72948 7.87829C9.96048 7.87829 10.1583 7.96008 10.3229 8.12365C10.4875 8.28722 10.5698 8.4845 10.5698 8.7155C10.5698 8.9465 10.488 9.1443 10.3244 9.3089C10.1609 9.4735 9.96357 9.55581 9.73257 9.55581ZM6.21162 5.52465L7.7721 7.08514C7.9071 7.22014 7.97102 7.36834 7.96384 7.52976C7.95666 7.69117 7.88712 7.83525 7.7552 7.96199C7.62328 8.08873 7.47661 8.1508 7.3152 8.14822C7.15378 8.14563 7.00935 8.08025 6.88191 7.9521L5.18634 6.24384C5.12496 6.18246 5.07663 6.11292 5.04136 6.0352C5.00609 5.95748 4.98845 5.869 4.98845 5.76976V3.34977C4.98845 3.17843 5.04727 3.03366 5.1649 2.91548C5.28254 2.79728 5.42662 2.73818 5.59713 2.73818C5.76765 2.73818 5.9127 2.79728 6.03227 2.91548C6.15184 3.03366 6.21162 3.17843 6.21162 3.34977V5.52465Z" fill="#0096CC"/>
</svg>
