<svg width="12" height="11" viewBox="0 0 12 11" fill="none" xmlns="http://www.w3.org/2000/svg">
<path d="M4.47321 10.9515L6.71457 8.69631H9.97299C10.2845 8.69631 10.5503 8.80631 10.7703 9.02631C10.9903 9.24631 11.1003 9.51229 11.1003 9.82425C11.1003 10.1358 10.9903 10.4015 10.7703 10.6215C10.5503 10.8415 10.2845 10.9515 9.97299 10.9515H4.47321ZM1.25571 9.79653H2.06685L6.68685 5.17653L5.87571 4.36539L1.25571 8.98539V9.79653ZM9.13413 4.37925L6.67299 1.91745L7.34685 1.24425C7.57609 1.01501 7.84867 0.900391 8.16459 0.900391C8.48095 0.900391 8.75375 1.01501 8.98299 1.24425L9.80799 2.06925C10.028 2.28925 10.138 2.56183 10.138 2.88699C10.138 3.21259 10.028 3.48539 9.80799 3.70539L9.13413 4.37925ZM0.678208 10.9515C0.522448 10.9515 0.387148 10.8943 0.272308 10.7799C0.157908 10.6651 0.100708 10.5298 0.100708 10.374V8.72403C0.100708 8.65055 0.114348 8.57949 0.141628 8.51085C0.169348 8.44221 0.210708 8.38039 0.265708 8.32539L5.86185 2.72925L8.32299 5.19039L2.72685 10.7865C2.67185 10.8415 2.61003 10.8829 2.54139 10.9106C2.47231 10.9379 2.40125 10.9515 2.32821 10.9515H0.678208Z" fill="#696D80"/>
</svg>
