<svg width="85" height="36" viewBox="0 0 85 36" fill="none" xmlns="http://www.w3.org/2000/svg">
<rect y="0.5" width="85" height="35" rx="2" fill="#FE544F"/>
<path d="M20 12.166C20.6188 12.166 21.2123 12.4118 21.6499 12.8494C22.0875 13.287 22.3333 13.8805 22.3333 14.4993C22.3333 15.1182 22.0875 15.7117 21.6499 16.1493C21.2123 16.5868 20.6188 16.8327 20 16.8327C19.3812 16.8327 18.7877 16.5868 18.3501 16.1493C17.9125 15.7117 17.6667 15.1182 17.6667 14.4993C17.6667 13.8805 17.9125 13.287 18.3501 12.8494C18.7877 12.4118 19.3812 12.166 20 12.166ZM15.3333 13.8327C15.7067 13.8327 16.0533 13.9327 16.3533 14.1127C16.2533 15.066 16.5333 16.0127 17.1067 16.7527C16.7733 17.3927 16.1067 17.8327 15.3333 17.8327C14.8029 17.8327 14.2942 17.622 13.9191 17.2469C13.544 16.8718 13.3333 16.3631 13.3333 15.8327C13.3333 15.3022 13.544 14.7935 13.9191 14.4185C14.2942 14.0434 14.8029 13.8327 15.3333 13.8327ZM24.6667 13.8327C25.1971 13.8327 25.7058 14.0434 26.0809 14.4185C26.456 14.7935 26.6667 15.3022 26.6667 15.8327C26.6667 16.3631 26.456 16.8718 26.0809 17.2469C25.7058 17.622 25.1971 17.8327 24.6667 17.8327C23.8933 17.8327 23.2267 17.3927 22.8933 16.7527C23.4746 16.0023 23.7444 15.0568 23.6467 14.1127C23.9467 13.9327 24.2933 13.8327 24.6667 13.8327ZM15.6667 20.666C15.6667 19.286 17.6067 18.166 20 18.166C22.3933 18.166 24.3333 19.286 24.3333 20.666V21.8327H15.6667V20.666ZM12 21.8327V20.8327C12 19.906 13.26 19.126 14.9667 18.8993C14.5733 19.3527 14.3333 19.9793 14.3333 20.666V21.8327H12ZM28 21.8327H25.6667V20.666C25.6667 19.9793 25.4267 19.3527 25.0333 18.8993C26.74 19.126 28 19.906 28 20.8327V21.8327Z" fill="white"/>
<path d="M41.9785 22.7109C44.0059 22.7109 45.2773 21.6797 45.2773 20.0332V20.0273C45.2773 18.75 44.5332 18.0352 42.752 17.6602L41.8438 17.4668C40.7891 17.2441 40.3613 16.8691 40.3613 16.2715V16.2656C40.3613 15.5449 41.0293 15.1055 41.9668 15.1055C42.9336 15.0996 43.5605 15.5684 43.666 16.2246L43.6777 16.2949H45.125L45.1191 16.2188C45.0137 14.8594 43.8477 13.834 41.9727 13.834C40.1445 13.834 38.8438 14.8535 38.8438 16.3652V16.3711C38.8438 17.6309 39.5938 18.4395 41.3223 18.8027L42.2305 18.9902C43.3203 19.2246 43.7598 19.5938 43.7598 20.2031V20.209C43.7598 20.9355 43.0449 21.4395 42.0254 21.4395C40.9531 21.4395 40.1973 20.9707 40.127 20.2617L40.1211 20.2031H38.6562L38.6621 20.2852C38.7676 21.7441 40.0156 22.7109 41.9785 22.7109ZM46.8828 22.5H48.3418V18.7676C48.3418 17.8066 48.8809 17.1973 49.748 17.1973C50.6328 17.1973 51.0371 17.7012 51.0371 18.6973V22.5H52.4961V18.3574C52.4961 16.834 51.7168 15.9727 50.2871 15.9727C49.3613 15.9727 48.7461 16.3887 48.4414 17.0742H48.3418V13.6172H46.8828V22.5ZM55.9648 22.6055C56.8086 22.6055 57.4883 22.2422 57.8398 21.6211H57.9395V22.5H59.3809V18.123C59.3809 16.7695 58.4551 15.9727 56.8086 15.9727C55.2852 15.9727 54.2539 16.6875 54.1133 17.7656L54.1074 17.8184H55.4844L55.4902 17.7949C55.6367 17.373 56.0703 17.1328 56.7383 17.1328C57.5234 17.1328 57.9395 17.4844 57.9395 18.123V18.6738L56.293 18.7734C54.7344 18.8672 53.8613 19.5352 53.8613 20.6777V20.6895C53.8613 21.8555 54.7461 22.6055 55.9648 22.6055ZM55.3027 20.6191V20.6074C55.3027 20.0801 55.6836 19.7812 56.498 19.7285L57.9395 19.6348V20.1504C57.9395 20.9121 57.2891 21.4863 56.4102 21.4863C55.7656 21.4863 55.3027 21.1641 55.3027 20.6191ZM61.1328 22.5H62.5918V18.7793C62.5918 17.8652 63.2305 17.2852 64.2031 17.2852C64.4551 17.2852 64.6953 17.3203 64.9297 17.3672V16.0605C64.7891 16.0195 64.5605 15.9902 64.3379 15.9902C63.4941 15.9902 62.9082 16.3945 62.6914 17.0801H62.5918V16.0957H61.1328V22.5ZM68.7031 22.6289C70.4434 22.6289 71.2988 21.627 71.5039 20.8008L71.5215 20.748H70.1328L70.1152 20.7891C69.9746 21.082 69.5234 21.4805 68.7324 21.4805C67.7422 21.4805 67.1211 20.8125 67.1035 19.6641H71.5801V19.1836C71.5801 17.25 70.4551 15.9727 68.6328 15.9727C66.8105 15.9727 65.6445 17.291 65.6445 19.3066V19.3125C65.6445 21.3516 66.7988 22.6289 68.7031 22.6289ZM68.6504 17.1152C69.4648 17.1152 70.0566 17.6367 70.1562 18.6855H67.1152C67.2266 17.666 67.8359 17.1152 68.6504 17.1152Z" fill="white"/>
</svg>
