<svg width="16" height="13" viewBox="0 0 16 13" fill="none" xmlns="http://www.w3.org/2000/svg">
    <path d="M7.99935 12.5C6.33268 12.5 4.9056 11.9097 3.7181 10.7292C2.5306 9.54861 1.95768 8.09722 1.99935 6.375L1.33268 7.04167C1.1799 7.19444 1.00282 7.27083 0.801432 7.27083C0.600043 7.27083 0.42296 7.19444 0.270182 7.04167C0.117405 6.88889 0.0410156 6.71181 0.0410156 6.51042C0.0410156 6.30903 0.117405 6.13194 0.270182 5.97917L2.22852 4.02083C2.38129 3.86806 2.5549 3.79167 2.74935 3.79167C2.94379 3.79167 3.1174 3.86806 3.27018 4.02083L5.22852 5.97917C5.38129 6.13194 5.45768 6.30556 5.45768 6.5C5.45768 6.69444 5.38129 6.86806 5.22852 7.02083C5.07574 7.17361 4.89865 7.25 4.69727 7.25C4.49588 7.25 4.31879 7.17361 4.16602 7.02083L3.49935 6.375C3.47157 7.68056 3.90213 8.77778 4.79102 9.66667C5.6799 10.5556 6.74935 11 7.99935 11C8.16602 11 8.33268 10.9896 8.49935 10.9688C8.66602 10.9479 8.82574 10.9236 8.97852 10.8958C9.18685 10.8542 9.38477 10.8715 9.57227 10.9479C9.75977 11.0243 9.89518 11.1597 9.97852 11.3542C10.0618 11.5486 10.0584 11.7361 9.9681 11.9167C9.87782 12.0972 9.73546 12.2153 9.54102 12.2708C9.29102 12.3403 9.04102 12.3958 8.79102 12.4375C8.54102 12.4792 8.27713 12.5 7.99935 12.5ZM7.99935 2C7.83268 2 7.66602 2.01042 7.49935 2.03125C7.33268 2.05208 7.17296 2.07639 7.02018 2.10417C6.81185 2.14583 6.61393 2.12847 6.42643 2.05208C6.23893 1.97569 6.11046 1.84028 6.04102 1.64583C5.97157 1.45139 5.97504 1.26389 6.05143 1.08333C6.12782 0.902778 6.26324 0.784722 6.45768 0.729167C6.70768 0.659722 6.96115 0.604167 7.2181 0.5625C7.47504 0.520833 7.73546 0.5 7.99935 0.5C9.6799 0.5 11.1105 1.09028 12.291 2.27083C13.4716 3.45139 14.041 4.90278 13.9993 6.625L14.666 5.95833C14.8188 5.80556 14.9959 5.72917 15.1973 5.72917C15.3987 5.72917 15.5757 5.80556 15.7285 5.95833C15.8813 6.11111 15.9577 6.28819 15.9577 6.48958C15.9577 6.69097 15.8813 6.86806 15.7285 7.02083L13.7702 8.97917C13.6174 9.13194 13.4438 9.20833 13.2493 9.20833C13.0549 9.20833 12.8813 9.13194 12.7285 8.97917L10.7702 7.02083C10.6174 6.86806 10.5445 6.69097 10.5514 6.48958C10.5584 6.28819 10.6382 6.11111 10.791 5.95833C10.9438 5.80556 11.1209 5.72917 11.3223 5.72917C11.5237 5.72917 11.7007 5.80556 11.8535 5.95833L12.4993 6.625C12.5271 5.31944 12.0966 4.22222 11.2077 3.33333C10.3188 2.44444 9.24935 2 7.99935 2Z" fill="#141B38"/>
</svg>
