<svg width="14" height="15" viewBox="0 0 14 15" fill="none" xmlns="http://www.w3.org/2000/svg">
<path d="M3 5H11V3.5H3V5ZM3 11.5H9V10H3V11.5ZM3 8.25H11V6.75H3V8.25ZM1.5 14.5C1.0875 14.5 0.734375 14.3531 0.440625 14.0594C0.146875 13.7656 0 13.4125 0 13V2C0 1.5875 0.146875 1.23437 0.440625 0.940625C0.734375 0.646875 1.0875 0.5 1.5 0.5H12.5C12.9125 0.5 13.2656 0.646875 13.5594 0.940625C13.8531 1.23437 14 1.5875 14 2V13C14 13.4125 13.8531 13.7656 13.5594 14.0594C13.2656 14.3531 12.9125 14.5 12.5 14.5H1.5ZM1.5 13H12.5V2H1.5V13Z" fill="#0068A0"/>
</svg>
