<svg width="17" height="17" viewBox="0 0 17 17" fill="none" xmlns="http://www.w3.org/2000/svg">
<mask id="mask0_900_25849" style="mask-type:alpha" maskUnits="userSpaceOnUse" x="0" y="0" width="17" height="17">
<rect x="0.917236" y="0.5" width="16" height="16" fill="#D9D9D9"/>
</mask>
<g mask="url(#mask0_900_25849)">
<path d="M6.40037 6.93926C6.27815 6.81704 6.21704 6.65592 6.21704 6.45592C6.21704 6.25592 6.27815 6.09481 6.40037 5.97259L8.45038 3.92259C8.51704 3.85592 8.58926 3.80859 8.66704 3.78059C8.74482 3.75304 8.82815 3.73926 8.91704 3.73926C9.00593 3.73926 9.09215 3.75304 9.17571 3.78059C9.25882 3.80859 9.32815 3.85592 9.38371 3.92259L11.4504 5.98926C11.5726 6.11148 11.6308 6.2697 11.625 6.46392C11.6197 6.65859 11.5559 6.81704 11.4337 6.93926C11.3115 7.06148 11.1504 7.12259 10.9504 7.12259C10.7504 7.12259 10.5893 7.06148 10.467 6.93926L8.91704 5.38926L7.35037 6.95592C7.22815 7.07815 7.06993 7.13659 6.87571 7.13126C6.68104 7.12548 6.5226 7.06148 6.40037 6.93926ZM8.91704 13.3281C8.82815 13.3281 8.74482 13.3115 8.66704 13.2781C8.58926 13.2448 8.51704 13.2004 8.45038 13.1448L6.40037 11.0948C6.27815 10.9726 6.21704 10.8115 6.21704 10.6115C6.21704 10.4115 6.27815 10.2504 6.40037 10.1281C6.5226 10.0059 6.68371 9.94482 6.88371 9.94482C7.08371 9.94482 7.24482 10.0059 7.36704 10.1281L8.91704 11.6781L10.4837 10.1115C10.6059 9.98926 10.7642 9.93104 10.9584 9.93681C11.153 9.94215 11.3115 10.0059 11.4337 10.1281C11.5559 10.2504 11.617 10.4115 11.617 10.6115C11.617 10.8115 11.5559 10.9726 11.4337 11.0948L9.38371 13.1448C9.32815 13.2004 9.25882 13.2448 9.17571 13.2781C9.09215 13.3115 9.00593 13.3281 8.91704 13.3281Z" fill="#696D80"/>
</g>
</svg>
