<svg width="20" height="20" viewBox="0 0 20 20" fill="none" xmlns="http://www.w3.org/2000/svg">
<g clip-path="url(#clip0_2026_9236)">
<path d="M19 10C19 5.041 14.959 1 10 1C5.032 1 1 5.041 1 10C1 14.968 5.032 19 10 19C14.959 19 19 14.968 19 10ZM8.002 14.833L4.933 6.598C5.428 6.58 5.986 6.526 5.986 6.526C6.436 6.472 6.382 5.509 5.932 5.527C5.932 5.527 4.627 5.626 3.799 5.626C3.637 5.626 3.466 5.626 3.277 5.617C4.708 3.421 7.183 1.999 10 1.999C12.097 1.999 14.005 2.782 15.445 4.105C14.833 4.006 13.96 4.456 13.96 5.527C13.96 6.193 14.365 6.751 14.77 7.417C15.085 7.966 15.265 8.641 15.265 9.631C15.265 10.972 14.005 14.131 14.005 14.131L11.278 6.598C11.764 6.58 12.016 6.445 12.016 6.445C12.466 6.4 12.412 5.32 11.962 5.347C11.962 5.347 10.666 5.455 9.82 5.455C9.037 5.455 7.723 5.347 7.723 5.347C7.273 5.32 7.219 6.427 7.669 6.445L8.497 6.517L9.631 9.586L8.002 14.833ZM16.669 10C16.885 9.424 17.335 8.317 17.056 6.175C17.686 7.336 18.001 8.614 18.001 10C18.001 12.961 16.444 15.616 14.041 17.002C14.914 14.671 15.787 12.322 16.669 10ZM6.49 17.281C3.808 15.985 1.999 13.177 1.999 10C1.999 8.83 2.206 7.768 2.647 6.769C3.925 10.27 5.203 13.78 6.49 17.281ZM10.117 11.314L12.439 17.596C11.665 17.857 10.855 18.001 10 18.001C9.289 18.001 8.587 17.902 7.939 17.704C8.668 15.562 9.397 13.438 10.117 11.314Z" fill="#696D80"/>
<circle cx="10" cy="10" r="9" stroke="#696D80" stroke-linecap="round" stroke-linejoin="round"/>
</g>
<defs>
<clipPath id="clip0_2026_9236">
<rect width="20" height="20" fill="white"/>
</clipPath>
</defs>
</svg>