<svg width="14" height="14" viewBox="0 0 14 14" fill="none" xmlns="http://www.w3.org/2000/svg">
<path fill-rule="evenodd" clip-rule="evenodd" d="M12.8504 3.80223C12.879 4.01453 12.8952 4.24232 12.8952 4.48769C12.8952 5.16394 12.7685 5.92443 12.3881 6.87545L10.352 12.7626C12.334 11.6071 13.6669 9.45983 13.6669 7.0004C13.6669 5.84134 13.3706 4.75169 12.8504 3.80223ZM7.11729 7.58353L5.11675 13.3957C5.71421 13.5715 6.34584 13.6673 7.00018 13.6673C7.7765 13.6673 8.52127 13.5333 9.21415 13.2893C9.19632 13.2608 9.17988 13.2305 9.16632 13.1975L7.11729 7.58353ZM11.5007 6.66418C11.5007 5.84002 11.2047 5.26959 10.9512 4.82566C10.6132 4.27625 10.2963 3.81144 10.2963 3.26206C10.2963 2.64934 10.7609 2.07891 11.4158 2.07891C11.4454 2.07891 11.4734 2.08246 11.5021 2.08428C10.316 0.997513 8.73576 0.333984 7.00018 0.333984C4.671 0.333984 2.62207 1.52907 1.42999 3.33872C1.58651 3.34368 1.73399 3.3468 1.85903 3.3468C2.55619 3.3468 3.63588 3.26206 3.63588 3.26206C3.99506 3.24101 4.03752 3.76899 3.6785 3.81144C3.6785 3.81144 3.31723 3.85376 2.91556 3.87478L5.34316 11.096L6.80229 6.72056L5.76369 3.87478C5.40451 3.85376 5.06448 3.81144 5.06448 3.81144C4.7051 3.79023 4.7472 3.24101 5.10676 3.26206C5.10676 3.26206 6.20748 3.3468 6.86251 3.3468C7.55966 3.3468 8.63952 3.26206 8.63952 3.26206C8.9989 3.24101 9.04118 3.76899 8.682 3.81144C8.682 3.81144 8.32037 3.85376 7.91904 3.87478L10.3283 11.041L11.0161 8.86177C11.3216 7.90938 11.5007 7.23462 11.5007 6.66418ZM0.333496 7.0004C0.333496 9.63908 1.86686 11.9196 4.09094 13.0001L0.910769 4.28732C0.540857 5.11635 0.333496 6.03387 0.333496 7.0004Z" fill="#141B38"/>
</svg>
