<svg width="20" height="20" viewBox="0 0 20 20" fill="none" xmlns="http://www.w3.org/2000/svg">
<mask id="mask0_1168_47266" style="mask-type:alpha" maskUnits="userSpaceOnUse" x="0" y="0" width="20" height="20">
<rect width="20" height="20" fill="#D9D9D9"/>
</mask>
<g mask="url(#mask0_1168_47266)">
<path d="M3.4165 17.5C2.93525 17.5 2.52327 17.3286 2.18057 16.9859C1.83786 16.6432 1.6665 16.2312 1.6665 15.75V4.25C1.6665 3.76875 1.83786 3.35677 2.18057 3.01406C2.52327 2.67135 2.93525 2.5 3.4165 2.5H8.2915C8.77276 2.5 9.18473 2.67135 9.52744 3.01406C9.87015 3.35677 10.0415 3.76875 10.0415 4.25V5.8125H16.5832C17.0644 5.8125 17.4764 5.98385 17.8191 6.32656C18.1618 6.66927 18.3332 7.08125 18.3332 7.5625V15.75C18.3332 16.2312 18.1618 16.6432 17.8191 16.9859C17.4764 17.3286 17.0644 17.5 16.5832 17.5H3.4165ZM3.4165 15.75H4.979V14.1875H3.4165V15.75ZM3.4165 12.4375H4.979V10.875H3.4165V12.4375ZM3.4165 9.125H4.979V7.5625H3.4165V9.125ZM3.4165 5.8125H4.979V4.25H3.4165V5.8125ZM6.729 15.75H8.2915V14.1875H6.729V15.75ZM6.729 12.4375H8.2915V10.875H6.729V12.4375ZM6.729 9.125H8.2915V7.5625H6.729V9.125ZM6.729 5.8125H8.2915V4.25H6.729V5.8125ZM10.0415 15.75H16.5832V7.5625H10.0415V9.125H11.7082V10.875H10.0415V12.4375H11.7082V14.1875H10.0415V15.75ZM13.2707 10.875V9.125H15.0207V10.875H13.2707ZM13.2707 14.1875V12.4375H15.0207V14.1875H13.2707Z" fill="#2C324C"/>
</g>
</svg>
