<svg width="54" height="46" viewBox="0 0 54 46" fill="none" xmlns="http://www.w3.org/2000/svg">
<path d="M1.6665 4C1.6665 2.34315 3.00965 1 4.6665 1H13.3332C14.99 1 16.3332 2.34315 16.3332 4V5.33333C16.3332 5.88562 16.7809 6.33333 17.3332 6.33333H38.6665C40.3234 6.33333 41.6665 7.67648 41.6665 9.33333V42C41.6665 43.6569 40.3234 45 38.6665 45H4.6665C3.00965 45 1.6665 43.6569 1.6665 42V4Z" fill="white" stroke="#0068A0" stroke-width="1.5"/>
<path d="M6.59567 14.193C6.82853 12.7376 8.08411 11.667 9.55799 11.667H50.1483C51.9943 11.667 53.4023 13.3182 53.1107 15.141L48.7373 42.4743C48.5045 43.9297 47.2489 45.0003 45.775 45.0003H5.18466C3.33873 45.0003 1.9307 43.3491 2.22234 41.5264L6.59567 14.193Z" fill="#E2F5FF" stroke="#0068A0" stroke-width="1.5"/>
<g clip-path="url(#clip0_820_22711)">
<path fill-rule="evenodd" clip-rule="evenodd" d="M34.5041 24.5953C35.1123 25.705 35.4584 26.9786 35.4584 28.3334C35.4584 31.2081 33.9005 33.7178 31.584 35.0684L33.9639 28.1874C34.4084 27.0758 34.5564 26.1869 34.5564 25.3965C34.5564 25.1097 34.5375 24.8434 34.5041 24.5953ZM28.7404 24.6801C29.2095 24.6554 29.6322 24.6061 29.6322 24.6061C30.0521 24.5564 30.0025 23.9393 29.5825 23.9639C29.5825 23.9639 28.3204 24.063 27.5056 24.063C26.74 24.063 25.4535 23.9639 25.4535 23.9639C25.0333 23.9393 24.984 24.5812 25.4041 24.6061C25.4041 24.6061 25.8015 24.6554 26.2214 24.6801L27.4353 28.0063L25.7298 33.1204L22.8925 24.6801C23.3619 24.6554 23.7842 24.6061 23.7842 24.6061C24.2038 24.5564 24.1542 23.9393 23.7344 23.9639C23.7344 23.9639 22.4725 24.063 21.6577 24.063C21.5115 24.063 21.3392 24.0594 21.1562 24.0535C22.5495 21.9383 24.9442 20.5415 27.6666 20.5415C29.695 20.5415 31.5421 21.3171 32.9283 22.5872C32.8947 22.5852 32.862 22.581 32.8274 22.581C32.062 22.581 31.5189 23.2477 31.5189 23.9639C31.5189 24.6061 31.8894 25.1494 32.2843 25.7914C32.5806 26.3104 32.9267 26.9771 32.9267 27.9404C32.9267 28.6072 32.6702 29.3812 32.3338 30.4593L31.5564 33.0561L28.7404 24.6801ZM27.6666 36.126C26.9017 36.126 26.1635 36.0138 25.4652 35.8085L27.8034 29.015L30.1983 35.5768C30.2141 35.6153 30.2335 35.6508 30.2541 35.6842C29.4442 35.9693 28.574 36.126 27.6666 36.126ZM19.8746 28.3334C19.8746 27.2037 20.1169 26.1313 20.5494 25.1623L24.2663 35.346C21.6668 34.0832 19.8746 31.4176 19.8746 28.3334ZM27.6666 19.667C22.8878 19.667 19 23.5547 19 28.3334C19 33.1122 22.8878 37.0004 27.6666 37.0004C32.4453 37.0004 36.3332 33.1122 36.3332 28.3334C36.3332 23.5547 32.4453 19.667 27.6666 19.667Z" fill="#0068A0"/>
</g>
<defs>
<clipPath id="clip0_820_22711">
<rect width="17.3333" height="17.3333" fill="white" transform="translate(19 19.667)"/>
</clipPath>
</defs>
</svg>
